<?xml version="1.0" standalone="no"?>
<!DOCTYPE svg PUBLIC "-//W3C//DTD SVG 1.1//EN" "http://www.w3.org/Graphics/SVG/1.1/DTD/svg11.dtd" >
<svg>
<metadata>
Created by FontForge 20120731 at Tue Apr 11 21:16:48 2017
 By convertio
</metadata>
<defs>
<font id="NotoSansCJKJPLight" horiz-adv-x="1000" >
  <font-face 
    font-family="NotoSansCJKJPLight"
    font-weight="200"
    font-stretch="normal"
    units-per-em="1000"
    panose-1="2 0 3 3 0 0 0 0 0 0"
    ascent="800"
    descent="-200"
    x-height="533"
    cap-height="729"
    bbox="-38 -277 1000 967"
    underline-thickness="50"
    underline-position="-100"
    unicode-range="U+0020-FFE5"
  />
<missing-glyph 
 />
    <glyph glyph-name=".notdef" 
 />
    <glyph glyph-name=".null" horiz-adv-x="0" 
 />
    <glyph glyph-name="nonmarkingreturn" horiz-adv-x="333" 
 />
    <glyph glyph-name="Identity.1" unicode=" " horiz-adv-x="222" 
 />
    <glyph glyph-name="Identity.2" unicode="!" horiz-adv-x="295" 
d="M126 203l-8 455l-1 84h60l-1 -84l-7 -455h-43zM147 -13q-20 0 -35.5 15t-15.5 39q0 25 15 40t36 15t36 -15t15 -40q0 -24 -15 -39t-36 -15z" />
    <glyph glyph-name="Identity.3" unicode="#" horiz-adv-x="535" 
d="M102 0l28 235h-90v45h96l23 182h-97v46h101l28 212h43l-27 -212h161l28 212h43l-28 -212h90v-46h-94l-22 -182h94v-45h-101l-27 -235h-44l28 235h-161l-29 -235h-43zM179 280h162l23 182h-162z" />
    <glyph glyph-name="Identity.4" unicode="$" horiz-adv-x="535" 
d="M450 640l-33 -36q-34 35 -64.5 50.5t-76.5 15.5q-56 0 -90.5 -34.5t-34.5 -87.5q0 -38 17.5 -66t45.5 -46.5t62 -34.5t67.5 -35t61.5 -42.5t45.5 -62t17.5 -89.5q0 -77 -47 -126.5t-123 -57.5v-110h-48v110q-106 9 -186 85l30 41q85 -77 176 -77q67 0 103.5 35.5
t36.5 95.5q0 58 -33 97.5t-79.5 63l-93 47t-79.5 66t-33 103.5q0 71 44 119t114 56v110h48v-110q86 -7 152 -80z" />
    <glyph glyph-name="Identity.5" unicode="%" horiz-adv-x="897" 
d="M201 284q-74 0 -116 60.5t-42 170.5q0 108 42.5 167.5t115.5 59.5q74 0 116 -59.5t42 -167.5q0 -110 -42 -170.5t-116 -60.5zM201 324q50 0 80 50.5t30 140.5q0 89 -30 138t-80 49t-79.5 -49t-29.5 -138q0 -90 29.5 -140.5t79.5 -50.5zM221 -13l406 755h46l-406 -755h-46
zM696 -13q-74 0 -116.5 60t-42.5 170q0 109 42.5 168.5t116.5 59.5q73 0 115.5 -60t42.5 -168q0 -110 -42.5 -170t-115.5 -60zM696 27q50 0 79.5 50t29.5 140t-29.5 139t-79.5 49q-51 0 -80.5 -49t-29.5 -139t29.5 -140t80.5 -50z" />
    <glyph glyph-name="Identity.6" unicode="&#x26;" horiz-adv-x="645" 
d="M98 189q0 -68 46.5 -110.5t113.5 -42.5q81 0 157 73q-125 112 -205 248q-53 -42 -82.5 -81.5t-29.5 -86.5zM191 579q0 -65 39 -149q46 33 70.5 53.5t46.5 54t22 67.5q0 39 -19 65t-59 26q-45 0 -72.5 -33.5t-27.5 -83.5zM630 37l-18 -50q-76 24 -158 89q-91 -89 -202 -89
q-92 0 -152.5 55t-60.5 144q0 65 39 113.5t109 99.5q-49 101 -49 179q0 71 43.5 117.5t111.5 46.5q59 0 92.5 -37.5t33.5 -96.5q0 -27 -11 -54t-23 -45.5t-40 -44t-43 -37t-50 -38.5q75 -132 199 -239q72 92 113 234h55q-47 -159 -129 -267q77 -58 140 -80z" />
    <glyph glyph-name="Identity.7" unicode="'" horiz-adv-x="250" 
d="M104 517l-12 168l-1 82h66l-1 -82l-11 -168h-41z" />
    <glyph glyph-name="Identity.8" unicode="(" horiz-adv-x="315" 
d="M242 -193q-146 236 -146 501q0 266 146 502l36 -19q-132 -214 -132 -483q0 -271 132 -483z" />
    <glyph glyph-name="Identity.9" unicode=")" horiz-adv-x="315" 
d="M73 -193l-36 18q132 212 132 483q0 269 -132 483l36 19q146 -236 146 -502q0 -265 -146 -501z" />
    <glyph glyph-name="Identity.10" unicode="*" horiz-adv-x="443" 
d="M148 502l-33 23l61 100l-102 40l12 38l107 -29l9 115h40l7 -114l107 28l12 -38l-102 -40l62 -100l-33 -23l-73 92z" />
    <glyph glyph-name="Identity.11" unicode="+" horiz-adv-x="535" 
d="M242 120v222h-205v47h205v222h51v-222h204v-47h-204v-222h-51z" />
    <glyph glyph-name="Identity.12" unicode="," horiz-adv-x="250" 
d="M70 -176l-17 38q87 45 88 134q-4 -1 -12 -1q-22 0 -37 13.5t-15 37.5q0 23 15.5 36.5t37.5 13.5q27 0 43.5 -23t16.5 -63q0 -61 -32.5 -109.5t-87.5 -76.5z" />
    <glyph glyph-name="Identity.13" unicode="-" horiz-adv-x="333" 
d="M45 252v49h246v-49h-246z" />
    <glyph glyph-name="Identity.14" unicode="." horiz-adv-x="250" 
d="M125 -13q-21 0 -36 15t-15 39q0 25 15 40t36 15t36 -15t15 -40q0 -24 -15 -39t-36 -15z" />
    <glyph glyph-name="Identity.15" unicode="/" horiz-adv-x="394" 
d="M10 -177l329 963h48l-330 -963h-47z" />
    <glyph glyph-name="Identity.16" unicode="0" horiz-adv-x="535" 
d="M268 -13q-102 0 -158.5 96t-56.5 284q0 186 56.5 280.5t158.5 94.5q101 0 157.5 -94.5t56.5 -280.5q0 -188 -56.5 -284t-157.5 -96zM268 36q72 0 114 84.5t42 246.5q0 159 -42 242.5t-114 83.5q-73 0 -115 -83.5t-42 -242.5q0 -162 42 -246.5t115 -84.5z" />
    <glyph glyph-name="Identity.17" unicode="1" horiz-adv-x="535" 
d="M92 0v51h165v593h-127v39q83 14 139 46h47v-678h152v-51h-376z" />
    <glyph glyph-name="Identity.18" unicode="2" horiz-adv-x="535" 
d="M45 0v36q182 157 263.5 275.5t81.5 219.5q0 72 -37.5 117t-111.5 45q-89 0 -162 -91l-37 35q95 105 205 105q94 0 148 -57t54 -152q0 -109 -78 -225.5t-234 -261.5q80 6 120 6h227v-52h-439z" />
    <glyph glyph-name="Identity.19" unicode="3" horiz-adv-x="535" 
d="M258 -13q-133 0 -227 100l33 39q83 -89 192 -89q71 0 116.5 43t45.5 113q0 164 -242 164v49q113 0 164.5 42.5t51.5 113.5q0 59 -37.5 95t-100.5 37q-90 -1 -160 -77l-34 40q90 85 195 86q87 -1 142 -48t55 -129q0 -68 -36.5 -114t-97.5 -66v-5q70 -15 115 -64.5
t45 -123.5q0 -93 -62.5 -149.5t-157.5 -56.5z" />
    <glyph glyph-name="Identity.20" unicode="4" horiz-adv-x="535" 
d="M86 257h255v269q0 53 6 121h-5q-27 -52 -58 -101zM501 257v-49h-103v-208h-57v208h-322v37l322 484h57v-472h103z" />
    <glyph glyph-name="Identity.21" unicode="5" horiz-adv-x="535" 
d="M253 -13q-128 0 -225 95l32 41q82 -86 191 -86q71 0 120.5 54.5t49.5 140.5q0 87 -45 137t-122 50q-62 0 -129 -46l-38 23l25 333h333v-51h-281l-21 -245q58 35 122 35q96 0 156 -59t60 -175q0 -113 -68 -180t-160 -67z" />
    <glyph glyph-name="Identity.22" unicode="6" horiz-adv-x="535" 
d="M294 36q59 0 98.5 52.5t39.5 131.5q0 84 -36.5 133t-111.5 49q-90 0 -167 -104q7 -124 51.5 -193t125.5 -69zM476 672l-35 -38q-47 58 -119 58q-90 0 -147 -80.5t-59 -257.5q77 95 176 95q94 0 146 -59t52 -170q0 -101 -58 -167t-139 -66q-108 0 -171 93t-63 264
q0 206 74 302t188 96q92 0 155 -70z" />
    <glyph glyph-name="Identity.23" unicode="7" horiz-adv-x="535" 
d="M205 0q9 220 56.5 374t155.5 304h-369v51h440v-35q-123 -161 -167 -312t-53 -382h-63z" />
    <glyph glyph-name="Identity.24" unicode="8" horiz-adv-x="535" 
d="M271 -13q-98 0 -162 55t-64 139q0 69 40.5 122.5t98.5 85.5v4q-100 67 -100 166q0 79 54 129.5t134 50.5q89 0 141 -53.5t52 -137.5q0 -53 -31 -101.5t-69 -79.5v-5q56 -34 90 -78t34 -112q0 -79 -61 -132t-157 -53zM322 383q89 74 89 163q0 62 -38 104t-102 42
q-57 0 -94 -37.5t-37 -95.5q0 -35 14.5 -63t44 -49.5t55.5 -34t68 -29.5zM271 34q71 0 115.5 39.5t44.5 99.5q0 27 -7 49.5t-24 41t-32.5 31.5t-45.5 27.5t-48.5 22.5t-54.5 22q-119 -71 -119 -183q0 -64 48.5 -107t122.5 -43z" />
    <glyph glyph-name="Identity.25" unicode="9" horiz-adv-x="535" 
d="M250 327q93 0 170 107q-5 123 -50 191.5t-128 68.5q-59 0 -98.5 -53t-39.5 -132q0 -83 36.5 -132.5t109.5 -49.5zM61 57l35 38q50 -58 127 -58q84 0 139 81.5t59 258.5q-80 -97 -178 -97q-92 0 -144.5 59.5t-52.5 169.5q0 101 58 167t139 66q108 0 171.5 -88t63.5 -250
q0 -111 -21 -194t-57.5 -130.5t-81 -70t-96.5 -22.5q-94 0 -161 70z" />
    <glyph glyph-name="Identity.26" unicode=":" horiz-adv-x="250" 
d="M125 405q-21 0 -36 15t-15 39q0 25 15 40t36 15t36 -15t15 -40q0 -24 -15 -39t-36 -15zM125 -13q-21 0 -36 15t-15 39q0 25 15 40t36 15t36 -15t15 -40q0 -24 -15 -39t-36 -15z" />
    <glyph glyph-name="Identity.27" unicode=";" horiz-adv-x="250" 
d="M125 405q-21 0 -36 15t-15 39q0 25 15 40t36 15t36 -15t15 -40q0 -24 -15 -39t-36 -15zM70 -176l-17 38q87 45 88 134q-4 -1 -12 -1q-22 0 -37 13.5t-15 37.5q0 23 15.5 36.5t37.5 13.5q27 0 43.5 -23t16.5 -63q0 -61 -32.5 -109.5t-87.5 -76.5z" />
    <glyph glyph-name="Identity.28" unicode="&#x3c;" horiz-adv-x="535" 
d="M497 158l-460 182v55l460 182v-54l-252 -96l-147 -57v-5l147 -56l252 -97v-54z" />
    <glyph glyph-name="Identity.29" unicode="=" horiz-adv-x="535" 
d="M37 456v47h460v-47h-460zM37 228v46h460v-46h-460z" />
    <glyph glyph-name="Identity.30" unicode="&#x3e;" horiz-adv-x="535" 
d="M37 158v54l252 97l148 56v5l-148 57l-252 96v54l460 -182v-55z" />
    <glyph glyph-name="Identity.31" unicode="?" horiz-adv-x="451" 
d="M179 203q-7 50 7 95t38.5 79t50 65t44 67t18.5 72q0 53 -31 88.5t-91 35.5q-83 0 -139 -69l-35 32q78 87 180 87q80 0 127.5 -47.5t47.5 -122.5q0 -41 -19 -80.5t-45 -72t-51 -66t-40 -75.5t-9 -88h-53zM209 -13q-21 0 -35.5 15t-14.5 39q0 25 14.5 40t35.5 15t36.5 -15
t15.5 -40q0 -24 -15.5 -39t-36.5 -15z" />
    <glyph glyph-name="Identity.32" unicode="@" horiz-adv-x="910" 
d="M433 -163q-166 0 -271 103t-105 284q0 106 36.5 197.5t97.5 153t142 96t169 34.5q161 0 256 -97.5t95 -257.5q0 -133 -65 -211.5t-143 -78.5q-46 0 -75 21.5t-33 62.5h-2q-71 -77 -136 -77q-55 0 -91.5 40t-36.5 113q0 90 58.5 170t149.5 80q59 0 91 -54h2l11 45h42
l-40 -211q-35 -145 65 -145q58 0 107 66.5t49 174.5q0 143 -82 228.5t-226 85.5q-75 0 -146 -31.5t-126 -86.5t-88 -137.5t-33 -177.5q0 -160 91.5 -253t240.5 -93q100 0 184 53l20 -39q-94 -58 -208 -58zM408 112q54 0 116 72l34 188q-33 53 -80 53q-69 0 -113 -63.5
t-44 -138.5q0 -57 24 -84t63 -27z" />
    <glyph glyph-name="Identity.33" unicode="A" horiz-adv-x="587" 
d="M167 293h252l-44 132q-38 107 -80 250h-4q-31 -110 -79 -250zM516 0l-81 245h-284l-83 -245h-60l255 729h62l255 -729h-64z" />
    <glyph glyph-name="Identity.34" unicode="B" horiz-adv-x="642" 
d="M106 0v729h201q114 0 178.5 -44t64.5 -133q0 -57 -29 -100t-83 -59v-5q73 -12 114.5 -57t41.5 -118q0 -103 -73 -158t-199 -55h-216zM166 411h122q202 0 202 134q0 72 -48 103.5t-148 31.5h-128v-269zM166 50h142q227 0 227 163q0 150 -227 150h-142v-313z" />
    <glyph glyph-name="Identity.35" unicode="C" horiz-adv-x="627" 
d="M368 -13q-137 0 -222.5 102.5t-85.5 275.5t87 275t227 102q117 0 192 -88l-34 -39q-65 73 -158 73q-116 0 -183.5 -86.5t-67.5 -234.5q0 -150 67 -238t181 -88q101 0 181 88l34 -38q-90 -104 -218 -104z" />
    <glyph glyph-name="Identity.36" unicode="D" horiz-adv-x="672" 
d="M106 0v729h172q165 0 249.5 -95.5t84.5 -266.5q0 -172 -84.5 -269.5t-248.5 -97.5h-173zM166 51h106q139 0 208 84.5t69 231.5t-68.5 229.5t-208.5 82.5h-106v-628z" />
    <glyph glyph-name="Identity.37" unicode="E" horiz-adv-x="573" 
d="M106 0v729h403v-51h-343v-266h289v-51h-289v-309h354v-52h-414z" />
    <glyph glyph-name="Identity.38" unicode="F" horiz-adv-x="532" 
d="M106 0v729h402v-51h-342v-281h289v-51h-289v-346h-60z" />
    <glyph glyph-name="Identity.39" unicode="G" horiz-adv-x="673" 
d="M376 -13q-142 0 -229 102.5t-87 275.5t89.5 275t235.5 102q118 0 202 -88l-35 -39q-68 73 -166 73q-121 0 -192 -86.5t-71 -234.5q0 -151 68.5 -238.5t190.5 -87.5q103 0 155 52v219h-169v51h227v-293q-78 -83 -219 -83z" />
    <glyph glyph-name="Identity.40" unicode="H" horiz-adv-x="710" 
d="M106 0v729h60v-316h379v316h59v-729h-59v361h-379v-361h-60z" />
    <glyph glyph-name="Identity.41" unicode="I" horiz-adv-x="272" 
d="M106 0v729h60v-729h-60z" />
    <glyph glyph-name="Identity.42" unicode="J" horiz-adv-x="517" 
d="M227 -13q-125 0 -185 109l45 30q50 -85 138 -85q65 0 96.5 40t31.5 127v521h60v-527q0 -97 -45 -156t-141 -59z" />
    <glyph glyph-name="Identity.43" unicode="K" horiz-adv-x="623" 
d="M106 0v729h60v-396h2l342 396h71l-232 -271l265 -458h-69l-236 411l-143 -165v-246h-60z" />
    <glyph glyph-name="Identity.44" unicode="L" horiz-adv-x="522" 
d="M106 0v729h60v-677h332v-52h-392z" />
    <glyph glyph-name="Identity.45" unicode="M" horiz-adv-x="787" 
d="M106 0v729h80l150 -419l57 -160h4q11 31 30.5 90t23.5 70l150 419h80v-729h-57v462q0 59 7 201h-4l-57 -163l-153 -422h-48l-154 422l-57 163h-4q7 -142 7 -201v-462h-55z" />
    <glyph glyph-name="Identity.46" unicode="N" horiz-adv-x="707" 
d="M106 0v729h62l298 -501l81 -147h5q-8 144 -8 216v432h57v-729h-62l-297 502l-82 146h-5q8 -187 8 -211v-437h-57z" />
    <glyph glyph-name="Identity.47" unicode="O" horiz-adv-x="726" 
d="M362 -13q-134 0 -218 104t-84 276q0 171 84 273t218 102q135 0 219 -102t84 -273q0 -172 -84 -276t-219 -104zM362 41q109 0 175 89t66 237t-66 234.5t-175 86.5t-174 -86.5t-65 -234.5t65.5 -237t173.5 -89z" />
    <glyph glyph-name="Identity.48" unicode="P" horiz-adv-x="612" 
d="M106 0v729h189q130 0 198 -48t68 -157q0 -107 -69 -161.5t-193 -54.5h-133v-308h-60zM166 358h121q109 0 161 39.5t52 126.5q0 86 -52 120.5t-165 34.5h-117v-321z" />
    <glyph glyph-name="Identity.49" unicode="Q" horiz-adv-x="726" 
d="M123 367q0 -150 65.5 -239.5t173.5 -89.5q109 0 175 89.5t66 239.5q0 148 -66 234.5t-175 86.5t-174 -86.5t-65 -234.5zM658 -111l13 -50q-37 -13 -93 -13q-90 0 -154 44.5t-93 118.5q-122 12 -196.5 114t-74.5 264q0 171 84 273t218 102q135 0 219 -102t84 -273
q0 -160 -73.5 -262t-194.5 -116q50 -110 187 -110q44 0 74 10z" />
    <glyph glyph-name="Identity.50" unicode="R" horiz-adv-x="608" 
d="M166 679v-300h139q196 0 196 155q0 77 -49 111t-147 34h-139zM577 0h-68l-194 329h-149v-329h-60v729h213q243 0 243 -195q0 -85 -48.5 -136t-133.5 -64z" />
    <glyph glyph-name="Identity.51" unicode="S" horiz-adv-x="580" 
d="M299 -13q-151 0 -248 109l37 42q86 -97 211 -97q80 0 127.5 38.5t47.5 101.5q0 32 -9 55t-29.5 40.5t-39 27.5t-51.5 25l-109 48q-30 13 -51.5 26t-46 35t-37.5 52.5t-13 68.5q0 80 61 131.5t155 51.5q125 0 206 -88l-34 -39q-71 73 -172 73q-70 0 -112.5 -34t-42.5 -90
q0 -29 10.5 -52t32.5 -39.5t38 -25t43 -20.5l109 -48q74 -33 113.5 -75.5t39.5 -118.5q0 -85 -65 -141.5t-171 -56.5z" />
    <glyph glyph-name="Identity.52" unicode="T" horiz-adv-x="584" 
d="M261 0v678h-229v51h520v-51h-230v-678h-61z" />
    <glyph glyph-name="Identity.53" unicode="U" horiz-adv-x="705" 
d="M352 -13q-52 0 -94.5 14.5t-78.5 47.5t-56 93t-20 143v444h60v-441q0 -133 52 -190t137 -57q86 0 139.5 57t53.5 190v441h57v-444q0 -83 -20 -143t-56 -93t-79 -47.5t-95 -14.5z" />
    <glyph glyph-name="Identity.54" unicode="V" horiz-adv-x="550" 
d="M243 0l-239 729h64l131 -419q73 -238 75 -244h4q18 52 44.5 138t32.5 106l130 419h61l-237 -729h-66z" />
    <glyph glyph-name="Identity.55" unicode="W" horiz-adv-x="857" 
d="M193 0l-163 729h62l88 -422q20 -92 49 -238h4q18 80 56 238l111 422h59l112 -422q10 -44 29 -124.5t27 -113.5h5q27 147 46 238l88 422h59l-160 -729h-68l-129 487q-1 3 -38 164h-4q-6 -29 -20 -83t-20 -81l-125 -487h-68z" />
    <glyph glyph-name="Identity.56" unicode="X" horiz-adv-x="541" 
d="M19 0l217 377l-203 352h66l115 -208q10 -17 28.5 -49t30.5 -52h4q10 17 27 50t27 51l115 208h62l-203 -355l218 -374h-65l-123 218q-45 79 -67 116h-4q-51 -98 -61 -116l-122 -218h-62z" />
    <glyph glyph-name="Identity.57" unicode="Y" horiz-adv-x="502" 
d="M221 0v293l-219 436h64l107 -223q11 -23 36 -76t40 -82h4q58 112 78 158l107 223h62l-219 -436v-293h-60z" />
    <glyph glyph-name="Identity.58" unicode="Z" horiz-adv-x="597" 
d="M54 0v35l412 643h-375v51h449v-35l-411 -642h416v-52h-491z" />
    <glyph glyph-name="Identity.59" unicode="[" horiz-adv-x="315" 
d="M108 -168v952h181v-36h-136v-880h136v-36h-181z" />
    <glyph glyph-name="Identity.60" unicode="\" horiz-adv-x="394" 
d="M337 -177l-329 963h47l329 -963h-47z" />
    <glyph glyph-name="Identity.61" unicode="]" horiz-adv-x="315" 
d="M26 -168v36h136v880h-136v36h181v-952h-181z" />
    <glyph glyph-name="Identity.62" unicode="^" horiz-adv-x="535" 
d="M72 319l167 423h57l167 -423h-54l-83 220l-56 146h-5l-56 -146l-83 -220h-54z" />
    <glyph glyph-name="Identity.63" unicode="_" horiz-adv-x="554" 
d="M13 -132v47h528v-47h-528z" />
    <glyph glyph-name="Identity.64" unicode="`" horiz-adv-x="594" 
d="M325 635l-162 168l43 38l151 -176z" />
    <glyph glyph-name="Identity.65" unicode="a" horiz-adv-x="547" 
d="M218 -13q-68 0 -111.5 38t-43.5 109q0 87 80.5 133.5t259.5 67.5q4 161 -122 161q-87 0 -168 -61l-26 42q103 70 202 70q90 0 131 -56.5t41 -152.5v-338h-49l-6 68h-2q-99 -81 -186 -81zM230 36q78 0 173 83v173q-153 -18 -217.5 -55t-64.5 -100q0 -52 30.5 -76.5
t78.5 -24.5z" />
    <glyph glyph-name="Identity.66" unicode="b" horiz-adv-x="603" 
d="M314 -13q-78 0 -158 67h-2l-7 -54h-47v795h58v-228l-3 -102q97 82 180 82q104 0 159 -73t55 -199q0 -132 -68.5 -210t-166.5 -78zM309 38q79 0 128.5 65.5t49.5 171.5q0 221 -163 221q-73 0 -166 -85v-308q74 -65 151 -65z" />
    <glyph glyph-name="Identity.67" unicode="c" horiz-adv-x="499" 
d="M300 -13q-107 0 -175.5 74.5t-68.5 204.5q0 129 72 205t175 76q83 0 156 -65l-33 -40q-57 54 -122 54q-80 0 -133.5 -64.5t-53.5 -165.5q0 -102 51 -165.5t135 -63.5q73 0 139 59l28 -40q-79 -69 -170 -69z" />
    <glyph glyph-name="Identity.68" unicode="d" horiz-adv-x="605" 
d="M277 -13q-102 0 -161.5 73.5t-59.5 205.5q0 125 69 203t167 78q45 0 80.5 -15.5t78.5 -49.5l-4 96v217h58v-795h-48l-7 67h-2q-80 -80 -171 -80zM287 38q79 0 160 84v308q-74 66 -149 66q-77 0 -128.5 -66t-51.5 -164q0 -105 44.5 -166.5t124.5 -61.5z" />
    <glyph glyph-name="Identity.69" unicode="e" horiz-adv-x="538" 
d="M304 -13q-106 0 -177 75.5t-71 203.5q0 125 69.5 203t164.5 78q97 0 151.5 -65.5t54.5 -182.5q0 -23 -3 -42h-378q2 -98 55.5 -159.5t139.5 -61.5q76 0 142 46l22 -43q-83 -52 -170 -52zM115 303h328q0 95 -40.5 144.5t-111.5 49.5q-68 0 -118 -52.5t-58 -141.5z" />
    <glyph glyph-name="Identity.70" unicode="f" horiz-adv-x="298" 
d="M326 790l-14 -46q-33 15 -63 15q-82 0 -82 -117v-109h121v-49h-121v-484h-58v484h-74v44l74 5v112q0 80 35 121.5t102 41.5q39 0 80 -18z" />
    <glyph glyph-name="Identity.71" unicode="g" horiz-adv-x="543" 
d="M275 -254q-100 0 -160 39.5t-60 106.5q0 73 80 127v5q-48 28 -48 86q0 55 59 99v4q-28 23 -48 61.5t-20 83.5q0 82 55.5 135.5t135.5 53.5q37 0 71 -14h182v-48h-120q55 -48 55 -128q0 -82 -54 -135t-134 -53q-48 0 -86 22q-42 -33 -42 -74q0 -67 100 -67h112
q91 0 134.5 -30t43.5 -93q0 -73 -71.5 -127t-184.5 -54zM269 213q54 0 93 40.5t39 104.5t-38 103t-94 39t-94.5 -39t-38.5 -103t39 -104.5t94 -40.5zM282 -210q83 0 137 39t54 90q0 42 -30 60t-91 18h-109q-27 0 -67 9q-66 -46 -66 -107q0 -49 45.5 -79t126.5 -30z" />
    <glyph glyph-name="Identity.72" unicode="h" horiz-adv-x="589" 
d="M100 0v795h58v-228l-1 -116q46 46 89 71t93 25q162 0 162 -206v-341h-58v333q0 84 -28 123t-89 39q-44 0 -81 -22.5t-87 -73.5v-399h-58z" />
    <glyph glyph-name="Identity.73" unicode="i" horiz-adv-x="257" 
d="M100 0v533h58v-533h-58zM130 658q-21 0 -35 13t-14 33q0 22 14 35t35 13q20 0 34.5 -13t14.5 -35q0 -20 -14.5 -33t-34.5 -13z" />
    <glyph glyph-name="Identity.74" unicode="j" horiz-adv-x="258" 
d="M33 -251q-41 0 -71 14l13 46q31 -11 55 -11q41 0 55.5 28.5t14.5 85.5v621h59v-623q0 -161 -126 -161zM130 658q-20 0 -34 13t-14 33q0 22 13.5 35t34.5 13t35 -13t14 -35q0 -20 -14 -33t-35 -13z" />
    <glyph glyph-name="Identity.75" unicode="k" horiz-adv-x="521" 
d="M100 0v795h58v-576h2l255 314h66l-174 -211l202 -322h-64l-172 280l-115 -136v-144h-58z" />
    <glyph glyph-name="Identity.76" unicode="l" horiz-adv-x="267" 
d="M171 -13q-71 0 -71 92v716h58v-722q0 -36 24 -36q8 0 19 2l9 -46q-20 -6 -39 -6z" />
    <glyph glyph-name="Identity.77" unicode="m" horiz-adv-x="904" 
d="M100 0v533h48l7 -81h2q86 95 168 95q115 0 147 -108q100 108 180 108q160 0 160 -206v-341h-58v333q0 83 -28 122.5t-87 39.5q-69 0 -154 -96v-399h-58v333q0 83 -28 122.5t-87 39.5q-70 0 -154 -96v-399h-58z" />
    <glyph glyph-name="Identity.78" unicode="n" horiz-adv-x="593" 
d="M100 0v533h48l7 -81h2q47 46 89.5 70.5t92.5 24.5q162 0 162 -206v-341h-58v333q0 84 -28 123t-89 39q-44 0 -81 -22.5t-87 -73.5v-399h-58z" />
    <glyph glyph-name="Identity.79" unicode="o" horiz-adv-x="594" 
d="M297 -13q-101 0 -171 75.5t-70 203.5q0 129 70 205t171 76t171 -76t70 -205q0 -128 -70 -203.5t-171 -75.5zM297 37q79 0 130 64t51 165t-51 165.5t-130 64.5q-78 0 -129 -64.5t-51 -165.5t50.5 -165t129.5 -64z" />
    <glyph glyph-name="Identity.80" unicode="p" horiz-adv-x="605" 
d="M100 -238v771h48l7 -65h2q103 79 178 79q104 0 159 -73t55 -199q0 -132 -68.5 -210t-166.5 -78q-73 0 -157 65l1 -98v-192h-58zM309 38q79 0 128.5 65.5t49.5 171.5q0 221 -163 221q-70 0 -166 -85v-308q77 -65 151 -65z" />
    <glyph glyph-name="Identity.81" unicode="q" horiz-adv-x="605" 
d="M447 -238v203l4 104q-84 -82 -174 -82q-102 0 -161.5 73.5t-59.5 205.5q0 125 69 203t167 78q79 0 157 -64h2l7 50h47v-771h-58zM287 38q79 0 160 84v308q-74 66 -149 66q-77 0 -128.5 -66t-51.5 -164q0 -105 44.5 -166.5t124.5 -61.5z" />
    <glyph glyph-name="Identity.82" unicode="r" horiz-adv-x="359" 
d="M100 0v533h48l7 -99h2q61 113 151 113q31 0 54 -12l-12 -52q-23 9 -49 9q-39 0 -77.5 -32.5t-65.5 -101.5v-358h-58z" />
    <glyph glyph-name="Identity.83" unicode="s" horiz-adv-x="452" 
d="M231 -13q-108 0 -196 73l31 42q79 -67 168 -67q58 0 90 28.5t32 72.5q0 42 -34.5 67.5t-94.5 46.5q-39 14 -61 23.5t-50.5 28t-42 43.5t-13.5 58q0 61 47 102.5t128 41.5q84 0 155 -57l-30 -40q-64 48 -127 48q-56 0 -85.5 -26.5t-29.5 -65.5q0 -17 8 -31.5t17 -23.5
t29.5 -19.5t32 -15t37.5 -14.5q89 -34 119 -56q53 -40 53 -107q0 -64 -49 -108t-134 -44z" />
    <glyph glyph-name="Identity.84" unicode="t" horiz-adv-x="352" 
d="M250 -13q-75 0 -106 42.5t-31 122.5v332h-83v44l85 5l7 154h49v-154h153v-49h-153v-336q0 -55 19.5 -83t69.5 -28q29 0 65 15l14 -45q-56 -20 -89 -20z" />
    <glyph glyph-name="Identity.85" unicode="u" horiz-adv-x="590" 
d="M253 -13q-83 0 -122 50.5t-39 154.5v341h58v-334q0 -83 27.5 -121.5t88.5 -38.5q45 0 82 24t84 80v390h58v-533h-49l-5 88h-3q-88 -101 -180 -101z" />
    <glyph glyph-name="Identity.86" unicode="v" horiz-adv-x="489" 
d="M211 0l-198 533h63l115 -327q32 -99 53 -154h4q34 97 53 154l116 327h59l-196 -533h-69z" />
    <glyph glyph-name="Identity.87" unicode="w" horiz-adv-x="766" 
d="M182 0l-156 533h62l93 -336q33 -141 34 -145h5q8 28 38 145l95 336h64l95 -336q23 -90 39 -145h4q7 28 21 82.5t16 62.5l91 336h57l-150 -533h-75l-90 321q-8 27 -20.5 77.5t-19.5 75.5h-5q-22 -96 -41 -155l-87 -319h-70z" />
    <glyph glyph-name="Identity.88" unicode="x" horiz-adv-x="460" 
d="M15 0l180 279l-165 254h64l82 -131q25 -41 57 -88h4q6 10 53 88l79 131h61l-165 -260l180 -273h-65l-91 141q-26 48 -61 97h-5q-10 -16 -30 -48.5t-30 -48.5l-86 -141h-62z" />
    <glyph glyph-name="Identity.89" unicode="y" horiz-adv-x="490" 
d="M85 -240q-33 0 -57 11l13 49q22 -8 43 -8q87 0 133 135l14 45l-218 541h63l124 -326q47 -128 56 -150h5q9 27 25.5 79t22.5 71l109 326h59l-208 -595q-62 -178 -184 -178z" />
    <glyph glyph-name="Identity.90" unicode="z" horiz-adv-x="453" 
d="M32 0v31l307 453h-274v49h349v-31l-307 -452h317v-50h-392z" />
    <glyph glyph-name="Identity.91" unicode="{" horiz-adv-x="315" 
d="M249 -168q-66 0 -95 30.5t-29 111.5q0 42 4.5 114.5t4.5 109.5q0 90 -95 90v40q95 0 95 87q0 39 -4.5 112t-4.5 114q0 82 29 112.5t95 30.5h40v-36h-33q-47 0 -65 -26t-18 -86q0 -34 3.5 -101.5t3.5 -108.5q0 -51 -13 -79t-46 -37v-4q33 -10 46 -38t13 -79
q0 -41 -3.5 -108t-3.5 -101q0 -59 18 -85.5t65 -26.5h33v-36h-40z" />
    <glyph glyph-name="Identity.92" unicode="|" horiz-adv-x="254" 
d="M105 -277v1108h44v-1108h-44z" />
    <glyph glyph-name="Identity.93" unicode="}" horiz-adv-x="315" 
d="M26 -168v36h33q47 0 64.5 26t17.5 86q0 34 -3 101t-3 108q0 51 13 79t46 38v4q-33 9 -46 37t-13 79q0 41 3 108.5t3 101.5q0 60 -17.5 86t-64.5 26h-33v36h40q65 0 94.5 -30.5t29.5 -112.5q0 -41 -4.5 -114t-4.5 -112q0 -87 95 -87v-40q-95 0 -95 -90q0 -37 4.5 -109.5
t4.5 -114.5q0 -81 -29.5 -111.5t-94.5 -30.5h-40z" />
    <glyph glyph-name="Identity.94" unicode="~" horiz-adv-x="535" 
d="M366 293q-36 0 -72.5 24.5t-69 49t-58.5 24.5q-50 0 -87 -69l-35 23q49 93 125 93q36 0 72.5 -24.5t68.5 -49t58 -24.5q52 0 87 69l36 -24q-50 -92 -125 -92z" />
    <glyph glyph-name="Identity.95" unicode="&#xa1;" horiz-adv-x="295" 
d="M117 -209l1 84l8 455h43l7 -455l1 -84h-60zM147 437q-20 0 -35.5 15.5t-15.5 40.5q0 24 15.5 39t35.5 15q21 0 36 -15t15 -39q0 -25 -15 -40.5t-36 -15.5z" />
    <glyph glyph-name="Identity.96" unicode="&#xa2;" horiz-adv-x="535" 
d="M284 139v410q-71 -12 -114 -67.5t-43 -137.5q0 -84 42 -139t115 -66zM458 194l29 -37q-74 -67 -161 -71v-118h-42v120q-97 10 -156.5 77.5t-59.5 178.5q0 110 61 177.5t155 79.5v122h42v-120q80 -2 149 -66l-31 -37q-54 51 -118 52v-416q69 3 132 58z" />
    <glyph glyph-name="Identity.97" unicode="&#xa3;" horiz-adv-x="535" 
d="M157 52h323v-52h-418v36q58 32 87.5 88t29.5 123q0 34 -10 76h-110v41l74 3h25q-2 6 -9.5 31t-10 34.5t-7.5 29.5t-6.5 35.5t-1.5 31.5q0 88 52 140t141 52q100 0 162 -80l-37 -35q-50 64 -124 64q-64 0 -99.5 -39.5t-35.5 -101.5q0 -20 3.5 -43t7 -36.5t12 -43.5
t11.5 -39h181v-44h-171q8 -38 8 -76q0 -64 -19 -108t-58 -83v-4z" />
    <glyph glyph-name="Identity.98" unicode="&#xa4;" horiz-adv-x="535" 
d="M66 123l-33 36l72 74q-41 53 -41 131q0 80 41 133l-72 75l33 35l74 -76q55 47 128 47q71 0 126 -47l74 76l34 -35l-73 -75q42 -57 42 -133q0 -74 -42 -131l73 -74l-34 -36l-74 76q-53 -48 -126 -48q-74 0 -128 48zM268 198q61 0 104 46.5t43 119.5q0 72 -43 119.5
t-104 47.5q-62 0 -105 -47.5t-43 -119.5q0 -73 43 -119.5t105 -46.5z" />
    <glyph glyph-name="Identity.99" unicode="&#xa5;" horiz-adv-x="535" 
d="M237 0v182h-183v40h183v77h-183v41h166l-189 368h63l100 -209q46 -98 71 -152h5q57 121 73 152l101 209h60l-191 -368h167v-41h-184v-77h184v-40h-184v-182h-59z" />
    <glyph glyph-name="Identity.100" unicode="&#xa6;" horiz-adv-x="254" 
d="M105 311v520h44v-520h-44zM105 -277v519h44v-519h-44z" />
    <glyph glyph-name="Identity.101" unicode="&#xa7;" 
d="M687 722l-23 -44q-24 19 -68.5 34.5t-96.5 15.5q-56 0 -94.5 -32t-38.5 -69q0 -25 12.5 -44t38.5 -33t51.5 -22.5t66.5 -18.5q184 -46 184 -159q0 -41 -17 -78.5t-44 -61.5q16 -13 27 -40t11 -57q0 -70 -58.5 -119.5t-152.5 -49.5q-120 0 -177 51l26 42q57 -50 155 -50
q71 0 113 34.5t42 85.5q0 45 -35.5 73t-136.5 58q-104 31 -148 68t-44 98q0 67 71 127q-18 13 -28 37.5t-10 47.5q0 65 54 110t146 45q102 0 174 -49zM384 507q-53 -47 -53 -100q0 -35 28 -60.5t123 -56.5q111 -36 144 -57q42 42 42 103q0 41 -33 70t-74.5 41.5t-96 29
t-80.5 30.5z" />
    <glyph glyph-name="Identity.102" unicode="&#xa8;" horiz-adv-x="594" 
d="M197 660q-19 0 -31.5 12.5t-12.5 30.5q0 19 12.5 32t31.5 13t31.5 -13t12.5 -32q0 -18 -12.5 -30.5t-31.5 -12.5zM397 660q-19 0 -31.5 12.5t-12.5 30.5q0 19 12.5 32t31.5 13t31.5 -13t12.5 -32q0 -18 -12.5 -30.5t-31.5 -12.5z" />
    <glyph glyph-name="Identity.103" unicode="&#xa9;" horiz-adv-x="822" 
d="M411 -12q-148 0 -251.5 102.5t-103.5 266.5q0 163 103.5 264.5t251.5 101.5t251.5 -101.5t103.5 -264.5q0 -164 -103.5 -266.5t-251.5 -102.5zM411 23q130 0 221.5 94t91.5 240q0 145 -91.5 237.5t-221.5 92.5t-222 -92.5t-92 -237.5q0 -146 92 -240t222 -94zM417 138
q-83 0 -139 59.5t-56 159.5q0 93 59 150.5t141 57.5q74 0 134 -62l-28 -32q-51 48 -105 48q-66 0 -107 -45t-41 -117q0 -80 39.5 -127t105.5 -47q63 0 124 54l24 -35q-71 -64 -151 -64z" />
    <glyph glyph-name="Identity.104" unicode="&#xaa;" horiz-adv-x="375" 
d="M153 438q-49 0 -78.5 27t-29.5 74q0 58 54 89.5t172 42.5q0 97 -74 97q-62 0 -118 -41l-19 34q69 47 142 47q117 0 117 -141v-220h-38l-7 43h-4q-60 -52 -117 -52zM166 478q50 0 105 52v108q-95 -10 -136.5 -33.5t-41.5 -61.5q0 -65 73 -65z" />
    <glyph glyph-name="Identity.105" unicode="&#xab;" horiz-adv-x="450" 
d="M200 78l-152 178v47l152 177l30 -26l-135 -175l135 -177zM360 78l-152 178v47l152 177l29 -26l-134 -175l134 -177z" />
    <glyph glyph-name="Identity.106" unicode="&#xac;" horiz-adv-x="535" 
d="M446 120v222h-409v47h460v-269h-51z" />
    <glyph glyph-name="Identity.107" unicode="&#xae;" horiz-adv-x="449" 
d="M225 358q-85 0 -144 60t-59 155q0 94 59 155t144 61q84 0 143.5 -61t59.5 -155q0 -95 -59 -155t-144 -60zM225 391q70 0 118 51.5t48 130.5q0 78 -48 130.5t-118 52.5q-71 0 -119.5 -52.5t-48.5 -130.5q0 -79 48.5 -130.5t119.5 -51.5zM148 463v228h79q36 0 60 -17
t24 -55q0 -21 -12 -38.5t-31 -22.5l54 -95h-43l-43 83h-50v-83h-38zM186 577h31q54 0 54 40q0 41 -51 41h-34v-81z" />
    <glyph glyph-name="Identity.108" unicode="&#xaf;" horiz-adv-x="594" 
d="M159 670v45h277v-45h-277z" />
    <glyph glyph-name="Identity.109" unicode="&#xb0;" horiz-adv-x="349" 
d="M175 491q-53 0 -91 37t-38 96q0 60 38 97t91 37t91 -37t38 -97q0 -59 -38 -96t-91 -37zM175 529q38 0 62.5 27t24.5 68t-24.5 68.5t-62.5 27.5q-39 0 -63.5 -27t-24.5 -69q0 -41 24.5 -68t63.5 -27z" />
    <glyph glyph-name="Identity.110" unicode="&#xb1;" 
d="M868 512v-49h-343v-288h-50v288h-343v49h343v288h50v-288h343zM132 73h738v-50h-738v50z" />
    <glyph glyph-name="Identity.111" unicode="&#xb2;" horiz-adv-x="402" 
d="M62 447v30q120 111 165.5 166.5t45.5 105.5q0 46 -25 73.5t-68 27.5q-53 0 -99 -68l-31 28q23 36 59.5 59t76.5 23q62 0 99 -35t37 -102q0 -26 -10 -53t-21.5 -46.5t-41.5 -53.5t-47 -51l-61 -61h206v-43h-285z" />
    <glyph glyph-name="Identity.112" unicode="&#xb3;" horiz-adv-x="402" 
d="M197 434q-49 0 -89 23t-65 59l36 27q44 -69 118 -69q41 0 69 24t28 65q0 42 -39 64t-109 22v35q60 0 95.5 25.5t35.5 63.5q0 35 -24.5 57t-64.5 22q-50 0 -96 -58l-31 28q56 70 132 70q57 0 95 -31t38 -83q0 -76 -81 -109q41 -9 69.5 -37t28.5 -71q0 -58 -41.5 -92.5
t-104.5 -34.5z" />
    <glyph glyph-name="Identity.113" unicode="&#xb4;" horiz-adv-x="594" 
d="M269 635l-32 30l151 176l43 -38z" />
    <glyph glyph-name="Identity.114" unicode="&#xb5;" horiz-adv-x="606" 
d="M100 -199v732h58v-334q0 -160 113 -160q47 0 85.5 23.5t79.5 95.5v375h58q0 -54 -2 -212.5t-2 -242.5q0 -41 35 -41q12 0 32 7l8 -46q-22 -11 -50 -11q-40 0 -57 25.5t-19 84.5h-2q-64 -109 -164 -109q-43 0 -72 13t-49 50q1 -168 7 -250h-59z" />
    <glyph glyph-name="Identity.115" unicode="&#xb6;" 
d="M497 -58v349h-10q-42 0 -83.5 14t-77.5 40t-58.5 69.5t-22.5 96.5q0 47 14 88t47 78.5t97 59.5t153 22q87 0 122 -8v-809h-47v771h-87v-771h-47z" />
    <glyph glyph-name="Identity.116" unicode="&#xb7;" horiz-adv-x="542" 
d="M265 304q-20 0 -35.5 15.5t-15.5 38.5q0 25 15 40t36 15t36.5 -15t15.5 -40q0 -23 -15.5 -38.5t-36.5 -15.5z" />
    <glyph glyph-name="Identity.117" unicode="&#xb8;" horiz-adv-x="594" 
d="M218 -245l-7 37q69 4 96.5 17.5t27.5 39.5q0 23 -20 36t-67 20l46 97h44l-33 -74q39 -10 59 -27.5t20 -48.5q0 -86 -166 -97z" />
    <glyph glyph-name="Identity.118" unicode="&#xb9;" horiz-adv-x="402" 
d="M194 447v355h-92v33q58 12 99 44h42v-432h-49z" />
    <glyph glyph-name="Identity.119" unicode="&#xba;" horiz-adv-x="400" 
d="M199 438q-70 0 -117 50t-47 135q0 86 47 135.5t117 49.5t116.5 -49.5t46.5 -135.5q0 -85 -46.5 -135t-116.5 -50zM199 479q51 0 82.5 40t31.5 104q0 65 -31 105t-83 40t-83 -40t-31 -105q0 -64 31.5 -104t82.5 -40z" />
    <glyph glyph-name="Identity.120" unicode="&#xbb;" horiz-adv-x="450" 
d="M89 78l-30 24l135 177l-135 175l30 26l152 -177v-47zM250 78l-30 24l134 177l-134 175l30 26l152 -177v-47z" />
    <glyph glyph-name="Identity.121" unicode="&#xbc;" horiz-adv-x="851" 
d="M219 297h-49v355h-92v34q60 13 99 43h42v-432zM603 742h47l-406 -755h-47zM556 162h138v93l5 116h-5l-60 -91zM804 162v-38h-64v-124h-46v124h-195v25l193 283h48v-270h64z" />
    <glyph glyph-name="Identity.122" unicode="&#xbd;" horiz-adv-x="876" 
d="M170 297v355h-92v34q60 13 99 43h42v-432h-49zM172 -13l406 755h47l-406 -755h-47zM536 0v30q121 112 166 167t45 105q0 46 -25 73.5t-68 27.5q-55 0 -98 -67l-32 28q23 35 59.5 58t76.5 23q62 0 99 -35t37 -102q0 -40 -24.5 -84t-52.5 -74.5t-91 -93.5l-13 -13h206v-43
h-285z" />
    <glyph glyph-name="Identity.123" unicode="&#xbe;" horiz-adv-x="870" 
d="M92 645l-32 28q55 69 133 69q57 0 95 -31t38 -83q0 -74 -82 -108q42 -9 70.5 -37.5t28.5 -71.5q0 -58 -41.5 -92.5t-104.5 -34.5q-49 0 -89.5 23.5t-65.5 59.5l36 27q46 -70 118 -70q41 0 69 24t28 65q0 42 -39 64.5t-109 22.5v34q61 0 96.5 25.5t35.5 63.5q0 35 -25 57
t-65 22q-50 0 -95 -57zM653 742h46l-406 -755h-46zM576 162h138v93l5 116h-5l-60 -91zM824 162v-38h-65v-124h-45v124h-195v25l192 283h48v-270h65z" />
    <glyph glyph-name="Identity.124" unicode="&#xbf;" horiz-adv-x="451" 
d="M230 -222q-80 0 -127.5 48t-47.5 123q0 41 19 80.5t45 71.5t51 65.5t40 75.5t9 88h53q7 -50 -7 -95t-38.5 -78.5t-50 -65t-44 -67t-18.5 -71.5q0 -54 31 -89.5t90 -35.5q81 0 140 69l35 -32q-78 -87 -180 -87zM242 437q-21 0 -36 15.5t-15 40.5q0 24 15 39t36 15t36 -15
t15 -39q0 -25 -15 -40.5t-36 -15.5z" />
    <glyph glyph-name="Identity.125" unicode="&#xc5;" horiz-adv-x="587" 
d="M293 936q-26 0 -44.5 -18t-18.5 -47q0 -31 18 -48t45 -17q26 0 43.5 17t17.5 48q0 29 -18 47t-43 18zM293 775q-43 0 -71 26.5t-28 69.5q0 44 28 70t71 26q42 0 70.5 -26.5t28.5 -69.5t-28.5 -69.5t-70.5 -26.5zM167 293h252l-44 132q-38 107 -80 250h-4
q-31 -110 -79 -250zM516 0l-81 245h-284l-83 -245h-60l255 729h62l255 -729h-64z" />
    <glyph glyph-name="Identity.126" unicode="&#xd7;" 
d="M818 90l-35 -34l-283 283l-283 -283l-35 34l284 284l-284 282l36 35l282 -283l283 283l35 -34l-283 -283z" />
    <glyph glyph-name="Identity.127" unicode="&#xf7;" 
d="M436 630q0 26 19 45t45 19t45 -19t19 -45t-19 -45t-45 -19t-45 19t-19 45zM132 398h736v-49h-736v49zM436 117q0 26 19 45t45 19t45 -19t19 -45t-19 -45t-45 -19t-45 19t-19 45z" />
    <glyph glyph-name="Identity.128" unicode="&#x391;" horiz-adv-x="587" 
d="M167 293h252l-44 132q-38 107 -80 250h-4q-31 -110 -79 -250zM516 0l-81 245h-284l-83 -245h-60l255 729h62l255 -729h-64z" />
    <glyph glyph-name="Identity.129" unicode="&#x392;" horiz-adv-x="642" 
d="M106 0v729h201q114 0 178.5 -44t64.5 -133q0 -57 -29 -100t-83 -59v-5q73 -12 114.5 -57t41.5 -118q0 -103 -73 -158t-199 -55h-216zM166 411h122q202 0 202 134q0 72 -48 103.5t-148 31.5h-128v-269zM166 50h142q227 0 227 163q0 150 -227 150h-142v-313z" />
    <glyph glyph-name="Identity.130" unicode="&#x393;" horiz-adv-x="540" 
d="M106 0v729h402v-51h-342v-678h-60z" />
    <glyph glyph-name="Identity.131" unicode="&#x394;" horiz-adv-x="625" 
d="M31 0v35l249 694h65l249 -694v-35h-563zM96 52h431l-131 372l-81 242h-5l-83 -242z" />
    <glyph glyph-name="Identity.132" unicode="&#x395;" horiz-adv-x="573" 
d="M106 0v729h403v-51h-343v-266h289v-51h-289v-309h354v-52h-414z" />
    <glyph glyph-name="Identity.133" unicode="&#x396;" horiz-adv-x="597" 
d="M54 0v35l412 643h-375v51h449v-35l-411 -642h416v-52h-491z" />
    <glyph glyph-name="Identity.134" unicode="&#x397;" horiz-adv-x="710" 
d="M106 0v729h60v-316h379v316h59v-729h-59v361h-379v-361h-60z" />
    <glyph glyph-name="Identity.135" unicode="&#x398;" horiz-adv-x="726" 
d="M231 361v52h264v-52h-264zM362 -13q-134 0 -218 104t-84 276q0 171 84 273t218 102q135 0 219 -102t84 -273q0 -172 -84 -276t-219 -104zM362 41q109 0 175 89t66 237t-66 234.5t-175 86.5t-174 -86.5t-65 -234.5t65.5 -237t173.5 -89z" />
    <glyph glyph-name="Identity.136" unicode="&#x399;" horiz-adv-x="272" 
d="M106 0v729h60v-729h-60z" />
    <glyph glyph-name="Identity.137" unicode="&#x39a;" horiz-adv-x="623" 
d="M106 0v729h60v-396h2l342 396h71l-232 -271l265 -458h-69l-236 411l-143 -165v-246h-60z" />
    <glyph glyph-name="Identity.138" unicode="&#x39b;" horiz-adv-x="550" 
d="M4 0l236 729h67l239 -729h-64l-131 419q-58 191 -76 244h-4q-33 -99 -75 -244l-131 -419h-61z" />
    <glyph glyph-name="Identity.139" unicode="&#x39c;" horiz-adv-x="787" 
d="M106 0v729h80l150 -419l57 -160h4q11 31 30.5 90t23.5 70l150 419h80v-729h-57v462q0 59 7 201h-4l-57 -163l-153 -422h-48l-154 422l-57 163h-4q7 -142 7 -201v-462h-55z" />
    <glyph glyph-name="Identity.140" unicode="&#x39d;" horiz-adv-x="707" 
d="M106 0v729h62l298 -501l81 -147h5q-8 144 -8 216v432h57v-729h-62l-297 502l-82 146h-5q8 -187 8 -211v-437h-57z" />
    <glyph glyph-name="Identity.141" unicode="&#x39e;" horiz-adv-x="571" 
d="M53 0v52h466v-52h-466zM139 361v51h294v-51h-294zM64 678v51h444v-51h-444z" />
    <glyph glyph-name="Identity.142" unicode="&#x39f;" horiz-adv-x="726" 
d="M362 -13q-134 0 -218 104t-84 276q0 171 84 273t218 102q135 0 219 -102t84 -273q0 -172 -84 -276t-219 -104zM362 41q109 0 175 89t66 237t-66 234.5t-175 86.5t-174 -86.5t-65 -234.5t65.5 -237t173.5 -89z" />
    <glyph glyph-name="Identity.143" unicode="&#x3a0;" horiz-adv-x="705" 
d="M106 0v729h493v-729h-60v678h-373v-678h-60z" />
    <glyph glyph-name="Identity.144" unicode="&#x3a1;" horiz-adv-x="612" 
d="M106 0v729h189q130 0 198 -48t68 -157q0 -107 -69 -161.5t-193 -54.5h-133v-308h-60zM166 358h121q109 0 161 39.5t52 126.5q0 86 -52 120.5t-165 34.5h-117v-321z" />
    <glyph glyph-name="Identity.145" unicode="&#x3a3;" horiz-adv-x="590" 
d="M51 0v35l263 336l-257 323v35h457v-51h-380l242 -306l-247 -320h419v-52h-497z" />
    <glyph glyph-name="Identity.146" unicode="&#x3a4;" horiz-adv-x="584" 
d="M261 0v678h-229v51h520v-51h-230v-678h-61z" />
    <glyph glyph-name="Identity.147" unicode="&#x3a5;" horiz-adv-x="502" 
d="M221 0v293l-219 436h64l107 -223q11 -23 36 -76t40 -82h4q58 112 78 158l107 223h62l-219 -436v-293h-60z" />
    <glyph glyph-name="Identity.148" unicode="&#x3a6;" horiz-adv-x="776" 
d="M415 598v-466q114 3 180.5 67t66.5 168q0 103 -66.5 165.5t-180.5 65.5zM361 132v466q-114 -3 -181 -65.5t-67 -165.5t67.5 -167.5t180.5 -67.5zM415 754v-108q141 -4 224.5 -78.5t83.5 -200.5q0 -127 -83.5 -203.5t-224.5 -80.5v-107h-54v107q-140 4 -224 80.5
t-84 203.5t83.5 201.5t224.5 77.5v108h54z" />
    <glyph glyph-name="Identity.149" unicode="&#x3a7;" horiz-adv-x="541" 
d="M19 0l217 377l-203 352h66l115 -208q10 -17 28.5 -49t30.5 -52h4q10 17 27 50t27 51l115 208h62l-203 -355l218 -374h-65l-123 218q-45 79 -67 116h-4q-51 -98 -61 -116l-122 -218h-62z" />
    <glyph glyph-name="Identity.150" unicode="&#x3a8;" horiz-adv-x="747" 
d="M612 729h59v-179q0 -259 -269 -265v-285h-58v285q-130 3 -199.5 68.5t-69.5 196.5v179h60v-177q0 -212 209 -218v395h58v-395q210 5 210 218v177z" />
    <glyph glyph-name="Identity.151" unicode="&#x3a9;" horiz-adv-x="735" 
d="M51 0v51h155v4q-141 137 -141 331q0 156 83 256t220 100q136 0 219 -100t83 -256q0 -196 -141 -331v-4h156v-51h-242v44q165 120 165 341q0 132 -64.5 217.5t-175.5 85.5t-176 -85.5t-65 -217.5q0 -221 165 -341v-44h-241z" />
    <glyph glyph-name="Identity.152" unicode="&#x3b1;" horiz-adv-x="602" 
d="M257 -13q-91 0 -146 69t-55 198q0 134 68 213.5t165 79.5q57 0 104.5 -38t67.5 -118h2l26 142h58q-66 -326 -66 -438q0 -26 15.5 -42t37.5 -16q16 0 38 8l10 -46q-26 -12 -57 -12q-46 0 -71.5 30.5t-18.5 86.5h-4q-64 -117 -174 -117zM267 38q60 0 110.5 56t57.5 132
l8 105q-39 165 -151 165q-72 0 -123.5 -65t-51.5 -177q0 -100 39.5 -158t110.5 -58z" />
    <glyph glyph-name="Identity.153" unicode="&#x3b2;" horiz-adv-x="608" 
d="M96 -199v756q0 114 52 182.5t153 68.5q78 0 132 -49t54 -138q0 -122 -115 -192v-5q87 -10 135.5 -67t48.5 -146q0 -100 -61 -162t-147 -62q-122 0 -197 86q3 -140 3 -272h-58zM339 38q67 0 111.5 48t44.5 127q0 78 -44 125t-129 47q-32 0 -61 -7l-10 48q89 20 133 74
t44 118q0 67 -36 104t-89 37q-70 0 -110 -55.5t-40 -160.5q-1 -138 -1 -414q72 -91 187 -91z" />
    <glyph glyph-name="Identity.154" unicode="&#x3b3;" horiz-adv-x="510" 
d="M224 -199q3 51 3 126q0 141 -67 318.5t-150 283.5l58 18q59 -81 115 -215.5t76 -259.5h5q70 134 112.5 244t51.5 217h59q-20 -133 -68 -251t-146 -281q10 -89 10 -200h-59z" />
    <glyph glyph-name="Identity.155" unicode="&#x3b4;" horiz-adv-x="580" 
d="M297 37q83 0 125 55.5t42 146.5q0 69 -34 119t-97 100q-100 -22 -155.5 -82t-55.5 -145q0 -86 52 -140t123 -54zM516 764l-16 -50q-127 46 -212 46q-53 0 -79.5 -19.5t-26.5 -48.5q0 -11 2.5 -21.5t8.5 -21t11.5 -19t17 -19.5t19 -18t23.5 -19t25 -18.5t28.5 -20.5
t28.5 -21q40 -30 66.5 -53t54.5 -57t42 -74.5t14 -88.5q0 -116 -60 -185t-167 -69q-92 0 -162 66.5t-70 174.5q0 98 62.5 166.5t163.5 95.5q-81 56 -123.5 101.5t-42.5 101.5q0 49 42 82t124 33q95 0 226 -44z" />
    <glyph glyph-name="Identity.156" unicode="&#x3b5;" horiz-adv-x="485" 
d="M270 -13q-97 0 -155.5 43.5t-58.5 114.5q0 55 32.5 88.5t81.5 46.5v5q-41 16 -63.5 48.5t-22.5 73.5q0 67 54.5 103.5t136.5 36.5q88 0 168 -60l-26 -41q-70 51 -141 51q-58 0 -95.5 -24.5t-37.5 -71.5q0 -45 35.5 -71.5t108.5 -26.5q36 0 63 2v-51q-46 3 -79 3
q-76 0 -115.5 -28t-39.5 -80q0 -53 43 -83t118 -30q85 0 158 61l28 -42q-48 -37 -91.5 -52.5t-101.5 -15.5z" />
    <glyph glyph-name="Identity.157" unicode="&#x3b6;" horiz-adv-x="448" 
d="M384 -202l-48 24q33 39 43.5 58t10.5 41q0 26 -25.5 40t-105.5 30q-95 19 -148.5 75.5t-53.5 177.5q0 125 101 273t212 232q-207 0 -280 -4v50h347v-50h-4q-113 -84 -214 -232.5t-101 -266.5q0 -101 45.5 -146.5t129.5 -60.5q82 -16 117 -38t35 -70q0 -52 -61 -133z" />
    <glyph glyph-name="Identity.158" unicode="&#x3b7;" horiz-adv-x="588" 
d="M439 -199q4 236 4 532q0 84 -23.5 123t-75.5 39t-92.5 -30t-93.5 -109v-356h-58v395q0 84 -6 138h54l7 -120h2q44 71 91.5 102.5t108.5 31.5q73 0 106.5 -51t33.5 -155v-540h-58z" />
    <glyph glyph-name="Identity.159" unicode="&#x3b8;" horiz-adv-x="564" 
d="M434 380h-304q4 -343 152 -343t152 343zM130 425h304q-3 164 -44 248.5t-108 84.5t-108 -84.5t-44 -248.5zM282 808q100 0 155.5 -106t55.5 -302q0 -413 -211 -413t-211 413q0 196 55.5 302t155.5 106z" />
    <glyph glyph-name="Identity.160" unicode="&#x3b9;" horiz-adv-x="270" 
d="M178 -13q-78 0 -78 98v448h59q-5 -385 -5 -455q0 -41 34 -41q14 0 32 7l9 -46q-22 -11 -51 -11z" />
    <glyph glyph-name="Identity.161" unicode="&#x3ba;" horiz-adv-x="521" 
d="M523 0l-63 -8q-108 122 -199 296q-30 -38 -67 -95q-36 -53 -40 -167v-26h-54v395q0 95 -10 138h58q10 -37 10 -121v-198h4q68 122 157 215t169 118l6 -56q-95 -36 -198 -159q41 -82 103 -173.5t124 -158.5z" />
    <glyph glyph-name="Identity.162" unicode="&#x3bb;" horiz-adv-x="519" 
d="M80 -8l-61 8l233 550l-8 26q-31 95 -62 138t-79 43q-34 0 -65 -18l-17 51q38 18 88 18q69 0 110.5 -55t81.5 -179l208 -574h-61l-167 481h-5z" />
    <glyph glyph-name="Identity.163" unicode="&#x3bc;" horiz-adv-x="606" 
d="M100 -199v732h58v-334q0 -160 113 -160q47 0 85.5 23.5t79.5 95.5v375h58q0 -54 -2 -212.5t-2 -242.5q0 -41 35 -41q12 0 32 7l8 -46q-22 -11 -50 -11q-40 0 -57 25.5t-19 84.5h-2q-64 -109 -164 -109q-43 0 -72 13t-49 50q1 -168 7 -250h-59z" />
    <glyph glyph-name="Identity.164" unicode="&#x3bd;" horiz-adv-x="499" 
d="M219 0q-72 326 -209 529l58 18q59 -90 110.5 -226t78.5 -261h5q137 281 155 473h59q-35 -248 -196 -533h-61z" />
    <glyph glyph-name="Identity.165" unicode="&#x3be;" horiz-adv-x="458" 
d="M393 -202l-48 24q34 40 44.5 58.5t10.5 40.5q0 26 -26.5 40.5t-104.5 29.5q-99 19 -155.5 67.5t-56.5 147.5q0 80 50 140.5t122 80.5v4q-53 22 -85.5 64.5t-32.5 101.5q0 107 94 152q-98 0 -167 -4v50h409v-50h-125q-61 0 -105.5 -40t-44.5 -109q0 -64 50.5 -108
t105.5 -44q34 0 68 6v-55q-26 5 -72 5q-81 0 -143.5 -51t-62.5 -138q0 -82 49.5 -119.5t136.5 -52.5q82 -15 116 -37.5t34 -70.5q0 -54 -61 -133z" />
    <glyph glyph-name="Identity.166" unicode="&#x3bf;" horiz-adv-x="583" 
d="M292 -13q-103 0 -169.5 74.5t-66.5 204.5q0 131 66.5 206t169.5 75q102 0 168.5 -75t66.5 -206q0 -130 -66.5 -204.5t-168.5 -74.5zM292 37q81 0 127.5 62t46.5 167q0 104 -47 167t-127 63q-81 0 -128 -63t-47 -167q0 -105 47 -167t128 -62z" />
    <glyph glyph-name="Identity.167" unicode="&#x3c0;" horiz-adv-x="624" 
d="M519 -13q-51 0 -74 27t-23 84q0 37 3 185.5t4 198.5h-221q0 -159 -32 -485l-60 3q38 254 38 482h-127v46l75 5h494v-51h-111q-8 -153 -8 -390q0 -55 51 -55q11 0 44 6l9 -46q-34 -10 -62 -10z" />
    <glyph glyph-name="Identity.168" unicode="&#x3c1;" horiz-adv-x="598" 
d="M95 -199v480q0 126 64.5 196t161.5 70q107 0 164 -72.5t57 -199.5q0 -131 -65 -209.5t-154 -78.5q-101 0 -173 83q3 -139 4 -269h-59zM318 38q70 0 117 66t47 171q0 101 -40 161t-123 60q-71 0 -119.5 -57.5t-48.5 -167.5v-148q71 -85 167 -85z" />
    <glyph glyph-name="Identity.169" unicode="&#x3c3;" horiz-adv-x="591" 
d="M289 -13q-98 0 -165.5 73.5t-67.5 200.5q0 133 68 202.5t168 69.5h286v-52q-108 7 -177 7v-4q115 -64 115 -228q0 -125 -65 -197t-162 -72zM289 37q74 0 121.5 61t47.5 161q0 93 -45 158.5t-122 65.5t-125.5 -57.5t-48.5 -164.5q0 -101 49 -162.5t123 -61.5z" />
    <glyph glyph-name="Identity.170" unicode="&#x3c4;" horiz-adv-x="493" 
d="M308 -13q-49 0 -70 26.5t-21 84.5v386h-188v44l74 5h361v-49h-189q-3 -134 -3 -392q0 -55 46 -55q22 0 49 9l10 -47q-32 -12 -69 -12z" />
    <glyph glyph-name="Identity.171" unicode="&#x3c5;" horiz-adv-x="553" 
d="M270 -13q-89 0 -140 50t-51 154q0 34 2 102t2 102q0 84 -8 138h57q8 -43 8 -121q0 -34 -3.5 -113t-3.5 -110q0 -80 39 -116t100 -36q69 0 112 56.5t43 166.5q0 147 -48 271l57 16q51 -140 51 -287q0 -130 -61 -201.5t-156 -71.5z" />
    <glyph glyph-name="Identity.172" unicode="&#x3c6;" horiz-adv-x="724" 
d="M390 497v-461q91 3 154.5 66.5t63.5 165.5q0 103 -61 165t-157 64zM334 36v461q-91 -2 -154 -65t-63 -164q0 -102 63 -165.5t154 -66.5zM390 687v-143q117 -2 197.5 -76t80.5 -200t-82 -200.5t-196 -78.5v-188h-56v188q-114 4 -196 79t-82 200q0 124 82 198.5t196 77.5
v143h56z" />
    <glyph glyph-name="Identity.173" unicode="&#x3c7;" horiz-adv-x="509" 
d="M68 -212l-57 13l216 379l-211 349l58 18l180 -313h4l157 299h63l-192 -352l228 -375l-56 -18l-200 342h-4z" />
    <glyph glyph-name="Identity.174" unicode="&#x3c8;" horiz-adv-x="731" 
d="M556 531l57 16q51 -138 51 -260q0 -140 -72.5 -218t-200.5 -82v-186h-56v186q-124 1 -188.5 67.5t-64.5 184.5v156q0 75 -7 138h58q5 -38 5 -121q0 -37 -1 -100t-1 -75q0 -93 51 -146t148 -54v650h56v-650q102 3 157.5 66.5t55.5 183.5q0 119 -48 244z" />
    <glyph glyph-name="Identity.175" unicode="&#x3c9;" horiz-adv-x="753" 
d="M236 -13q-76 0 -125 65.5t-49 189.5q0 153 106 305l51 -28q-52 -71 -76 -135.5t-24 -151.5q0 -92 34 -143.5t86 -51.5q47 0 78 35t31 114q0 80 -7 144h68q-6 -66 -6 -144q0 -79 31 -114t78 -35q54 0 86.5 51.5t32.5 153.5q0 86 -21.5 146t-72.5 133l52 26q51 -73 76 -142
t25 -161q0 -128 -46.5 -192.5t-125.5 -64.5q-46 0 -83.5 24t-56.5 71h-4q-18 -47 -55 -71t-83 -24z" />
    <glyph glyph-name="Identity.176" unicode="&#x401;" horiz-adv-x="573" 
d="M106 0v729h403v-51h-343v-266h289v-51h-289v-309h354v-52h-414zM204 801q-19 0 -31.5 12t-12.5 31t12.5 31t31.5 12q18 0 30.5 -12t12.5 -31t-12.5 -31t-30.5 -12zM423 801q-19 0 -31.5 12t-12.5 31t12.5 31t31.5 12t31 -12t12 -31t-12 -31t-31 -12z" />
    <glyph glyph-name="Identity.177" unicode="&#x410;" horiz-adv-x="587" 
d="M167 293h252l-44 132q-38 107 -80 250h-4q-31 -110 -79 -250zM516 0l-81 245h-284l-83 -245h-60l255 729h62l255 -729h-64z" />
    <glyph glyph-name="Identity.178" unicode="&#x411;" horiz-adv-x="632" 
d="M106 0v729h429v-51h-369v-266h157q123 0 192 -48t69 -148q0 -107 -66.5 -161.5t-190.5 -54.5h-221zM166 50h147q107 0 159.5 39.5t52.5 124.5q0 78 -54 114t-162 36h-143v-314z" />
    <glyph glyph-name="Identity.179" unicode="&#x412;" horiz-adv-x="642" 
d="M106 0v729h201q114 0 178.5 -44t64.5 -133q0 -57 -29 -100t-83 -59v-5q73 -12 114.5 -57t41.5 -118q0 -103 -73 -158t-199 -55h-216zM166 411h122q202 0 202 134q0 72 -48 103.5t-148 31.5h-128v-269zM166 50h142q227 0 227 163q0 150 -227 150h-142v-313z" />
    <glyph glyph-name="Identity.180" unicode="&#x413;" horiz-adv-x="540" 
d="M106 0v729h402v-51h-342v-678h-60z" />
    <glyph glyph-name="Identity.181" unicode="&#x414;" horiz-adv-x="690" 
d="M518 678h-233q-12 -68 -30 -184.5t-31 -187.5q-37 -197 -83 -254h377v626zM578 52h78v-35l-9 -225h-51v208h-502v-208h-51l-8 225v35h34q54 23 100 266q38 212 68 411h341v-677z" />
    <glyph glyph-name="Identity.182" unicode="&#x415;" horiz-adv-x="573" 
d="M106 0v729h403v-51h-343v-266h289v-51h-289v-309h354v-52h-414z" />
    <glyph glyph-name="Identity.183" unicode="&#x416;" horiz-adv-x="859" 
d="M623 392l227 -392h-67l-206 362h-119v-362h-57v362h-118l-206 -362h-68l228 391l-85 188q-30 64 -52 84t-49 20q-11 0 -24 -5l-10 59q13 5 31 5q47 0 80 -27.5t71 -109.5l88 -193h114v317h57v-317h114l89 193q38 82 71 109.5t80 27.5q18 0 31 -5l-11 -59q-12 5 -23 5
q-27 0 -49 -20t-52 -84z" />
    <glyph glyph-name="Identity.184" unicode="&#x417;" horiz-adv-x="609" 
d="M309 -13q-156 0 -258 108l36 42q51 -53 101.5 -74.5t120.5 -21.5q81 0 136.5 43.5t55.5 119.5q0 79 -59 119t-167 40h-75v48h53q108 0 158.5 36t50.5 108q0 63 -45 98t-116 35q-108 0 -181 -73l-33 40q36 39 93 63t122 24q96 0 157.5 -49t61.5 -133q0 -61 -30.5 -105.5
t-85.5 -61.5v-5q70 -12 113 -60t43 -124q0 -99 -72.5 -158t-179.5 -59z" />
    <glyph glyph-name="Identity.185" unicode="&#x418;" horiz-adv-x="717" 
d="M106 0v729h59v-432q0 -48 -7 -216h4l82 144l303 504h64v-729h-60v437q0 71 8 211h-5l-82 -144l-303 -504h-63z" />
    <glyph glyph-name="Identity.186" unicode="&#x419;" horiz-adv-x="717" 
d="M106 0v729h59v-432q0 -48 -7 -216h4l82 144l303 504h64v-729h-60v437q0 71 8 211h-5l-82 -144l-303 -504h-63zM362 787q-141 0 -154 142h53q3 -45 27 -74.5t74 -29.5q51 0 75 29.5t26 74.5h54q-4 -60 -40 -101t-115 -41z" />
    <glyph glyph-name="Identity.187" unicode="&#x41a;" horiz-adv-x="621" 
d="M361 391l255 -391h-67l-238 362h-145v-362h-60v729h60v-317h146l106 193q45 84 75.5 110.5t75.5 26.5q16 0 31 -5l-11 -59q-13 5 -24 5q-25 0 -45.5 -19.5t-55.5 -84.5z" />
    <glyph glyph-name="Identity.188" unicode="&#x41b;" horiz-adv-x="684" 
d="M57 -13q-29 0 -52 9l15 57q15 -7 31 -7q33 0 56.5 40t47.5 165q25 135 86 478h337v-729h-60v678h-229q-12 -67 -37.5 -211.5t-39.5 -221.5q-19 -106 -41.5 -162.5t-48 -76t-65.5 -19.5z" />
    <glyph glyph-name="Identity.189" unicode="&#x41c;" horiz-adv-x="787" 
d="M106 0v729h80l150 -419l57 -160h4q11 31 30.5 90t23.5 70l150 419h80v-729h-57v462q0 59 7 201h-4l-57 -163l-153 -422h-48l-154 422l-57 163h-4q7 -142 7 -201v-462h-55z" />
    <glyph glyph-name="Identity.190" unicode="&#x41d;" horiz-adv-x="710" 
d="M106 0v729h60v-316h379v316h59v-729h-59v361h-379v-361h-60z" />
    <glyph glyph-name="Identity.191" unicode="&#x41e;" horiz-adv-x="726" 
d="M362 -13q-134 0 -218 104t-84 276q0 171 84 273t218 102q135 0 219 -102t84 -273q0 -172 -84 -276t-219 -104zM362 41q109 0 175 89t66 237t-66 234.5t-175 86.5t-174 -86.5t-65 -234.5t65.5 -237t173.5 -89z" />
    <glyph glyph-name="Identity.192" unicode="&#x41f;" horiz-adv-x="705" 
d="M106 0v729h493v-729h-60v678h-373v-678h-60z" />
    <glyph glyph-name="Identity.193" unicode="&#x420;" horiz-adv-x="612" 
d="M106 0v729h189q130 0 198 -48t68 -157q0 -107 -69 -161.5t-193 -54.5h-133v-308h-60zM166 358h121q109 0 161 39.5t52 126.5q0 86 -52 120.5t-165 34.5h-117v-321z" />
    <glyph glyph-name="Identity.194" unicode="&#x421;" horiz-adv-x="627" 
d="M368 -13q-137 0 -222.5 102.5t-85.5 275.5t87 275t227 102q117 0 192 -88l-34 -39q-65 73 -158 73q-116 0 -183.5 -86.5t-67.5 -234.5q0 -150 67 -238t181 -88q101 0 181 88l34 -38q-90 -104 -218 -104z" />
    <glyph glyph-name="Identity.195" unicode="&#x422;" horiz-adv-x="584" 
d="M261 0v678h-229v51h520v-51h-230v-678h-61z" />
    <glyph glyph-name="Identity.196" unicode="&#x423;" horiz-adv-x="549" 
d="M139 -13q-35 0 -62 10l15 56q18 -8 42 -8q40 0 63.5 16.5t41.5 54.5l17 46l-248 567h63l159 -374l53 -130h4l49 130l147 374h63l-246 -611q-26 -65 -64 -98t-97 -33z" />
    <glyph glyph-name="Identity.197" unicode="&#x424;" horiz-adv-x="795" 
d="M424 586v-443q124 1 191 61t67 163q0 102 -66.5 160t-191.5 59zM370 143v443q-125 -1 -191.5 -59t-66.5 -160q0 -103 67 -163t191 -61zM424 742v-107q151 -2 234.5 -72t83.5 -196t-83.5 -198t-234.5 -74v-108h-54v108q-151 2 -234 73.5t-83 198.5q0 126 83 196t234 72
v107h54z" />
    <glyph glyph-name="Identity.198" unicode="&#x425;" horiz-adv-x="541" 
d="M19 0l217 377l-203 352h66l115 -208q10 -17 28.5 -49t30.5 -52h4q10 17 27 50t27 51l115 208h62l-203 -355l218 -374h-65l-123 218q-45 79 -67 116h-4q-51 -98 -61 -116l-122 -218h-62z" />
    <glyph glyph-name="Identity.199" unicode="&#x426;" horiz-adv-x="697" 
d="M585 52h77v-35l-7 -225h-52v208h-497v729h60v-677h358v677h61v-677z" />
    <glyph glyph-name="Identity.200" unicode="&#x427;" horiz-adv-x="646" 
d="M480 0v341q-62 -12 -143 -12q-127 0 -193.5 52t-66.5 172v176h59v-176q0 -95 51.5 -133.5t155.5 -38.5q80 0 137 12v336h60v-729h-60z" />
    <glyph glyph-name="Identity.201" unicode="&#x428;" horiz-adv-x="935" 
d="M106 0v729h59v-677h273v677h59v-677h273v677h59v-729h-723z" />
    <glyph glyph-name="Identity.202" unicode="&#x429;" horiz-adv-x="941" 
d="M829 52h78v-35l-8 -225h-52v208h-741v729h59v-677h273v677h59v-677h273v677h59v-677z" />
    <glyph glyph-name="Identity.203" unicode="&#x42a;" horiz-adv-x="792" 
d="M275 0v678h-243v51h303v-313h139q122 0 194 -50t72 -149q0 -108 -67.5 -162.5t-191.5 -54.5h-206zM335 50h134q212 0 212 165q0 151 -220 151h-126v-316z" />
    <glyph glyph-name="Identity.204" unicode="&#x42b;" horiz-adv-x="856" 
d="M106 0v729h60v-313h131q124 0 193.5 -49t69.5 -150q0 -108 -67.5 -162.5t-191.5 -54.5h-195zM166 50h122q212 0 212 165q0 78 -53.5 114.5t-162.5 36.5h-118v-316zM690 0v729h60v-729h-60z" />
    <glyph glyph-name="Identity.205" unicode="&#x42c;" horiz-adv-x="632" 
d="M106 0v729h60v-313h152q124 0 193 -49t69 -150q0 -108 -67.5 -162.5t-191.5 -54.5h-215zM166 50h142q212 0 212 165q0 78 -53.5 114.5t-161.5 36.5h-139v-316z" />
    <glyph glyph-name="Identity.206" unicode="&#x42d;" horiz-adv-x="627" 
d="M95 615l-35 39q35 37 91.5 62.5t118.5 25.5q138 0 217.5 -98.5t79.5 -278.5q0 -178 -81 -278t-215 -100q-137 0 -231 104l35 38q83 -88 193 -88t173.5 83t65.5 237h-330v51h329q-8 132 -70 204t-168 72q-103 0 -173 -73z" />
    <glyph glyph-name="Identity.207" unicode="&#x42e;" horiz-adv-x="984" 
d="M634 41q104 0 165.5 88.5t61.5 237.5q0 148 -61.5 234.5t-165.5 86.5t-166 -86.5t-62 -234.5t62 -237t166 -89zM166 413h183q10 152 87.5 240.5t197.5 88.5q130 0 210 -102t80 -273q0 -173 -80.5 -276.5t-209.5 -103.5t-207.5 101.5t-79.5 272.5h-181v-361h-60v729h60
v-316z" />
    <glyph glyph-name="Identity.208" unicode="&#x42f;" horiz-adv-x="627" 
d="M461 379v300h-140q-97 0 -146 -34t-49 -111q0 -155 195 -155h140zM308 729h213v-729h-60v329h-158l-204 -329h-70l212 334q-81 15 -128.5 65t-47.5 135q0 195 243 195z" />
    <glyph glyph-name="Identity.209" unicode="&#x430;" horiz-adv-x="547" 
d="M218 -13q-68 0 -111.5 38t-43.5 109q0 87 80.5 133.5t259.5 67.5q4 161 -122 161q-87 0 -168 -61l-26 42q103 70 202 70q90 0 131 -56.5t41 -152.5v-338h-49l-6 68h-2q-99 -81 -186 -81zM230 36q78 0 173 83v173q-153 -18 -217.5 -55t-64.5 -100q0 -52 30.5 -76.5
t78.5 -24.5z" />
    <glyph glyph-name="Identity.210" unicode="&#x431;" horiz-adv-x="594" 
d="M310 37q71 0 118.5 64.5t47.5 164.5q0 91 -44 147t-124 56q-101 0 -186 -110q-1 -15 -1 -48q0 -130 48 -202t141 -72zM500 809l13 -56q-33 -21 -103 -32q-37 -6 -57 -9.5t-49 -11t-44.5 -14.5t-36.5 -19.5t-32 -27.5t-24.5 -36t-20.5 -48t-13 -61.5t-9 -77.5
q82 102 195 102q99 0 158.5 -69t59.5 -183q0 -125 -66 -202t-161 -77q-117 0 -181.5 86t-64.5 245q0 81 8 144t21.5 108.5t37.5 79t48.5 54.5t62.5 36t72 23t84 16q61 10 102 30z" />
    <glyph glyph-name="Identity.211" unicode="&#x432;" horiz-adv-x="552" 
d="M100 0v533h195q188 0 188 -132q0 -88 -89 -116v-4q49 -11 80.5 -42.5t31.5 -86.5q0 -76 -54.5 -114t-150.5 -38h-201zM158 303h118q147 0 147 93q0 92 -138 92h-127v-185zM158 46h133q156 0 156 109q0 48 -42 75t-122 27h-125v-211z" />
    <glyph glyph-name="Identity.212" unicode="&#x433;" horiz-adv-x="444" 
d="M100 0v533h316v-49h-258v-484h-58z" />
    <glyph glyph-name="Identity.213" unicode="&#x434;" horiz-adv-x="563" 
d="M205 484l-24 -207q-18 -167 -64 -227h284v434h-196zM460 50h73v-35l-6 -205h-50v190h-394v-190h-51l-6 205v35h22q27 14 46 62t35 174l30 247h301v-483z" />
    <glyph glyph-name="Identity.214" unicode="&#x435;" horiz-adv-x="538" 
d="M304 -13q-106 0 -177 75.5t-71 203.5q0 125 69.5 203t164.5 78q97 0 151.5 -65.5t54.5 -182.5q0 -23 -3 -42h-378q2 -98 55.5 -159.5t139.5 -61.5q76 0 142 46l22 -43q-83 -52 -170 -52zM115 303h328q0 95 -40.5 144.5t-111.5 49.5q-68 0 -118 -52.5t-58 -141.5z" />
    <glyph glyph-name="Identity.215" unicode="&#x436;" horiz-adv-x="714" 
d="M528 284l168 -284h-65l-143 254h-105v-254h-53v254h-104l-145 -254h-63l166 283l-48 123q-20 49 -38.5 65.5t-42.5 16.5q-9 0 -16 -2l-13 56q18 5 27 5q39 0 69.5 -25.5t57.5 -89.5l52 -129h98v230h53v-230h98l53 129q26 64 56.5 89.5t69.5 25.5q12 0 27 -5l-12 -56
q-7 2 -17 2q-24 0 -43 -16.5t-38 -65.5z" />
    <glyph glyph-name="Identity.216" unicode="&#x437;" horiz-adv-x="495" 
d="M245 -13q-119 0 -200 69l28 40q69 -60 168 -60q63 0 105.5 31t42.5 82q0 53 -42 80.5t-119 27.5h-69v46h55q74 0 113 26t39 73t-34.5 71t-90.5 24q-83 0 -153 -51l-28 39q81 62 183 62q78 0 129.5 -36.5t51.5 -103.5q0 -41 -24 -72.5t-66 -49.5v-5q51 -12 83 -46t32 -89
q0 -70 -59 -114t-145 -44z" />
    <glyph glyph-name="Identity.217" unicode="&#x438;" horiz-adv-x="616" 
d="M100 0v533h57v-257q0 -34 -7 -200h5q10 17 37 58.5t38 57.5l231 341h55v-533h-57v256q0 35 7 201h-5q-15 -24 -75 -115l-231 -342h-55z" />
    <glyph glyph-name="Identity.218" unicode="&#x439;" horiz-adv-x="616" 
d="M100 0v533h57v-257q0 -34 -7 -200h5q10 17 37 58.5t38 57.5l231 341h55v-533h-57v256q0 35 7 201h-5q-15 -24 -75 -115l-231 -342h-55zM310 635q-44 0 -76.5 14.5t-50.5 39.5t-27.5 52t-11.5 58h52q2 -55 28.5 -90t85.5 -35t85.5 35t28.5 90h52q-5 -68 -43.5 -116
t-122.5 -48z" />
    <glyph glyph-name="Identity.219" unicode="&#x43a;" horiz-adv-x="528" 
d="M329 280l181 -280h-64l-160 254h-128v-254h-58v533h58v-230h126l55 129q28 67 57 91t69 24q12 0 27 -5l-12 -56q-7 2 -17 2q-24 0 -42 -16.5t-39 -65.5z" />
    <glyph glyph-name="Identity.220" unicode="&#x43b;" horiz-adv-x="566" 
d="M55 -13q-24 0 -42 7l13 55q14 -4 23 -4q64 0 78 129q7 60 21.5 179.5t21.5 179.5h296v-533h-58v484h-192q-11 -95 -38 -323q-21 -174 -123 -174z" />
    <glyph glyph-name="Identity.221" unicode="&#x43c;" horiz-adv-x="688" 
d="M100 0v533h67l123 -281q6 -15 24.5 -62t27.5 -73h5q38 90 54 135l120 281h68v-533h-55v288q0 38 7 162h-4q-13 -33 -49 -115l-120 -283h-47l-121 283q-34 79 -48 115h-5q7 -124 7 -162v-288h-54z" />
    <glyph glyph-name="Identity.222" unicode="&#x43d;" horiz-adv-x="613" 
d="M100 0v533h58v-227h297v227h58v-533h-58v253h-297v-253h-58z" />
    <glyph glyph-name="Identity.223" unicode="&#x43e;" horiz-adv-x="594" 
d="M297 -13q-101 0 -171 75.5t-70 203.5q0 129 70 205t171 76t171 -76t70 -205q0 -128 -70 -203.5t-171 -75.5zM297 37q79 0 130 64t51 165t-51 165.5t-130 64.5q-78 0 -129 -64.5t-51 -165.5t50.5 -165t129.5 -64z" />
    <glyph glyph-name="Identity.224" unicode="&#x43f;" horiz-adv-x="602" 
d="M100 0v533h402v-533h-58v484h-286v-484h-58z" />
    <glyph glyph-name="Identity.225" unicode="&#x440;" horiz-adv-x="605" 
d="M100 -238v771h48l7 -65h2q103 79 178 79q104 0 159 -73t55 -199q0 -132 -68.5 -210t-166.5 -78q-73 0 -157 65l1 -98v-192h-58zM309 38q79 0 128.5 65.5t49.5 171.5q0 221 -163 221q-70 0 -166 -85v-308q77 -65 151 -65z" />
    <glyph glyph-name="Identity.226" unicode="&#x441;" horiz-adv-x="499" 
d="M300 -13q-107 0 -175.5 74.5t-68.5 204.5q0 129 72 205t175 76q83 0 156 -65l-33 -40q-57 54 -122 54q-80 0 -133.5 -64.5t-53.5 -165.5q0 -102 51 -165.5t135 -63.5q73 0 139 59l28 -40q-79 -69 -170 -69z" />
    <glyph glyph-name="Identity.227" unicode="&#x442;" horiz-adv-x="493" 
d="M217 0v484h-188v49h435v-49h-188v-484h-59z" />
    <glyph glyph-name="Identity.228" unicode="&#x443;" horiz-adv-x="490" 
d="M85 -240q-33 0 -57 11l13 49q22 -8 43 -8q87 0 133 135l14 45l-218 541h63l124 -326q47 -128 56 -150h5q9 27 25.5 79t22.5 71l109 326h59l-208 -595q-62 -178 -184 -178z" />
    <glyph glyph-name="Identity.229" unicode="&#x444;" horiz-adv-x="790" 
d="M366 -238v188l1 81q-53 -44 -111 -44q-92 0 -146 73.5t-54 205.5q0 126 57.5 203.5t142.5 77.5q50 0 111 -43l-1 79v212h58v-212l-2 -81q60 45 119 45q94 0 143 -73t49 -199q0 -132 -57.5 -210t-142.5 -78q-50 0 -111 43l2 -80v-188h-58zM266 38q55 0 101 45v370
q-46 43 -105 43q-62 0 -103 -65.5t-41 -164.5q0 -105 39 -166.5t109 -61.5zM528 38q65 0 105 65t40 172q0 102 -35 161.5t-108 59.5q-58 0 -108 -44v-371q49 -43 106 -43z" />
    <glyph glyph-name="Identity.230" unicode="&#x445;" horiz-adv-x="460" 
d="M15 0l180 279l-165 254h64l82 -131q25 -41 57 -88h4q6 10 53 88l79 131h61l-165 -260l180 -273h-65l-91 141q-26 48 -61 97h-5q-10 -16 -30 -48.5t-30 -48.5l-86 -141h-62z" />
    <glyph glyph-name="Identity.231" unicode="&#x446;" horiz-adv-x="593" 
d="M494 50h74v-35l-7 -205h-49v190h-412v533h58v-483h278v483h58v-483z" />
    <glyph glyph-name="Identity.232" unicode="&#x447;" horiz-adv-x="548" 
d="M391 0v227q-63 -12 -111 -12q-105 0 -157 42t-52 134v142h58v-142q0 -67 39 -96.5t123 -29.5q51 0 100 12v256h58v-533h-58z" />
    <glyph glyph-name="Identity.233" unicode="&#x448;" horiz-adv-x="803" 
d="M100 0v533h58v-483h215v483h57v-483h215v483h58v-533h-603z" />
    <glyph glyph-name="Identity.234" unicode="&#x449;" horiz-adv-x="803" 
d="M703 50h74v-35l-6 -205h-51v190h-620v533h58v-483h215v483h57v-483h215v483h58v-483z" />
    <glyph glyph-name="Identity.235" unicode="&#x44a;" horiz-adv-x="646" 
d="M231 0v484h-202v49h260v-209h104q97 0 151 -40.5t54 -120.5t-54 -121.5t-151 -41.5h-162zM289 49h94q79 0 117.5 27.5t38.5 86.5t-38 86t-118 27h-94v-227z" />
    <glyph glyph-name="Identity.236" unicode="&#x44b;" horiz-adv-x="714" 
d="M100 0v533h58v-209h92q96 0 150 -40.5t54 -120.5t-54 -121.5t-150 -41.5h-150zM158 49h81q80 0 118.5 27.5t38.5 86.5t-38.5 86t-118.5 27h-81v-227zM556 0v533h59v-533h-59z" />
    <glyph glyph-name="Identity.237" unicode="&#x44c;" horiz-adv-x="530" 
d="M100 0v533h58v-209h119q97 0 150.5 -40.5t53.5 -120.5t-54 -121.5t-150 -41.5h-177zM158 49h109q79 0 117.5 27.5t38.5 86.5t-38 86t-118 27h-109v-227z" />
    <glyph glyph-name="Identity.238" unicode="&#x44d;" horiz-adv-x="499" 
d="M71 443l-31 38q70 66 169 66q101 0 167 -72t66 -209q0 -136 -66.5 -207.5t-174.5 -71.5q-99 0 -173 69l27 38q61 -58 142 -58q86 0 136 57t52 164h-258v46h256q-8 93 -56 143.5t-121 50.5q-76 0 -135 -54z" />
    <glyph glyph-name="Identity.239" unicode="&#x44e;" horiz-adv-x="799" 
d="M516 37q74 0 120 63.5t46 165.5t-46 166t-120 64q-76 0 -123 -64t-47 -166t47 -165.5t123 -63.5zM158 302h132q10 115 72.5 180t155.5 65q97 0 160.5 -75.5t63.5 -205.5q0 -129 -63.5 -204t-160.5 -75t-161 70t-68 192h-131v-249h-58v533h58v-231z" />
    <glyph glyph-name="Identity.240" unicode="&#x44f;" horiz-adv-x="554" 
d="M396 274v211h-99q-156 0 -156 -102q0 -53 41.5 -81t114.5 -28h99zM284 533h170v-533h-58v228h-117l-168 -228h-66l174 234q-62 12 -100 49.5t-38 100.5q0 149 203 149z" />
    <glyph glyph-name="Identity.241" unicode="&#x451;" horiz-adv-x="538" 
d="M304 -13q-106 0 -177 75.5t-71 203.5q0 125 69.5 203t164.5 78q97 0 151.5 -65.5t54.5 -182.5q0 -23 -3 -42h-378q2 -98 55.5 -159.5t139.5 -61.5q76 0 142 46l22 -43q-83 -52 -170 -52zM115 303h328q0 95 -40.5 144.5t-111.5 49.5q-68 0 -118 -52.5t-58 -141.5zM190 660
q-19 0 -31.5 12.5t-12.5 30.5q0 19 12.5 32t31.5 13t31.5 -13t12.5 -32q0 -18 -12.5 -30.5t-31.5 -12.5zM391 660q-19 0 -32 12.5t-13 30.5q0 19 13 32t32 13q18 0 30.5 -13t12.5 -32q0 -18 -12.5 -30.5t-30.5 -12.5z" />
    <glyph glyph-name="Identity.242" unicode="&#x2010;" 
d="M375 399h250v-38h-250v38z" />
    <glyph glyph-name="Identity.243" unicode="&#x2015;" 
d="M71 399h858v-38h-858v38z" />
    <glyph glyph-name="Identity.244" unicode="&#x2018;" horiz-adv-x="250" 
d="M164 777l21 -29q-40 -31 -58 -61.5t-19 -75.5q3 1 10 1q19 0 32.5 -12t13.5 -33q0 -22 -12.5 -35t-33.5 -13q-26 0 -40 21t-14 59q0 113 100 178z" />
    <glyph glyph-name="Identity.245" unicode="&#x2019;" horiz-adv-x="250" 
d="M86 517l-20 29q39 31 57 62t19 75q-3 -1 -10 -1q-18 0 -32 12t-14 33q0 22 12.5 35t33.5 13q25 0 40 -21t15 -59q0 -113 -101 -178z" />
    <glyph glyph-name="Identity.246" unicode="&#x201c;" horiz-adv-x="415" 
d="M164 777l21 -29q-40 -31 -58 -61.5t-19 -75.5q3 1 10 1q19 0 32.5 -12t13.5 -33q0 -22 -12.5 -35t-33.5 -13q-26 0 -40 21t-14 59q0 113 100 178zM328 777l22 -29q-39 -31 -57 -62t-19 -75q2 1 8 1q20 0 34 -12t14 -33q0 -22 -13.5 -35t-34.5 -13q-24 0 -38.5 21
t-14.5 59q0 113 99 178z" />
    <glyph glyph-name="Identity.247" unicode="&#x201d;" horiz-adv-x="415" 
d="M86 517l-20 29q39 31 57 62t19 75q-3 -1 -10 -1q-18 0 -32 12t-14 33q0 22 12.5 35t33.5 13q25 0 40 -21t15 -59q0 -113 -101 -178zM251 517l-21 29q40 31 58 61.5t19 75.5q-3 -1 -9 -1q-19 0 -33 12t-14 33q0 22 13 35t34 13q24 0 39 -21t15 -59q0 -113 -101 -178z" />
    <glyph glyph-name="Identity.248" unicode="&#x2020;" 
d="M529 759l-6 -248l211 4v-53l-211 4l6 -522h-58l6 522l-211 -4v53l211 -4l-6 248h58z" />
    <glyph glyph-name="Identity.249" unicode="&#x2021;" 
d="M529 759l-6 -237l211 4v-53l-211 4l1 -253l210 4v-53l-211 4l6 -235h-58l6 235l-211 -4v53l211 -4v253l-211 -4v53l211 -4l-6 237h58z" />
    <glyph glyph-name="Identity.250" unicode="&#x2025;" 
d="M194 380q0 24 16 40t40 16t40 -16t16 -40t-16 -40t-40 -16t-40 16t-16 40zM694 380q0 24 16 40t40 16t40 -16t16 -40t-16 -40t-40 -16t-40 16t-16 40z" />
    <glyph glyph-name="Identity.251" unicode="&#x2026;" 
d="M111 380q0 24 16 40t40 16t40 -16t16 -40t-16 -40t-40 -16t-40 16t-16 40zM444 380q0 24 16 40t40 16t40 -16t16 -40t-16 -40t-40 -16t-40 16t-16 40zM777 380q0 24 16 40t40 16t40 -16t16 -40t-16 -40t-40 -16t-40 16t-16 40z" />
    <glyph glyph-name="Identity.252" unicode="&#x2030;" 
d="M131 -18l382 766h42l-381 -766h-43zM36 521q0 107 38 164t92 56q53 0 90 -57t37 -164q0 -108 -37 -163t-91 -55t-91.5 56.5t-37.5 162.5zM249 520q0 29 -3.5 57t-12 58.5t-27 49t-43.5 18.5q-24 0 -41.5 -18.5t-25.5 -49t-11.5 -58.5t-3.5 -56q0 -41 5.5 -78.5
t25.5 -70.5t52 -33q25 0 43 18.5t26.5 48.5t12 57.5t3.5 56.5zM393 209q0 108 37.5 164.5t91.5 55.5q54 0 91 -57t37 -164q0 -108 -37.5 -163.5t-91.5 -55.5q-53 0 -90.5 57t-37.5 163zM707 209q0 108 37.5 164.5t91.5 55.5q54 0 91 -57t37 -164q0 -108 -37.5 -163.5
t-91.5 -55.5t-91 57t-37 163zM605 208q0 29 -3.5 57t-12 58.5t-26.5 49t-43 18.5q-24 0 -41.5 -18.5t-25.5 -49t-11.5 -58.5t-3.5 -57t3.5 -57t11.5 -58t25.5 -48t42.5 -18t43 18.5t26 48.5t11.5 57.5t3.5 56.5zM919 208q0 29 -3.5 56.5t-12 58.5t-26.5 49.5t-44 18.5
q-24 0 -41.5 -19t-25.5 -49t-11.5 -58.5t-3.5 -56.5q0 -29 3 -56.5t11 -57.5t26 -48.5t44 -18.5q25 0 43 18.5t26 48.5t11.5 57.5t3.5 56.5z" />
    <glyph glyph-name="Identity.253" unicode="&#x2032;" horiz-adv-x="250" 
d="M91 530l26 237l55 -2l-11 -82l-32 -155z" />
    <glyph glyph-name="Identity.254" unicode="&#x2033;" horiz-adv-x="415" 
d="M91 530l26 237l55 -2l-11 -82l-32 -155zM256 530l25 237l57 -2l-13 -82l-31 -155z" />
    <glyph glyph-name="Identity.255" unicode="&#x203b;" 
d="M575 665q0 -31 -22 -53t-53 -22t-53 22t-22 53t22 53t53 22t53 -22t22 -53zM170 739l330 -330l330 330l29 -29l-330 -330l330 -330l-29 -29l-330 330l-331 -331l-29 29l331 331l-330 330zM215 455q31 0 53 -22t22 -53t-22 -53t-53 -22t-53 22t-22 53t22 53t53 22z
M785 305q-31 0 -53 22t-22 53t22 53t53 22t53 -22t22 -53t-22 -53t-53 -22zM425 95q0 31 22 53t53 22t53 -22t22 -53t-22 -53t-53 -22t-53 22t-22 53z" />
    <glyph glyph-name="Identity.256" unicode="&#x2103;" 
d="M189 487q-54 0 -92.5 36.5t-38.5 95.5q0 61 38.5 98t92.5 37q53 0 91 -37t38 -98q0 -59 -38 -95.5t-91 -36.5zM189 526q38 0 62.5 26.5t24.5 66.5q0 42 -24.5 68.5t-62.5 26.5q-39 0 -63 -26.5t-24 -68.5q0 -41 24 -67t63 -26zM729 -13q-138 0 -223.5 102t-85.5 274
t87 273.5t227 101.5q114 0 193 -87l-38 -41q-63 71 -154 71q-115 0 -181.5 -85.5t-66.5 -231.5t66 -232.5t178 -86.5q101 0 177 85l37 -40q-89 -103 -216 -103z" />
    <glyph glyph-name="Identity.257" unicode="&#x2190;" 
d="M960 355h-809q108 -81 180 -178l-42 -27q-50 64 -118 125.5t-136 104.5q68 43 136 104.5t118 125.5l42 -27q-72 -97 -180 -178h809v-50z" />
    <glyph glyph-name="Identity.258" unicode="&#x2191;" 
d="M475 -80v809q-81 -108 -178 -180l-27 42q64 50 125.5 118t104.5 136q43 -68 104.5 -136t125.5 -118l-27 -42q-97 72 -178 180v-809h-50z" />
    <glyph glyph-name="Identity.259" unicode="&#x2192;" 
d="M40 355v50h809q-108 81 -180 178l42 27q50 -64 118 -125.5t136 -104.5q-68 -43 -136 -104.5t-118 -125.5l-42 27q72 97 180 178h-809z" />
    <glyph glyph-name="Identity.260" unicode="&#x2193;" 
d="M525 840v-809q81 108 178 180l27 -42q-64 -50 -125.5 -118t-104.5 -136q-43 68 -104.5 136t-125.5 118l27 42q97 -72 178 -180v809h50z" />
    <glyph glyph-name="Identity.261" unicode="&#x21d2;" 
d="M759 258q69 70 132 115q-63 46 -132 115h-719v50h674q-65 74 -102 133l42 25q57 -88 145 -178t175 -145q-87 -54 -175 -144t-145 -178l-42 25q37 59 102 133h-674v49h719z" />
    <glyph glyph-name="Identity.262" unicode="&#x21d4;" 
d="M337 696l42 -25q-39 -63 -101 -133h444q-62 70 -101 133l42 25q55 -88 141 -178t170 -145q-84 -54 -170 -144t-141 -178l-42 25q39 63 101 133h-444q62 -70 101 -133l-42 -25q-55 88 -141 178t-170 144q84 55 170 145t141 178zM764 488h-528q-74 -74 -130 -115
q57 -40 130 -115h528q73 75 130 115q-56 41 -130 115z" />
    <glyph glyph-name="Identity.263" unicode="&#x2200;" 
d="M842 760l44 -22l-384 -752h-4l-384 752l44 22l140 -275h404zM323 436l176 -348h2l176 348h-354z" />
    <glyph glyph-name="Identity.264" unicode="&#x2202;" 
d="M718 495q0 108 -45 163.5t-124 55.5q-54 0 -97.5 -29t-69.5 -66l-36 33q36 43 88.5 75t115.5 32q101 0 160 -67.5t59 -190.5q0 -131 -41 -247.5t-119.5 -191.5t-176.5 -75q-94 0 -147.5 60t-53.5 152q0 110 75.5 189t169.5 79q84 0 137.5 -41t78.5 -106h2q24 96 24 175z
M281 197q0 -73 41.5 -117.5t113.5 -44.5q69 1 129.5 54t99.5 155q-4 76 -57 127t-128 51q-77 0 -138 -67.5t-61 -157.5z" />
    <glyph glyph-name="Identity.265" unicode="&#x2203;" 
d="M198 734h596v-721h-596v49h546v287h-546v49h546v287h-546v49z" />
    <glyph glyph-name="Identity.266" unicode="&#x2207;" 
d="M469 -19l-311 694v35h682v-35l-309 -694h-62zM604 287l165 372h-540l164 -372l104 -243h5z" />
    <glyph glyph-name="Identity.267" unicode="&#x2208;" 
d="M872 647h-408q-117 0 -197 -71t-89 -178h694v-49h-694q9 -107 89 -178t197 -71h408v-49h-408q-144 0 -240.5 93t-96.5 229q0 137 96.5 230t240.5 93h408v-49z" />
    <glyph glyph-name="Identity.268" unicode="&#x220b;" 
d="M536 647h-408v49h408q144 0 240.5 -93t96.5 -230q0 -136 -96.5 -229t-240.5 -93h-408v49h408q117 0 197 71t89 178h-694v49h694q-9 107 -89 178t-197 71z" />
    <glyph glyph-name="Identity.269" unicode="&#x221a;" 
d="M564 880h436v-38h-409l-321 -924h-30l-106 281l-71 -101l-25 18l131 186l101 -267z" />
    <glyph glyph-name="Identity.270" unicode="&#x221d;" 
d="M530 373q103 -144 232 -144q39 0 69 9l18 -46q-39 -13 -88 -13q-150 0 -261 154q-113 -154 -262 -154q-78 0 -139 52t-61 142q0 91 61 142.5t139 51.5q150 0 262 -153q111 153 261 153q52 0 88 -12l-18 -46q-30 9 -69 9q-129 0 -232 -145zM87 373q0 -66 45 -105t106 -39
q128 0 231 144q-103 145 -231 145q-61 0 -106 -39t-45 -106z" />
    <glyph glyph-name="Identity.271" unicode="&#x221e;" 
d="M500 414q112 153 261 153q78 0 139.5 -51.5t61.5 -142.5q0 -90 -61.5 -142t-139.5 -52q-147 0 -261 153q-114 -153 -262 -153q-78 0 -139 52t-61 142q0 91 61 142.5t139 51.5q150 0 262 -153zM87 373q0 -66 45 -105t106 -39q128 0 231 144q-103 145 -231 145
q-61 0 -106 -39t-45 -106zM530 373q103 -144 232 -144q60 0 105 39t45 105q0 67 -45 106t-105 39q-129 0 -232 -145z" />
    <glyph glyph-name="Identity.272" unicode="&#x2220;" 
d="M222 78v-3h653v-49h-770v4l667 667l34 -35z" />
    <glyph glyph-name="Identity.273" unicode="&#x2225;" 
d="M214 110l330 659l44 -22l-329 -659zM456 -11l-44 22l329 659l45 -22z" />
    <glyph glyph-name="Identity.274" unicode="&#x2227;" 
d="M114 14l384 752h4l384 -752l-44 -22l-341 671h-2l-341 -671z" />
    <glyph glyph-name="Identity.275" unicode="&#x2228;" 
d="M886 733l-384 -752h-4l-384 752l44 22l341 -671h2l341 671z" />
    <glyph glyph-name="Identity.276" unicode="&#x2229;" 
d="M177 410q0 143 93.5 240t229.5 97t229.5 -97t93.5 -240v-408h-50v408q0 123 -78.5 205t-194.5 82t-194.5 -82t-78.5 -205v-408h-50v408z" />
    <glyph glyph-name="Identity.277" unicode="&#x222a;" 
d="M823 337q0 -144 -93.5 -240.5t-229.5 -96.5t-229.5 96.5t-93.5 240.5v408h50v-408q0 -123 78.5 -205.5t194.5 -82.5t194.5 82.5t78.5 205.5v408h50v-408z" />
    <glyph glyph-name="Identity.278" unicode="&#x222b;" 
d="M473 152v458q0 232 169 232q20 0 35 -3l-4 -48q-14 3 -28 3q-18 0 -31.5 -2.5t-30.5 -13.5t-28.5 -29.5t-19.5 -54.5t-8 -86v-458q0 -232 -169 -232q-20 0 -35 3l4 48q13 -3 28 -3q18 0 31.5 2.5t30.5 13.5t28.5 29.5t19.5 54.5t8 86z" />
    <glyph glyph-name="Identity.279" unicode="&#x222c;" 
d="M281 152v458q0 232 170 232q19 0 35 -3l-5 -48q-12 3 -28 3q-23 0 -39.5 -5.5t-36 -22t-30.5 -57t-11 -101.5v-458q0 -232 -170 -232q-20 0 -35 3l5 48q12 -3 28 -3q22 0 39 5.5t36.5 22t30.5 57t11 101.5zM664 152v458q0 232 170 232q20 0 35 -3l-5 -48q-12 3 -28 3
q-22 0 -39 -5.5t-36.5 -22t-30.5 -57t-11 -101.5v-458q0 -232 -170 -232q-19 0 -35 3l5 48q12 -3 28 -3q23 0 39.5 5.5t36 22t30.5 57t11 101.5z" />
    <glyph glyph-name="Identity.280" unicode="&#x2234;" 
d="M436 616q0 26 19 45t45 19t45 -19t19 -45t-19 -45t-45 -19t-45 19t-19 45zM160 131q0 26 19 45t45 19t45 -19t19 -45t-19 -45t-45 -19t-45 19t-19 45zM713 131q0 26 18.5 45t45.5 19q26 0 45 -19t19 -45t-19 -45t-45 -19q-27 0 -45.5 19t-18.5 45z" />
    <glyph glyph-name="Identity.281" unicode="&#x2235;" 
d="M160 616q0 26 19 45t45 19t45 -19t19 -45t-19 -45t-45 -19t-45 19t-19 45zM713 616q0 26 18.5 45t45.5 19q26 0 45 -19t19 -45t-19 -45t-45 -19q-27 0 -45.5 19t-18.5 45zM436 131q0 26 19 45t45 19t45 -19t19 -45t-19 -45t-45 -19t-45 19t-19 45z" />
    <glyph glyph-name="Identity.282" unicode="&#x223d;" 
d="M482 391q121 176 279 176q78 0 139.5 -51.5t61.5 -142.5q0 -90 -61.5 -142t-140.5 -52q-48 0 -88 13l18 46q32 -9 71 -9q61 0 106 38.5t45 105.5t-45 106t-105 39q-135 0 -245 -163q-121 -176 -279 -176q-78 0 -139 52t-61 142q0 91 61 142.5t140 51.5q52 0 88 -12
l-18 -46q-30 9 -71 9q-61 0 -106 -39t-45 -106q0 -66 45 -105t106 -39q134 0 244 162z" />
    <glyph glyph-name="Identity.283" unicode="&#x2252;" 
d="M252 664q0 26 19 44.5t45 18.5t45 -18.5t19 -44.5q0 -27 -19 -45.5t-45 -18.5t-45 18.5t-19 45.5zM132 498h736v-46h-736v46zM132 295h736v-46h-736v46zM620 83q0 27 19 45.5t45 18.5t45 -18.5t19 -45.5q0 -26 -19 -45t-45 -19t-45 19t-19 45z" />
    <glyph glyph-name="Identity.284" unicode="&#x2260;" 
d="M868 448h-315l-56 -155h371v-49h-388l-82 -225l-47 17l75 208h-294v49h312l57 155h-369v49h387l83 231l47 -17l-78 -214h297v-49z" />
    <glyph glyph-name="Identity.285" unicode="&#x2261;" 
d="M132 612h736v-48h-736v48zM132 397h736v-47h-736v47zM132 182h736v-47h-736v47z" />
    <glyph glyph-name="Identity.286" unicode="&#x2266;" 
d="M862 842l17 -46l-637 -247v-4l637 -248l-17 -45l-756 293v4zM128 161h744v-47h-744v47zM128 5h744v-47h-744v47z" />
    <glyph glyph-name="Identity.287" unicode="&#x2267;" 
d="M138 842l756 -293v-4l-756 -293l-17 45l637 248v4l-637 247zM128 161h744v-47h-744v47zM128 5h744v-47h-744v47z" />
    <glyph glyph-name="Identity.288" unicode="&#x226a;" 
d="M620 759l25 -37l-498 -347v-4l498 -346l-25 -38l-552 384v4zM905 759l26 -37l-499 -347v-4l499 -346l-26 -38l-552 384v4z" />
    <glyph glyph-name="Identity.289" unicode="&#x226b;" 
d="M95 759l552 -384v-4l-552 -384l-26 38l499 346v4l-499 347zM380 759l552 -384v-4l-552 -384l-25 38l498 346v4l-498 347z" />
    <glyph glyph-name="Identity.290" unicode="&#x2282;" 
d="M464 51q-144 0 -240.5 93t-96.5 229q0 137 96.5 230t240.5 93h408v-49h-408q-124 0 -206 -79t-82 -195t82 -194.5t206 -78.5h408v-49h-408z" />
    <glyph glyph-name="Identity.291" unicode="&#x2283;" 
d="M536 696q144 0 240.5 -93t96.5 -230q0 -136 -96.5 -229t-240.5 -93h-408v49h408q124 0 206 78.5t82 194.5t-82 195t-206 79h-408v49h408z" />
    <glyph glyph-name="Identity.292" unicode="&#x2286;" 
d="M411 710q-112 0 -173.5 -61t-61.5 -148t61.5 -148t173.5 -61h461v-49h-462q-132 0 -207.5 75.5t-75.5 182.5t75.5 182.5t207.5 75.5h462v-49h-461zM128 37h744v-50h-744v50z" />
    <glyph glyph-name="Identity.293" unicode="&#x2287;" 
d="M590 292q112 0 173 61t61 148t-61 148t-173 61h-462v49h462q132 0 207.5 -75.5t75.5 -182.5t-75.5 -182.5t-207.5 -75.5h-462v49h462zM128 37h744v-50h-744v50z" />
    <glyph glyph-name="Identity.294" unicode="&#x22a5;" 
d="M525 89h364v-49h-778v49h364v652h50v-652z" />
    <glyph glyph-name="Identity.295" unicode="&#x2312;" 
d="M27 641q206 200 473 200t473 -200l-24 -39q-194 191 -449 191t-449 -191z" />
    <glyph glyph-name="Identity.296" unicode="&#x2500;" 
d="M0 360v40h1000v-40h-1000z" />
    <glyph glyph-name="Identity.297" unicode="&#x2501;" 
d="M0 320v120h1000v-120h-1000z" />
    <glyph glyph-name="Identity.298" unicode="&#x2502;" 
d="M480 -120v1000h40v-1000h-40z" />
    <glyph glyph-name="Identity.299" unicode="&#x2503;" 
d="M440 -120v1000h120v-1000h-120z" />
    <glyph glyph-name="Identity.300" unicode="&#x250c;" 
d="M1000 360h-480v-480h-40v520h520v-40z" />
    <glyph glyph-name="Identity.301" unicode="&#x250f;" 
d="M1000 320h-440v-440h-120v560h560v-120z" />
    <glyph glyph-name="Identity.302" unicode="&#x2510;" 
d="M520 -120h-40v480h-480v40h520v-520z" />
    <glyph glyph-name="Identity.303" unicode="&#x2513;" 
d="M560 -120h-120v440h-440v120h560v-560z" />
    <glyph glyph-name="Identity.304" unicode="&#x2514;" 
d="M1000 360h-520v520h40v-480h480v-40z" />
    <glyph glyph-name="Identity.305" unicode="&#x2517;" 
d="M440 320v560h120v-440h440v-120h-560z" />
    <glyph glyph-name="Identity.306" unicode="&#x2518;" 
d="M520 360h-520v40h480v480h40v-520z" />
    <glyph glyph-name="Identity.307" unicode="&#x251b;" 
d="M0 320v120h440v440h120v-560h-560z" />
    <glyph glyph-name="Identity.308" unicode="&#x251c;" 
d="M1000 360h-480v-480h-40v1000h40v-480h480v-40z" />
    <glyph glyph-name="Identity.309" unicode="&#x251d;" 
d="M1000 320h-480v-440h-40v1000h40v-440h480v-120z" />
    <glyph glyph-name="Identity.310" unicode="&#x2520;" 
d="M1000 360h-440v-480h-120v1000h120v-480h440v-40z" />
    <glyph glyph-name="Identity.311" unicode="&#x2523;" 
d="M1000 320h-440v-440h-120v1000h120v-440h440v-120z" />
    <glyph glyph-name="Identity.312" unicode="&#x2524;" 
d="M520 -120h-40v480h-480v40h480v480h40v-1000z" />
    <glyph glyph-name="Identity.313" unicode="&#x2525;" 
d="M520 -120h-40v440h-480v120h480v440h40v-1000z" />
    <glyph glyph-name="Identity.314" unicode="&#x2528;" 
d="M560 -120h-120v480h-440v40h440v480h120v-1000z" />
    <glyph glyph-name="Identity.315" unicode="&#x252b;" 
d="M560 -120h-120v440h-440v120h440v440h120v-1000z" />
    <glyph glyph-name="Identity.316" unicode="&#x252c;" 
d="M1000 360h-480v-480h-40v480h-480v40h1000v-40z" />
    <glyph glyph-name="Identity.317" unicode="&#x252f;" 
d="M1000 320h-480v-440h-40v440h-480v120h1000v-120z" />
    <glyph glyph-name="Identity.318" unicode="&#x2530;" 
d="M1000 360h-440v-480h-120v480h-440v40h1000v-40z" />
    <glyph glyph-name="Identity.319" unicode="&#x2533;" 
d="M1000 320h-440v-440h-120v440h-440v120h1000v-120z" />
    <glyph glyph-name="Identity.320" unicode="&#x2534;" 
d="M1000 360h-1000v40h480v480h40v-480h480v-40z" />
    <glyph glyph-name="Identity.321" unicode="&#x2537;" 
d="M1000 320h-1000v120h480v440h40v-440h480v-120z" />
    <glyph glyph-name="Identity.322" unicode="&#x2538;" 
d="M1000 360h-1000v40h440v480h120v-480h440v-40z" />
    <glyph glyph-name="Identity.323" unicode="&#x253b;" 
d="M1000 320h-1000v120h440v440h120v-440h440v-120z" />
    <glyph glyph-name="Identity.324" unicode="&#x253c;" 
d="M1000 360h-480v-480h-40v480h-480v40h480v480h40v-480h480v-40z" />
    <glyph glyph-name="Identity.325" unicode="&#x253f;" 
d="M1000 320h-480v-440h-40v440h-480v120h480v440h40v-440h480v-120z" />
    <glyph glyph-name="Identity.326" unicode="&#x2542;" 
d="M1000 360h-440v-480h-120v480h-440v40h440v480h120v-480h440v-40z" />
    <glyph glyph-name="Identity.327" unicode="&#x254b;" 
d="M1000 320h-440v-440h-120v440h-440v120h440v440h120v-440h440v-120z" />
    <glyph glyph-name="Identity.328" unicode="&#x25a0;" 
d="M100 780h800v-800h-800v800z" />
    <glyph glyph-name="Identity.329" unicode="&#x25a1;" 
d="M100 780h800v-800h-800v800zM133 747v-734h734v734h-734z" />
    <glyph glyph-name="Identity.330" unicode="&#x25b2;" 
d="M500 826l470 -814h-940z" />
    <glyph glyph-name="Identity.331" unicode="&#x25b3;" 
d="M500 826l470 -814h-940zM500 760l-413 -715h826z" />
    <glyph glyph-name="Identity.332" unicode="&#x25bc;" 
d="M30 748h940l-470 -814z" />
    <glyph glyph-name="Identity.333" unicode="&#x25bd;" 
d="M30 748h940l-470 -814zM913 715h-826l413 -715z" />
    <glyph glyph-name="Identity.334" unicode="&#x25c6;" 
d="M500 868l488 -488l-488 -488l-488 488z" />
    <glyph glyph-name="Identity.335" unicode="&#x25c7;" 
d="M500 868l488 -488l-488 -488l-488 488zM500 821l-441 -441l441 -441l441 441z" />
    <glyph glyph-name="Identity.336" unicode="&#x25cb;" 
d="M500 -70q-122 0 -226 60t-164 164t-60 226t60 226t164 164t226 60t226 -60t164 -164t60 -226t-60 -226t-164 -164t-226 -60zM83 380q0 -172 122.5 -294.5t294.5 -122.5t294.5 122.5t122.5 294.5t-122.5 294.5t-294.5 122.5t-294.5 -122.5t-122.5 -294.5z" />
    <glyph glyph-name="Identity.337" unicode="&#x25ce;" 
d="M50 380q0 122 60 226t164 164t226 60t226 -60t164 -164t60 -226t-60 -226t-164 -164t-226 -60t-226 60t-164 164t-60 226zM917 380q0 172 -122.5 294.5t-294.5 122.5t-294.5 -122.5t-122.5 -294.5t122.5 -294.5t294.5 -122.5t294.5 122.5t122.5 294.5zM203 380
q0 124 86.5 210.5t210.5 86.5t210.5 -86.5t86.5 -210.5t-86.5 -210.5t-210.5 -86.5t-210.5 86.5t-86.5 210.5zM770 380q0 112 -79 191t-191 79t-191 -79t-79 -191t79 -191t191 -79t191 79t79 191z" />
    <glyph glyph-name="Identity.338" unicode="&#x25cf;" 
d="M500 -70q-122 0 -226 60t-164 164t-60 226t60 226t164 164t226 60t226 -60t164 -164t60 -226t-60 -226t-164 -164t-226 -60z" />
    <glyph glyph-name="Identity.339" unicode="&#x25ef;" 
d="M500 842q191 0 326.5 -135.5t135.5 -326.5t-135.5 -326.5t-326.5 -135.5t-326.5 135.5t-135.5 326.5t135.5 326.5t326.5 135.5zM934 380q0 180 -127 307t-307 127t-307 -127t-127 -307t127 -307t307 -127t307 127t127 307z" />
    <glyph glyph-name="Identity.340" unicode="&#x2605;" 
d="M611 484h351v-2l-284 -206l111 -338h-2l-287 208l-287 -208h-2l111 338l-284 206v2h351l110 337h2z" />
    <glyph glyph-name="Identity.341" unicode="&#x2606;" 
d="M389 484l107 337h8l107 -337h351v-8l-284 -200l113 -335l-6 -5l-285 210l-285 -210l-6 5l113 335l-284 200v8h351zM413 451h-206l-88 5v-2l79 -51l163 -114l-60 -179l-38 -99l2 -1l86 66l149 110l149 -110l86 -66l2 1l-38 99l-60 179l163 114l79 51v2l-89 -5h-205
l-62 194l-24 88h-2l-24 -88z" />
    <glyph glyph-name="Identity.342" unicode="&#x2640;" 
d="M294 614q0 86 60 146t146 60t146 -60t60 -146q0 -79 -51.5 -137t-129.5 -69v-122h293v-50h-293v-296h-50v296h-293v50h293v122q-78 11 -129.5 69t-51.5 137zM657 614q0 65 -46 111t-111 46t-111 -46t-46 -111t46 -111t111 -46t111 46t46 111z" />
    <glyph glyph-name="Identity.343" unicode="&#x2642;" 
d="M532 205q0 -85 -61 -145.5t-146 -60.5t-145.5 60.5t-60.5 145.5t60.5 146t145.5 61q71 0 127 -44l317 316h-282v49h366v-366h-49v283l-317 -317q45 -53 45 -128zM169 205q0 -65 45.5 -110.5t110.5 -45.5t111 45.5t46 110.5t-46 111t-111 46t-110.5 -46t-45.5 -111z" />
    <glyph glyph-name="Identity.344" unicode="&#x266a;" 
d="M486 840h25q0 -119 116 -220q129 -112 129 -225q0 -109 -84 -244h-26q63 132 63 210q0 86 -52 149.5t-131 81.5v-502q0 -75 -54.5 -122.5t-128.5 -47.5q-37 0 -65 19.5t-28 54.5q0 52 55 95t118 43q39 0 63 -13v721z" />
    <glyph glyph-name="Identity.345" unicode="&#x266d;" 
d="M602 479q64 0 99.5 -35t35.5 -88q0 -49 -19.5 -90.5t-50 -70.5t-72 -60t-81 -55.5t-82.5 -59t-72 -69.5h-10v858h39v-475q35 64 92.5 104.5t120.5 40.5zM389 26q36 38 92 81.5t91 71t62.5 70t27.5 92.5q0 44 -23.5 66.5t-61.5 22.5q-44 0 -96 -38t-92 -113v-253z" />
    <glyph glyph-name="Identity.346" unicode="&#x266f;" 
d="M766 529l-136 -19v-206l136 19v-66l-136 -19v-254h-38v248l-185 -26v-253h-38v247l-136 -20v66l136 20v206l-136 -20v67l136 19v243h38v-237l185 26v242h38v-236l136 19v-66zM592 298v206l-185 -26v-206z" />
    <glyph glyph-name="Identity.347" unicode="&#x3001;" 
d="M329 -10l-45 -38q-106 130 -225 224l41 37q106 -84 229 -223z" />
    <glyph glyph-name="Identity.348" unicode="&#x3002;" 
d="M195 242q61 0 103.5 -43t42.5 -104t-42.5 -104t-103.5 -43t-104 43t-43 104t43 104t104 43zM195 -13q45 0 76.5 31.5t31.5 76.5q0 44 -31.5 76t-76.5 32t-76.5 -32t-31.5 -76q0 -45 31.5 -76.5t76.5 -31.5z" />
    <glyph glyph-name="Identity.349" unicode="&#x3003;" 
d="M407 624l68 -27l-193 -461l-34 13zM685 624l67 -27l-193 -461l-34 13z" />
    <glyph glyph-name="Identity.350" unicode="&#x3005;" 
d="M785 577l36 -20q-37 -100 -99 -209.5t-128 -192.5q103 -72 154 -128l-35 -41q-57 63 -166 139t-218 129l32 37q94 -46 191 -108q55 68 109 162t90 181h-369q-100 -198 -224 -318q-12 11 -43 30q106 99 188 246t129 300l53 -13q-37 -107 -79 -197h369z" />
    <glyph glyph-name="Identity.351" unicode="&#x3006;" 
d="M804 766l46 -31q-105 -125 -263 -326q139 -101 242 -194l-37 -45q-74 74 -238 196q-44 -57 -93.5 -121.5t-105.5 -137.5t-83 -108q-3 -4 -37 -55l-46 14q3 38 2 45q-6 144 -18 234l49 6q11 -121 14 -205q155 202 277 358q-143 107 -233 154l35 41q86 -50 231 -153
q189 242 258 328z" />
    <glyph glyph-name="Identity.352" unicode="&#x3007;" 
d="M54 380q0 185 130.5 315.5t315.5 130.5t315.5 -130.5t130.5 -315.5t-130.5 -315.5t-315.5 -130.5t-315.5 130.5t-130.5 315.5zM897 380q0 164 -116.5 280.5t-280.5 116.5t-280.5 -116.5t-116.5 -280.5t116.5 -280.5t280.5 -116.5t280.5 116.5t116.5 280.5z" />
    <glyph glyph-name="Identity.353" unicode="&#x3008;" 
d="M659 380l290 -442l-42 -20l-303 462l303 462l42 -20z" />
    <glyph glyph-name="Identity.354" unicode="&#x3009;" 
d="M93 -82l-42 20l290 442l-290 442l42 20l303 -462z" />
    <glyph glyph-name="Identity.355" unicode="&#x300a;" 
d="M579 380l231 -449l-37 -13l-237 462l237 462l37 -13zM728 380l231 -449l-37 -13l-237 462l237 462l37 -13z" />
    <glyph glyph-name="Identity.356" unicode="&#x300b;" 
d="M227 -82l-37 13l231 449l-231 449l37 13l237 -462zM78 -82l-37 13l231 449l-231 449l37 13l237 -462z" />
    <glyph glyph-name="Identity.357" unicode="&#x300c;" 
d="M656 191v651h306v-46h-258v-605h-48z" />
    <glyph glyph-name="Identity.358" unicode="&#x300d;" 
d="M344 569v-651h-306v46h258v605h48z" />
    <glyph glyph-name="Identity.359" unicode="&#x300e;" 
d="M962 699h-205v-520h-158v663h363v-143zM936 816h-310v-610h105v520h205v90z" />
    <glyph glyph-name="Identity.360" unicode="&#x300f;" 
d="M38 61h205v520h158v-663h-363v143zM64 -56h310v610h-105v-520h-205v-90z" />
    <glyph glyph-name="Identity.361" unicode="&#x3010;" 
d="M670 842h292v-5q-87 -73 -142.5 -193t-55.5 -264t55.5 -264t142.5 -193v-5h-292v924z" />
    <glyph glyph-name="Identity.362" unicode="&#x3011;" 
d="M330 842v-924h-292v5q87 73 142.5 193t55.5 264t-55.5 264t-142.5 193v5h292z" />
    <glyph glyph-name="Identity.363" unicode="&#x3012;" 
d="M165 713h670v-65h-670v65zM165 512h670v-65h-299v-437h-72v437h-299v65z" />
    <glyph glyph-name="Identity.364" unicode="&#x3013;" 
d="M900 780v-300h-800v300h800zM900 280v-300h-800v300h800z" />
    <glyph glyph-name="Identity.365" unicode="&#x3014;" 
d="M929 -94l-205 134v680l205 134l24 -36l-182 -117v-642l182 -117z" />
    <glyph glyph-name="Identity.366" unicode="&#x3015;" 
d="M276 40l-205 -134l-24 36l182 117v642l-182 117l24 36l205 -134v-680z" />
    <glyph glyph-name="Identity.367" unicode="&#x301c;" 
d="M701 256q-63 0 -112.5 25.5t-106.5 78.5q-50 46 -90.5 67.5t-92.5 21.5q-64 0 -118.5 -38t-87.5 -102l-49 26q96 169 255 169q63 0 112.5 -25.5t106.5 -78.5q50 -46 90 -67.5t93 -21.5q64 0 118.5 38t87.5 102l49 -26q-96 -169 -255 -169z" />
    <glyph glyph-name="Identity.368" unicode="&#x3041;" 
d="M460 144q100 94 151 229q-6 1 -20 1q-75 0 -147 -29q-1 -12 -1 -37q0 -81 17 -164zM398 306v19q-66 -36 -112.5 -95t-46.5 -119q0 -53 55 -53q54 0 126 52q-22 103 -22 196zM677 427l-7 -20q81 -19 124.5 -72.5t43.5 -123.5q0 -89 -67 -156.5t-205 -88.5l-28 43
q109 10 181 65t72 141q0 56 -36 97t-100 55q-67 -171 -184 -272q7 -28 20 -67l-46 -14q-7 20 -15 50q-81 -52 -143 -52q-42 0 -67.5 25t-25.5 70q0 81 60 154t146 112q2 53 10 127q-20 -1 -58 -1q-66 0 -130 6l-1 48q58 -10 131 -10q42 0 63 1q2 16 4.5 41t3.5 34q2 24 2 33
h55q-4 -10 -8 -35q-6 -36 -11 -71q159 6 292 33l1 -46q-145 -23 -299 -31q-6 -51 -9 -111q77 25 143 25q13 0 37 -2l6 21q6 17 8 36l48 -11q-4 -15 -11 -33z" />
    <glyph glyph-name="Identity.369" unicode="&#x3042;" 
d="M436 169q128 116 191 284q-10 1 -30 1q-85 0 -180 -35q-1 -21 -1 -62q0 -86 20 -188zM237 69q71 0 157 64q-25 120 -25 222q0 28 1 43q-84 -43 -140 -117.5t-56 -144.5q0 -67 63 -67zM698 513l-9 -25q95 -23 148.5 -85.5t53.5 -144.5q0 -111 -81 -190t-242 -105l-30 45
q133 14 217 80.5t84 172.5q0 66 -43.5 116.5t-121.5 68.5q-85 -210 -225 -331q10 -41 23 -83l-48 -15q-8 27 -18 65q-93 -64 -175 -64q-48 0 -78 29.5t-30 83.5q0 92 72.5 181t176.5 136q5 91 12 159q-26 -1 -76 -1q-77 0 -151 6l-2 52q70 -12 153 -12q54 0 81 1l10 90
q2 30 2 40l58 -2q-5 -12 -10 -38q-9 -49 -13 -88q202 10 352 42l1 -52q-168 -28 -359 -36q-7 -78 -11 -142q91 31 176 31q16 0 46 -2q3 9 9 29q6 22 7 41l55 -14q-3 -6 -7.5 -20t-6.5 -19z" />
    <glyph glyph-name="Identity.370" unicode="&#x3043;" 
d="M250 564q-5 -55 -5 -74q0 -160 13 -242q13 -92 45 -148.5t72 -56.5q30 0 59.5 50t49.5 124l42 -40q-35 -99 -71.5 -144t-79.5 -45q-57 0 -102 61t-63 191q-13 86 -13 250q0 59 -4 75zM688 537q59 -72 97.5 -188t47.5 -210l-51 -21q-8 98 -46 214.5t-97 187.5z" />
    <glyph glyph-name="Identity.371" unicode="&#x3044;" 
d="M205 686q-4 -35 -6 -81q-4 -118 8 -248q14 -136 54 -215.5t97 -79.5q38 0 73.5 58t59.5 147l42 -43q-76 -221 -176 -221q-70 0 -125 83.5t-75 259.5q-10 91 -10 261q0 57 -5 81zM733 656q65 -88 111.5 -215.5t59.5 -257.5l-52 -21q-13 140 -58.5 265.5t-110.5 210.5z" />
    <glyph glyph-name="Identity.372" unicode="&#x3045;" 
d="M714 262q0 65 -43.5 97.5t-106.5 32.5q-81 0 -232 -42q-11 -3 -22.5 -7.5l-23 -9t-15.5 -5.5l-17 58q25 1 66 11q10 2 48.5 11t64.5 14.5t64.5 11t68.5 5.5q89 0 144 -47t55 -131q0 -123 -97.5 -201.5t-268.5 -106.5l-26 46q154 20 247.5 87t93.5 176zM359 625
q65 -13 171.5 -25t171.5 -14l-8 -48q-60 3 -170.5 15.5t-173.5 24.5z" />
    <glyph glyph-name="Identity.373" unicode="&#x3046;" 
d="M737 338q0 70 -51 113t-133 43q-28 0 -57.5 -3t-51 -6t-50.5 -10t-42.5 -10.5t-41.5 -11.5t-34 -10q-22 -6 -76 -26l-18 62q26 2 81 14q10 2 44.5 11t57.5 14t58 11.5t68.5 10t65.5 3.5q102 0 167.5 -55t65.5 -152q0 -79 -33 -143t-92.5 -109t-136.5 -74.5t-172 -44.5
l-32 49q188 25 300.5 106.5t112.5 217.5zM307 767q74 -17 202.5 -31t204.5 -16l-9 -51q-231 15 -407 47z" />
    <glyph glyph-name="Identity.374" unicode="&#x3047;" 
d="M352 627q55 -16 159 -29.5t162 -16.5l-7 -48q-55 4 -159 19t-163 28zM683 406q-4 -3 -15 -11.5t-14 -11.5q-16 -14 -79 -74t-93 -90q11 2 23 -1q58 -1 76 -68q15 -56 28 -93q15 -44 74 -44q83 0 150 19l-3 -53q-69 -13 -152 -13q-93 0 -114 71q-4 12 -13.5 49t-13.5 47
q-9 25 -20.5 37t-34.5 12q-29 0 -60 -28q-26 -23 -86.5 -87.5t-88.5 -100.5l-48 34q11 9 29 25q43 43 181.5 178.5t182.5 179.5q-50 -5 -274 -23q-44 -4 -63 -8l-4 56q27 -2 63 0q44 2 156 10.5t151 13.5q22 4 30 7z" />
    <glyph glyph-name="Identity.375" unicode="&#x3048;" 
d="M314 774q74 -18 192 -34t192 -21l-8 -49q-186 17 -385 55zM709 508q-8 -6 -27.5 -22t-21.5 -18q-7 -7 -52.5 -50t-85.5 -82t-60 -60q7 1 19 1.5t17 -0.5q63 -3 86 -73q1 -5 14.5 -54t20.5 -70q10 -31 31 -44.5t64 -13.5q103 0 183 23l-3 -57q-79 -15 -181 -15
q-58 0 -92 18t-48 66q-5 14 -17.5 61t-18.5 64q-21 55 -64 55q-42 0 -78 -34q-35 -32 -108.5 -109.5t-106.5 -120.5l-52 36q23 18 38 34q343 343 445 442q-50 -4 -190 -15.5t-151 -12.5q-33 -2 -76 -8l-5 59q23 -2 78 -2q47 2 180.5 12.5t186.5 17.5q28 4 42 10z" />
    <glyph glyph-name="Identity.376" unicode="&#x3049;" 
d="M337 8q32 0 32 41q0 17 -1.5 76.5t-2.5 92.5q-53 -25 -92.5 -61t-39.5 -69q0 -28 37.5 -54t66.5 -26zM410 292v-9q94 33 189 33q90 0 147.5 -43t57.5 -115q0 -70 -48.5 -119.5t-139.5 -66.5q-28 -6 -89 -9l-16 47q52 -2 95 6q66 12 108 48.5t42 93.5t-45 86.5t-112 29.5
q-90 0 -188 -36q0 -36 2 -105t2 -90q0 -83 -67 -83q-47 0 -105 39t-58 83q0 55 55.5 104.5t123.5 78.5v24q0 42 2 138q-35 -4 -75 -4q-33 0 -95 5l-1 51q57 -8 96 -8q37 0 76 3q2 86 2 95q0 31 -3 47h54q-1 -6 -4 -46q-1 -22 -3 -92q106 11 180 35l1 -49q-99 -22 -182 -33
q-2 -94 -2 -139zM665 506l26 40q118 -67 183 -125l-30 -40q-27 28 -82 66t-97 59z" />
    <glyph glyph-name="Identity.377" unicode="&#x304a;" 
d="M303 37q37 0 37 53q0 24 -1.5 98.5t-1.5 106.5q-70 -31 -116 -75t-46 -82t44.5 -69.5t83.5 -31.5zM384 396v-33q123 43 234 43q104 0 169 -52t65 -134q0 -170 -206 -219q-42 -9 -118 -12l-19 51q84 0 114 7q76 13 127.5 56t51.5 116q0 67 -53.5 104t-130.5 37
q-117 0 -233 -46q0 -41 2 -121.5t2 -106.5q0 -101 -76 -101q-55 0 -123 47.5t-68 103.5q0 55 63 113t151 96v47q0 48 2 158q-52 -5 -84 -5q-62 0 -119 5l-2 52q67 -9 120 -9q24 0 86 4q3 93 3 131q0 33 -5 60h58q-2 -21 -4 -58q0 -41 -3 -128q133 17 215 43l1 -52
q-88 -23 -217 -38q-3 -82 -3 -159zM693 638l26 39q53 -29 118.5 -73t97.5 -74l-28 -42q-63 64 -214 150z" />
    <glyph glyph-name="Identity.378" unicode="&#x304b;" 
d="M364 777l61 -5q-1 -10 -8 -45q-14 -97 -28 -163q106 8 127 8q69 0 110 -33.5t41 -122.5q0 -98 -15 -197.5t-44 -156.5q-22 -46 -54 -62t-81 -16q-51 0 -115 15l-8 56q66 -21 122 -21q34 0 56 10.5t38 44.5q50 109 50 321q0 67 -27.5 91t-81.5 24q-25 0 -129 -8
q-81 -324 -211 -534l-54 22q70 93 127 240t85 267q-124 -12 -148 -14q-8 -1 -35.5 -4.5t-40.5 -5.5l-7 59q40 -1 78 0q11 0 165 12q27 122 27 218zM719 637l47 22q43 -53 99 -160.5t86 -184.5l-49 -25q-27 81 -81 187t-102 161z" />
    <glyph glyph-name="Identity.379" unicode="&#x304c;" 
d="M970 698l-39 -18q-43 87 -85 138l38 17q47 -62 86 -137zM862 660l-39 -18q-37 79 -83 139l39 17q44 -61 83 -138zM347 776l61 -6q-6 -28 -8 -44q-14 -97 -29 -163q106 8 127 8q69 0 110 -33.5t41 -122.5q0 -99 -14.5 -198.5t-43.5 -156.5q-22 -45 -54.5 -61t-80.5 -16
q-58 0 -116 15l-8 56q69 -22 123 -22q33 0 55 11t39 45q49 105 49 320q0 68 -27.5 92t-81.5 24q-25 0 -129 -8q-77 -321 -211 -534l-53 22q69 92 126 238.5t87 268.5q-36 -4 -91.5 -9.5t-57.5 -5.5q-34 -3 -77 -9l-6 59q39 -1 78 0q13 0 164 12q27 122 28 218zM702 625
l46 23q44 -53 100 -160t86 -184l-49 -25q-26 80 -80.5 186t-102.5 160z" />
    <glyph glyph-name="Identity.380" unicode="&#x304d;" 
d="M223 260l50 -4q-23 -61 -23 -104q0 -135 218 -135q141 0 233 22l-1 -53q-103 -19 -229 -19q-130 0 -200.5 44.5t-70.5 130.5q0 47 23 118zM840 522l11 -48q-79 -26 -178 -45q69 -146 93 -191l-27 -33q-77 12 -180 25l5 41q31 -4 81 -9.5t57 -6.5q-27 56 -77 166
q-178 -26 -447 -10l-2 49q229 -21 429 5q-43 99 -46 105l-21 48q-169 -17 -353 1l-3 49q185 -21 338 -6q-10 20 -21 47q-13 31 -30 61l59 13q12 -41 41 -115q112 16 202 47l10 -48q-85 -26 -194 -43l17 -40q25 -57 50 -112q96 16 186 50z" />
    <glyph glyph-name="Identity.381" unicode="&#x304e;" 
d="M179 257l50 -5q-23 -55 -23 -103q0 -136 218 -136q136 0 232 22l-1 -53q-105 -18 -229 -18q-129 0 -199 44.5t-70 130.5q0 48 22 118zM796 518l11 -47q-78 -27 -178 -45q52 -114 92 -191l-26 -33q-39 6 -180 24l4 42q67 -9 139 -17q-21 44 -77 167q-173 -25 -448 -11
l-1 50q227 -22 429 4q-9 20 -47 106l-20 47q-161 -16 -353 1l-4 49q189 -20 338 -5q-10 25 -20 46q-17 38 -31 61l60 14q12 -41 41 -115q103 12 184 42l9 -48q-75 -24 -175 -39l17 -39q25 -57 50 -112q93 17 186 49zM713 776l37 17q49 -68 84 -140l-38 -19q-39 83 -83 142z
M816 813l36 17q44 -57 87 -139l-37 -18q-47 89 -86 140z" />
    <glyph glyph-name="Identity.382" unicode="&#x304f;" 
d="M635 789l50 -44q-9 -7 -31 -26.5t-26 -23.5q-59 -53 -296 -247q-49 -41 -48.5 -64t52.5 -65q86 -69 197 -165t177 -163l-45 -40q-8 10 -28.5 30t-28.5 30q-72 79 -322 283q-45 37 -57 65.5t3 54.5t59 64q23 20 90 74.5t123 102.5t86 79q30 30 45 55z" />
    <glyph glyph-name="Identity.383" unicode="&#x3050;" 
d="M630 563q31 -46 88 -145l-40 -17q-47 87 -85 145zM744 607q43 -55 91 -142l-39 -17q-46 80 -89 141zM623 789l50 -44q-9 -7 -31 -26.5t-26 -23.5q-59 -53 -296 -247q-49 -41 -48.5 -64t52.5 -65q86 -69 197 -165t177 -163l-45 -40q-8 10 -28.5 30t-28.5 30
q-72 79 -322 283q-45 37 -57 65.5t3 54.5t59 64q23 20 90 74.5t123 102.5t86 79q30 30 45 55z" />
    <glyph glyph-name="Identity.384" unicode="&#x3051;" 
d="M182 760l62 -6q-2 -6 -13 -54q-76 -347 -25 -569q16 59 54 171l33 -19q-51 -151 -62 -205q-5 -25 -4 -42q3 -27 3 -29l-43 -6q-49 155 -49 310q0 45 2.5 92t8 93.5t10 78t11 75.5t8.5 56q4 27 4 54zM918 579v-54q-73 -15 -167 -21v-29v-28v-70t-2 -63.5t-5.5 -62.5
t-10.5 -56.5t-17 -56t-26 -50t-36.5 -49t-48 -43t-61.5 -41.5l-49 38q50 21 85 52q26 21 45.5 46t32.5 46t22 56.5t13 57t6.5 69t2.5 71v84.5v26q-59 -4 -133 -4q-95 0 -165 7v54q69 -12 165 -12q73 0 132 4q-3 99 -6 164q-2 22 -9 53h64q-1 -3 -3 -52q-1 -26 3 -162
q100 8 168 26z" />
    <glyph glyph-name="Identity.385" unicode="&#x3052;" 
d="M874 633l-39 -14q-29 84 -58 140l37 12q35 -68 60 -138zM175 735l61 -6q-3 -11 -13 -53q-75 -344 -25 -562q14 48 55 171l32 -19q-47 -138 -62 -205q-4 -29 -3 -43q0 -4 1 -14t1 -14l-43 -6q-50 158 -50 309q0 72 7 142t20 155.5t14 91.5q2 13 5 53zM665 743h64
q-3 -27 -3 -52q0 -9 0.5 -34.5t1.5 -62t1 -62.5q103 8 182 28l-1 -55q-71 -14 -180 -22v-26q0 -176 -10 -239q-23 -148 -128 -233q-30 -25 -69 -47l-49 38q50 20 85 51q23 19 41 38t31 44.5t21.5 43t14 52.5t8.5 52t4.5 62.5t1.5 63.5v74v23q-60 -3 -120 -3q-95 0 -165 7v54
q70 -12 166 -12q58 0 118 3q-3 96 -6 161q-2 19 -9 53zM875 788l37 12q30 -54 61 -135l-38 -15q-38 100 -60 138z" />
    <glyph glyph-name="Identity.386" unicode="&#x3053;" 
d="M247 634v52q103 -13 257 -13q119 0 255 14v-52q-156 -12 -255 -12q-136 0 -257 11zM210 304l53 -6q-22 -66 -22 -119q0 -63 65 -100.5t187 -37.5q223 0 334 38l1 -54q-114 -35 -334 -35q-142 0 -223.5 46t-81.5 132q0 56 21 136z" />
    <glyph glyph-name="Identity.387" unicode="&#x3054;" 
d="M776 792q47 -66 84 -138l-40 -19q-36 78 -83 140zM881 829q53 -71 87 -137l-39 -18q-43 85 -85 138zM231 623v52q103 -13 258 -13q117 0 255 14v-52q-158 -12 -255 -12q-137 0 -258 11zM194 293l53 -6q-22 -64 -22 -119q0 -63 65 -100.5t188 -37.5q224 0 333 39l1 -55
q-114 -35 -334 -35q-142 0 -223.5 46t-81.5 133q0 47 21 135z" />
    <glyph glyph-name="Identity.388" unicode="&#x3055;" 
d="M216 304l53 -5q-29 -64 -29 -128q0 -151 225 -151q137 0 255 27l-1 -55q-130 -22 -255 -22q-131 0 -203 50.5t-72 138.5q0 61 27 145zM828 662l10 -52q-97 -26 -198 -42q101 -220 137 -291l-33 -32q-70 16 -193 26l6 43q91 -9 155 -18q-104 223 -121 264
q-193 -23 -424 -3l-2 53q208 -27 405 -4q-10 25 -39 88q-19 44 -38 76l59 12q32 -83 69 -169q102 15 207 49z" />
    <glyph glyph-name="Identity.389" unicode="&#x3056;" 
d="M215 297l53 -5q-29 -64 -29 -129q0 -150 225 -150q137 0 255 27l-1 -55q-130 -22 -255 -22q-131 0 -203 50.5t-72 138.5q0 56 27 145zM827 655l10 -52q-97 -26 -198 -42q101 -220 137 -291l-33 -32q-63 14 -193 25l6 43q69 -5 155 -17q-104 223 -121 264
q-193 -23 -424 -3l-1 53q207 -27 405 -4q-6 13 -12 27t-14.5 32t-13.5 29q-22 51 -38 76l59 11q32 -83 69 -168q115 19 207 49zM729 801l38 17q53 -76 83 -138l-38 -18q-41 82 -83 139zM835 838l38 17q53 -73 86 -137l-39 -18q-39 80 -85 138z" />
    <glyph glyph-name="Identity.390" unicode="&#x3057;" 
d="M258 768h66q-6 -34 -8 -80q-12 -345 -12 -520q0 -154 178 -154q68 0 126.5 17t102.5 49t74.5 64.5t60.5 75.5l36 -44q-159 -214 -403 -214q-226 0 -226 210q0 82 5.5 272.5t5.5 243.5q0 54 -6 80z" />
    <glyph glyph-name="Identity.391" unicode="&#x3058;" 
d="M599 681q63 -90 95 -160l-40 -19q-44 92 -95 161zM725 729q55 -73 99 -156l-41 -20q-46 92 -96 158zM245 761h66q-4 -21 -8 -80q-12 -345 -12 -520q0 -154 178 -154q69 0 127 17t102 49t74.5 64.5t60.5 75.5l36 -44q-158 -213 -403 -213q-225 0 -225 209q0 83 5 273.5
t5 242.5q0 54 -6 80z" />
    <glyph glyph-name="Identity.392" unicode="&#x3059;" 
d="M480 222q49 0 76 36t27 101q-18 94 -104 94q-46 0 -79.5 -33t-33.5 -85q0 -53 32.5 -83t81.5 -30zM606 648h35q77 0 173.5 -0.5t106.5 -0.5l-1 -50q-69 4 -279 4h-35q0 -28 0.5 -87t1.5 -83q30 -48 30 -122q0 -259 -282 -346l-46 44q225 53 267 217q-37 -48 -102 -48
q-68 0 -113 42.5t-45 115.5q0 67 48 116t113 49q47 0 81 -20q0 14 -0.5 56t-0.5 66q-278 -4 -452 -19l-1 53q401 11 452 12q0 49 -2 85q0 26 -5 49h61q-3 -24 -3 -49q-1 -11 -1.5 -40.5t-0.5 -43.5z" />
    <glyph glyph-name="Identity.393" unicode="&#x305a;" 
d="M918 692l-41 -19q-42 78 -76 123l39 17q42 -59 78 -121zM804 667l-40 -20q-43 78 -77 125l39 17q42 -58 78 -122zM452 213q49 0 76 36t27 101q-18 94 -104 94q-46 0 -79.5 -33.5t-33.5 -85.5q0 -53 32.5 -82.5t81.5 -29.5zM578 639h35q194 0 280 -2l-1 -49q-69 4 -279 4
h-35q0 -78 2 -170q30 -48 30 -122q0 -259 -282 -346l-47 44q224 53 268 216q-39 -47 -102 -47q-68 0 -113.5 42.5t-45.5 115.5q0 67 48 115.5t114 48.5q47 0 81 -20q0 14 -0.5 56.5t-0.5 66.5q-280 -4 -452 -19l-1 53q401 11 452 12q0 49 -2 85q0 28 -5 48h61
q-1 -5 -2.5 -25t-1.5 -23q-1 -19 -1 -84z" />
    <glyph glyph-name="Identity.394" unicode="&#x305b;" 
d="M666 760h57q-3 -24 -3 -63q-1 -24 -1.5 -77.5t-0.5 -77.5q108 7 129 8q14 1 36.5 2.5t30.5 1.5v-54h-17h-26.5h-24.5q-29 0 -129 -6q-7 -171 -16 -213q-5 -29 -21 -40.5t-48 -11.5q-58 0 -120 14l1 47q59 -13 103 -13q21 0 30 5.5t11 22.5q9 55 13 186q-148 -11 -344 -31
q0 -237 1 -255q3 -80 13 -103q19 -43 99 -52q30 -3 73 -3q170 0 294 21l-2 -54q-160 -17 -291 -17q-54 0 -91 4t-63 15.5t-41 25t-23.5 39.5t-11.5 51t-4 67q-1 43 -1 256q-83 -9 -129 -14q-13 -2 -89 -13l-6 56q46 0 91 5q16 1 63.5 5.5t69.5 6.5v159q0 41 -4 69h57
q-3 -25 -3 -67l-1 -156q271 26 343 32q1 52 1 158q0 39 -5 64z" />
    <glyph glyph-name="Identity.395" unicode="&#x305c;" 
d="M860 614l-39 -14q-30 85 -60 144l36 11q36 -70 63 -141zM647 746h57q-3 -26 -3 -64q-1 -23 -1.5 -77t-0.5 -78q68 6 129 9q45 2 67 4v-55q-14 1 -68 1q-66 -2 -129 -7q-8 -171 -16 -213q-5 -28 -21.5 -39.5t-47.5 -11.5q-49 0 -120 13l1 48q63 -14 103 -14q21 0 30 5.5
t11 23.5q9 55 13 185q-148 -11 -344 -31q0 -237 1 -255q3 -80 13 -103q19 -43 99 -52q30 -3 73 -3q164 0 294 22l-2 -55q-151 -16 -291 -16q-54 0 -91 4t-63 15.5t-41 25t-23.5 39t-11.5 51t-4 67.5t-1 255q-83 -9 -129 -14q-80 -11 -89 -12l-6 56q37 0 91 4q28 2 133 13
v159q0 41 -4 68h57q-3 -26 -3 -67l-1 -156q177 19 343 32q1 53 1 158q0 38 -5 65zM858 774l37 11q37 -68 64 -139l-39 -15q-32 91 -62 143z" />
    <glyph glyph-name="Identity.396" unicode="&#x305d;" 
d="M273 734q30 -3 71 -3q37 0 156.5 5.5t156.5 9.5q26 3 45 8l35 -37q-15 -8 -39 -27q-229 -192 -331 -273q303 32 501 32v-49q-166 7 -248 -6q-78 -12 -141 -72.5t-63 -133.5q0 -76 50 -111.5t131 -48.5q72 -10 138 -4l-11 -52q-175 -7 -266.5 47t-91.5 163q0 67 44 123
t97 81q-215 -19 -389 -47l-5 49q32 4 94 12t74 9q134 95 355 291q-22 -1 -145.5 -7.5t-145.5 -8.5q-55 -4 -69 -6z" />
    <glyph glyph-name="Identity.397" unicode="&#x305e;" 
d="M719 645q52 -75 80 -133l-38 -18q-38 78 -79 133zM821 682q54 -72 83 -131l-37 -19q-39 77 -81 133zM243 734q30 -3 71 -3q37 0 156 5.5t156 9.5q28 3 46 8l35 -37q-15 -8 -39 -27q-229 -192 -331 -273q303 32 500 32v-49q-166 7 -247 -6q-78 -12 -141 -72.5t-63 -133.5
q0 -76 50 -111.5t131 -48.5q71 -10 138 -4l-11 -52q-176 -7 -267.5 47t-91.5 163q0 67 44.5 123.5t97.5 80.5q-218 -19 -389 -47l-5 49q31 3 93 11t75 10q134 95 355 291q-22 -1 -145.5 -7.5t-145.5 -8.5q-55 -4 -69 -6z" />
    <glyph glyph-name="Identity.398" unicode="&#x305f;" 
d="M540 425v50q78 8 175 8q102 0 170 -8l-2 -51q-80 11 -165 11q-92 0 -178 -10zM596 651v-53q-107 -24 -213 -34q-14 -67 -32 -134q-29 -114 -73.5 -246t-80.5 -205l-59 19q42 73 87 198.5t76 243.5q12 43 29 119q-63 -5 -106 -5q-63 0 -112 4l-1 52q57 -8 115 -8
q52 0 115 6q14 71 19 104q6 43 3 70l64 -5q-9 -35 -15 -70q-2 -9 -19 -94q110 13 203 38zM495 244l50 -5q-15 -53 -15 -93q0 -46 36.5 -73.5t145.5 -27.5q100 0 187 19l-2 -54q-91 -14 -186 -14q-230 0 -230 140q0 40 14 108z" />
    <glyph glyph-name="Identity.399" unicode="&#x3060;" 
d="M833 595l-38 -19q-37 76 -83 139l38 17q48 -68 83 -137zM510 409v50q78 8 175 8q102 0 170 -8l-2 -51q-87 12 -165 12q-84 0 -178 -11zM566 635v-53q-107 -24 -213 -34q-14 -67 -32 -134q-29 -113 -73.5 -245t-80.5 -206l-59 19q42 73 87 198.5t76 243.5q14 49 29 119
q-63 -5 -106 -5q-63 0 -112 4l-1 52q50 -7 115 -7q45 0 115 5q14 71 19 104q6 43 3 70l64 -5q-10 -36 -15 -69l-9.5 -47.5t-9.5 -46.5q117 14 203 37zM465 228l50 -5q-15 -53 -15 -93q0 -46 36.5 -73.5t145.5 -27.5q100 0 187 19l-2 -54q-91 -14 -186 -14q-230 0 -230 140
q0 40 14 108zM818 753l37 17q52 -69 87 -137l-39 -18q-41 81 -85 138z" />
    <glyph glyph-name="Identity.400" unicode="&#x3061;" 
d="M776 675v-52q-182 -34 -406 -43q-40 -190 -72 -269q67 53 136 76t160 23q115 0 177.5 -51.5t62.5 -135.5q0 -96 -64.5 -157t-174.5 -81t-257 -4l-14 52q121 -13 223 -3.5t169 59.5t67 132q0 64 -50.5 104t-142.5 40q-93 0 -173 -30.5t-131 -90.5q-15 -16 -32 -47l-48 19
q68 135 116 363h-22q-85 0 -178 10v52q83 -15 177 -15h32q7 35 13 78q5 45 4 71l60 -3q-10 -35 -15 -73q-8 -47 -13 -71q226 9 396 47z" />
    <glyph glyph-name="Identity.401" unicode="&#x3062;" 
d="M744 653v-52q-186 -33 -405 -42q-41 -189 -70 -259q67 53 136 76t161 23q115 0 177.5 -51.5t62.5 -135.5q0 -96 -64.5 -157t-175 -81t-257.5 -4l-13 52q88 -14 170.5 -8t146.5 26t103 64t39 106q0 64 -50.5 104t-142.5 40q-93 0 -173 -31t-131 -90q-20 -22 -33 -47
l-47 19q66 133 113 353h-20q-84 0 -177 10l-1 52q83 -15 177 -15h31q7 34 14 88q5 45 4 71l60 -3q-6 -21 -15 -73q-2 -11 -7.5 -40.5t-7.5 -40.5q227 8 395 46zM720 781l39 17q50 -72 83 -138l-39 -18q-35 74 -83 139zM827 818l37 17q56 -76 86 -137l-38 -18q-46 89 -85 138
z" />
    <glyph glyph-name="Identity.402" unicode="&#x3063;" 
d="M174 387q38 8 85 23q6 2 50.5 17t72 23t71 19.5t82 17.5t70.5 6q100 0 165.5 -56.5t65.5 -149.5q0 -72 -34 -127t-96 -89.5t-138.5 -53.5t-169.5 -25l-21 51q83 3 152.5 17t129 41.5t93 75t33.5 111.5q0 68 -50.5 113t-131.5 45q-36 0 -84.5 -9.5t-100 -26t-91.5 -30.5
t-82 -30t-48 -18z" />
    <glyph glyph-name="Identity.403" unicode="&#x3064;" 
d="M88 507q30 6 102 28l61.5 20.5t86.5 27.5t86.5 24t100 21t88.5 7q120 0 200 -66.5t80 -180.5q0 -88 -42.5 -156t-118 -109.5t-167.5 -64.5t-202 -29l-22 54q100 3 185.5 20.5t157 52t112.5 94.5t41 139q0 85 -60.5 141.5t-164.5 56.5q-48 0 -109.5 -11.5t-124 -31
t-109.5 -36t-98 -36.5t-58 -23z" />
    <glyph glyph-name="Identity.404" unicode="&#x3065;" 
d="M748 773q52 -72 84 -139l-38 -18q-36 74 -83 140zM854 810q52 -70 86 -137l-38 -18q-46 89 -85 138zM77 489q33 5 101 27q11 3 62 20.5t86 27.5t87 24t99.5 21t88.5 7q120 0 200 -66.5t80 -179.5q0 -71 -28.5 -129.5t-77 -98.5t-117 -68.5t-144 -43.5t-162.5 -20l-22 54
q79 3 149 14t134.5 34t111 57t74 85.5t27.5 115.5q0 86 -60.5 142t-164.5 56q-49 0 -110 -11.5t-124.5 -31.5t-109.5 -36t-98 -36.5t-57 -22.5z" />
    <glyph glyph-name="Identity.405" unicode="&#x3066;" 
d="M97 650q45 1 83 5q209 23 437 42q153 14 259 17v-52q-136 2 -195 -17q-108 -38 -172.5 -138t-64.5 -196q0 -75 32.5 -131t86.5 -86t112.5 -44.5t122.5 -16.5l-18 -52q-67 2 -132 20.5t-123.5 55t-94.5 99.5t-36 144q0 114 60.5 209.5t145.5 140.5q-12 -1 -134 -13.5
t-219.5 -24.5t-143.5 -21z" />
    <glyph glyph-name="Identity.406" unicode="&#x3067;" 
d="M726 519q50 -70 85 -141l-38 -18q-38 79 -83 143zM834 559q50 -67 88 -141l-37 -19q-35 74 -86 143zM88 642q46 1 84 5q11 1 89 9t172.5 17t175.5 16q181 15 259 17v-53q-136 2 -195 -17q-108 -37 -172.5 -137t-64.5 -196q0 -61 22 -109.5t57 -79t82.5 -51t94.5 -29
t97 -10.5l-18 -51q-67 1 -132 20t-123 55t-94 99.5t-36 143.5q0 115 60 210.5t145 139.5q-419 -43 -496 -59z" />
    <glyph glyph-name="Identity.407" unicode="&#x3068;" 
d="M751 650l29 -47q-20 -12 -62 -35q-6 -3 -82 -41.5t-132.5 -70t-101.5 -61.5q-153 -100 -153 -212q0 -68 64 -107.5t186 -39.5q194 0 314 32l-1 -58q-126 -24 -310 -24q-141 0 -223 47t-82 144q0 139 175 255q-55 96 -147 310l52 22q62 -168 137 -304q58 35 161 88.5
t118 62.5q44 27 58 39z" />
    <glyph glyph-name="Identity.408" unicode="&#x3069;" 
d="M712 625l27 -47q-33 -20 -61 -34q-17 -9 -78.5 -40.5t-114.5 -61t-98 -59.5q-153 -100 -153 -212q0 -68 64 -107t186 -39q198 0 314 31v-58q-138 -24 -311 -24q-141 0 -223 47.5t-82 144.5q0 139 175 254q-55 96 -147 310l52 22q60 -164 138 -304q42 26 90 52.5t98.5 52
t66.5 34.5q45 27 57 38zM724 745l38 17q53 -77 83 -139l-38 -18q-39 81 -83 140zM830 782l38 17q50 -66 85 -137l-38 -18q-46 89 -85 138z" />
    <glyph glyph-name="Identity.409" unicode="&#x306a;" 
d="M566 660l2 -51q-91 -24 -184 -37q-37 -106 -97.5 -222t-120.5 -194l-52 28q60 68 120.5 177t96.5 205q-48 -4 -107 -4q-43 0 -111 2l-4 52q51 -6 116 -6q68 0 122 5q32 108 34 175l60 -6q-3 -10 -17 -69.5t-24 -92.5q86 11 166 38zM635 106q0 39 -1 62q-54 17 -113 17
q-60 0 -98 -25t-38 -64q0 -86 131 -86q61 0 90 28t29 68zM622 480h53q-3 -38 -1 -95q0 -6 8 -184q99 -35 204 -122l-28 -44q-89 79 -174 115q1 -21 1 -56q0 -57 -42.5 -94.5t-121.5 -37.5q-82 0 -133.5 32.5t-51.5 97.5q0 64 54.5 100.5t130.5 36.5q56 0 111 -13
q-1 29 -5 125t-5 139zM669 601l25 40q53 -24 121 -63.5t103 -66.5l-30 -44q-34 32 -98 70t-121 64z" />
    <glyph glyph-name="Identity.410" unicode="&#x306b;" 
d="M461 660q79 -14 199.5 -13t195.5 13v-54q-73 -9 -197 -9t-198 9v54zM428 272l48 -5q-15 -55 -15 -95q0 -100 183 -100q133 0 243 26l1 -55q-100 -20 -241 -20q-234 0 -234 140q0 36 15 109zM192 747l60 -5q-12 -47 -14 -54q-50 -243 -50 -389q0 -77 11 -179q25 72 62 168
l32 -24q-58 -149 -70 -209q-5 -25 -4 -43q0 -3 1 -14.5t2 -16.5l-47 -4q-35 126 -35 316q0 50 6 114.5t12 104t17 106t12 74.5q5 35 5 55z" />
    <glyph glyph-name="Identity.411" unicode="&#x306c;" 
d="M640 46q100 0 147 105q-68 45 -142 45q-49 0 -75.5 -22t-26.5 -52q0 -35 25.5 -55.5t71.5 -20.5zM457 382q29 79 45 201q-133 -23 -233 -122q24 -60 47 -111q33 -70 69 -121q40 68 72 153zM204 79q75 0 152 106q-43 58 -77 130q-17 36 -45 107q-24 -31 -27 -37
q-68 -106 -68 -210q0 -43 19.5 -69.5t45.5 -26.5zM566 696l-7 -62q8 1 26 1q118 0 202.5 -76t84.5 -206q0 -109 -25 -185q46 -34 104 -98l-33 -41q-46 56 -90 92q-59 -121 -187 -121q-67 0 -106 32t-39 87q0 50 42.5 85.5t105.5 35.5q83 0 159 -44q19 69 19 156
q0 99 -63.5 168.5t-176.5 69.5q-20 0 -29 -1q-21 -139 -52 -226q-53 -146 -130.5 -240.5t-165.5 -94.5q-49 0 -81.5 39t-32.5 102q0 131 80 244q19 29 45 57q-15 40 -34 94q-18 60 -34 95l51 20q16 -73 53 -173q114 102 256 123q3 20 7 64q3 42 -1 78l62 -2q0 -1 -10 -73z
" />
    <glyph glyph-name="Identity.412" unicode="&#x306d;" 
d="M641 50q111 0 147 122q-74 43 -154 43q-43 0 -75.5 -23.5t-32.5 -56.5q0 -42 32 -63.5t83 -21.5zM358 625l23 -25q-4 -6 -18.5 -29t-21.5 -35q-4 -49 -5 -71q195 174 330 174q94 0 143.5 -77.5t49.5 -198.5q0 -102 -14 -169q55 -37 115 -101l-29 -42q-51 56 -99 92
q-47 -140 -188 -140q-71 0 -117.5 32t-46.5 97q0 55 45 91t114 36q85 0 161 -38q10 59 10 157q0 99 -43.5 157t-109.5 58t-159 -58t-166 -135q-5 -88 -5 -146q0 -164 3 -229l3 -51h-58q3 15 3 50q1 49 1.5 118t0.5 117q0 16 4 102q-64 -96 -184 -265l-34 45q43 54 116 155
t107 155q1 18 3.5 56t4.5 57q-23 -3 -96.5 -13t-104.5 -14l-5 55q18 -1 52 1q92 8 157 19q1 20 2.5 46.5t2.5 40t1 18.5q0 42 -3 64l64 -3q-6 -31 -19 -156z" />
    <glyph glyph-name="Identity.413" unicode="&#x306e;" 
d="M436 371q40 131 56 282q-146 -13 -241.5 -116.5t-95.5 -221.5q0 -95 37 -146.5t78 -51.5q38 0 82.5 62t83.5 192zM525 -17l-30 49q48 3 80 11q51 11 96.5 34.5t84.5 60t62.5 92t23.5 122.5q0 123 -80 209t-217 93q-20 -164 -59 -294q-87 -300 -218 -300q-62 0 -112.5 69
t-50.5 182q0 103 56 193t153.5 144t211.5 54q164 0 266 -102t102 -249q0 -154 -99 -251t-270 -117z" />
    <glyph glyph-name="Identity.414" unicode="&#x306f;" 
d="M183 761l59 -6q-7 -19 -13 -53q-51 -237 -51 -408q0 -80 12 -178q27 81 63 169l31 -24q-59 -155 -70 -208q-5 -24 -4 -43q0 -4 1 -15t2 -15l-47 -4q-35 133 -35 312q0 41 3 87.5t10 100t11.5 85t13 86.5t9.5 59q5 35 5 55zM690 147q0 26 -1 43q-54 18 -114 18
q-62 0 -102 -25.5t-40 -64.5q0 -41 36.5 -65t98.5 -24q68 0 95 30t27 88zM935 93l-28 -43q-87 82 -168 121q1 -14 1 -40q0 -28 -7 -52.5t-23.5 -47.5t-49.5 -36.5t-79 -13.5q-95 0 -145.5 35.5t-50.5 97.5q0 57 52 97.5t143 40.5q53 0 107 -13q-10 217 -11 284
q-72 -2 -109 -2q-62 0 -162 7v49q88 -8 164 -8q37 0 107 2q0 99 1 131q0 34 -3 58h60q-5 -31 -6 -57q-2 -31 -2 -129q109 9 180 23v-51q-93 -14 -180 -20q0 -31 12 -303q87 -34 197 -130z" />
    <glyph glyph-name="Identity.415" unicode="&#x3070;" 
d="M866 640l-41 -15q-24 74 -60 144l38 12q33 -64 63 -141zM161 751l60 -6q-9 -24 -14 -53q-19 -90 -34.5 -208t-15.5 -200q0 -91 12 -179q26 80 63 170l30 -24q-58 -155 -69 -208q-6 -27 -5 -43q0 -5 2 -16t2 -15l-47 -4q-36 138 -36 312q0 50 6 117t12.5 112.5t16.5 111
t12 78.5q5 35 5 55zM669 137q0 26 -1 43q-54 18 -114 18q-63 0 -103 -25.5t-40 -64.5q0 -41 36.5 -65t98.5 -24q69 0 96 30t27 88zM884 587v-51q-90 -14 -180 -20q0 -32 12 -303q89 -35 197 -131l-28 -42q-87 82 -168 120q1 -14 1 -39q0 -28 -7 -52.5t-23.5 -47.5
t-49.5 -36.5t-79 -13.5q-95 0 -145 35.5t-50 97.5q0 57 51.5 97.5t142.5 40.5q54 0 108 -13q-10 217 -11 284q-56 -3 -110 -3q-27 0 -162 7v50q90 -8 164 -8q36 0 108 2v131q0 42 -3 58h60q-5 -31 -6 -57q-2 -31 -2 -129q97 6 180 23zM863 798l38 12q35 -64 64 -139l-40 -15
q-33 91 -62 142z" />
    <glyph glyph-name="Identity.416" unicode="&#x3071;" 
d="M161 751l60 -6q-9 -24 -14 -53q-19 -90 -34.5 -208t-15.5 -200q0 -91 12 -179q26 80 63 170l30 -24q-58 -155 -69 -208q-6 -27 -5 -43q0 -5 2 -16t2 -15l-47 -4q-36 138 -36 312q0 50 6 117t12.5 112.5t16.5 111t12 78.5q5 35 5 55zM669 137q0 26 -1 43q-54 18 -114 18
q-63 0 -103 -25.5t-40 -64.5q0 -41 36.5 -65t98.5 -24q69 0 96 30t27 88zM884 587v-51q-90 -14 -180 -20q0 -32 12 -303q89 -35 197 -131l-28 -42q-87 82 -168 120q1 -14 1 -39q0 -28 -7 -52.5t-23.5 -47.5t-49.5 -36.5t-79 -13.5q-95 0 -145 35.5t-50 97.5q0 57 51.5 97.5
t142.5 40.5q54 0 108 -13q-10 217 -11 284q-56 -3 -110 -3q-27 0 -162 7v50q90 -8 164 -8q36 0 108 2v131q0 42 -3 58h60q-5 -31 -6 -57q-2 -31 -2 -129q97 6 180 23zM867 661q28 0 47.5 19t19.5 46q0 28 -19.5 48t-47.5 20t-47 -19.5t-19 -48.5q0 -27 19 -46t47 -19z
M867 830q43 0 73.5 -30.5t30.5 -73.5q0 -42 -30.5 -72t-73.5 -30t-72.5 30t-29.5 72q0 44 29.5 74t72.5 30z" />
    <glyph glyph-name="Identity.417" unicode="&#x3072;" 
d="M934 315l-40 -41q-88 107 -142 221q11 -101 -3.5 -195t-53 -170.5t-108.5 -122t-163 -45.5q-116 0 -181 68.5t-65 184.5q0 124 58.5 239t133.5 189q-26 -5 -184 -32q-9 -2 -28 -6t-26 -5l-7 58q24 0 51 3q64 6 167.5 24t140.5 33l16 -49q-6 -2 -26.5 -7.5t-27.5 -8.5
q-25 -18 -60 -59.5t-71.5 -98.5t-61.5 -131t-25 -142q0 -107 56 -157.5t142 -50.5q161 0 239.5 170.5t33.5 441.5q-16 43 -26 81l51 15q20 -103 72 -212.5t138 -194.5z" />
    <glyph glyph-name="Identity.418" unicode="&#x3073;" 
d="M870 628l-39 -16q-40 91 -71 140l36 14q53 -93 74 -138zM656 691l51 16q20 -103 71.5 -212.5t137.5 -194.5l-39 -41q-86 105 -143 222q11 -101 -3.5 -195.5t-53 -170.5t-108.5 -122t-163 -46q-115 0 -180 68.5t-65 184.5q0 124 58.5 238.5t133.5 189.5q-31 -6 -99 -18
t-86 -15q-7 -1 -24.5 -4.5t-28.5 -5.5l-8 58q24 0 52 3q64 6 167.5 24t140.5 33l15 -49q-6 -2 -26.5 -7.5t-27.5 -8.5q-25 -18 -59.5 -59.5t-71 -99t-61.5 -131t-25 -141.5q0 -107 56 -157.5t141 -50.5q106 0 179 77t98 212.5t-3 319.5q-15 44 -26 83zM859 790l36 15
q42 -68 76 -136l-39 -17q-40 90 -73 138z" />
    <glyph glyph-name="Identity.419" unicode="&#x3074;" 
d="M656 691l51 16q20 -103 71.5 -212.5t137.5 -194.5l-39 -41q-86 105 -143 222q11 -101 -3.5 -195.5t-53 -170.5t-108.5 -122t-163 -46q-115 0 -180 68.5t-65 184.5q0 124 58.5 238.5t133.5 189.5q-31 -6 -99 -18t-86 -15q-7 -1 -24.5 -4.5t-28.5 -5.5l-8 58q24 0 52 3
q64 6 167.5 24t140.5 33l15 -49q-6 -2 -26.5 -7.5t-27.5 -8.5q-25 -18 -59.5 -59.5t-71 -99t-61.5 -131t-25 -141.5q0 -107 56 -157.5t141 -50.5q106 0 179 77t98 212.5t-3 319.5q-15 44 -26 83zM870 629q29 0 49.5 20.5t20.5 49.5q0 30 -20.5 50.5t-49.5 20.5t-49.5 -20.5
t-20.5 -50.5q0 -29 20 -49.5t50 -20.5zM870 806q44 0 75.5 -31.5t31.5 -75.5q0 -43 -31.5 -74.5t-75.5 -31.5q-45 0 -76 31t-31 75t31 75.5t76 31.5z" />
    <glyph glyph-name="Identity.420" unicode="&#x3075;" 
d="M557 506l-33 33q47 29 72 53q-70 60 -219 125l31 40q157 -72 237 -137l13 -37q-33 -28 -101 -77zM327 2l-7 55q75 -22 164 -22q41 0 74.5 21t33.5 71q0 77 -135 230l-73 73l39 34q13 -13 67 -75q74 -79 114 -142.5t40 -124.5q0 -41 -16 -69.5t-42 -42t-49.5 -19
t-47.5 -5.5q-78 0 -162 16zM951 67l-47 -25q-25 74 -74 163t-98 141l43 25q51 -58 100.5 -146t75.5 -158zM339 237q-48 -49 -119 -105t-135 -93l-31 43q60 31 136.5 89.5t117.5 104.5z" />
    <glyph glyph-name="Identity.421" unicode="&#x3076;" 
d="M756 655q51 -71 84 -138l-39 -19q-31 67 -83 140zM862 692q54 -72 86 -136l-38 -19q-43 85 -85 138zM530 498l-33 34q45 26 72 52q-70 60 -219 125l31 40q157 -72 237 -137l13 -37q-33 -28 -101 -77zM300 -6l-7 55q75 -22 164 -22q41 0 74.5 21.5t33.5 71.5
q0 78 -135 229q-32 34 -73 73l39 34q4 -4 68 -74q74 -81 113.5 -144.5t39.5 -123.5q0 -41 -16 -69.5t-42 -42t-49 -19t-47 -5.5q-79 0 -163 16zM924 59l-47 -25q-25 74 -74 163t-98 141l43 25q51 -58 100.5 -146t75.5 -158zM312 230q-48 -49 -118.5 -105.5t-135.5 -93.5
l-31 43q60 32 136.5 90.5t117.5 103.5z" />
    <glyph glyph-name="Identity.422" unicode="&#x3077;" 
d="M763 594q0 -29 21 -50t50 -21q30 0 51 21t21 50q0 30 -21 51.5t-51 21.5q-29 0 -50 -22t-21 -51zM726 594q0 46 31.5 77.5t76.5 31.5t77 -31.5t32 -77.5q0 -45 -32 -76.5t-77 -31.5t-76.5 31.5t-31.5 76.5zM530 498l-33 34q45 26 72 52q-70 60 -219 125l31 40
q157 -72 237 -137l13 -37q-33 -28 -101 -77zM300 -6l-7 55q75 -22 164 -22q41 0 74.5 21.5t33.5 71.5q0 78 -135 229q-32 34 -73 73l39 34q4 -4 68 -74q74 -81 113.5 -144.5t39.5 -123.5q0 -41 -16 -69.5t-42 -42t-49 -19t-47 -5.5q-79 0 -163 16zM924 59l-47 -25
q-25 74 -74 163t-98 141l43 25q51 -58 100.5 -146t75.5 -158zM312 230q-48 -49 -118.5 -105.5t-135.5 -93.5l-31 43q60 32 136.5 90.5t117.5 103.5z" />
    <glyph glyph-name="Identity.423" unicode="&#x3078;" 
d="M70 264q22 16 65 59q25 26 59.5 67.5t81 102t58.5 75.5q40 47 75.5 50.5t83.5 -42.5q20 -22 89.5 -103.5t106.5 -120.5q155 -171 249 -254l-39 -44q-93 87 -244 255q-34 38 -100 116.5t-88 102.5q-37 35 -55 33.5t-46 -36.5q-149 -190 -193 -242q-39 -45 -55 -67z" />
    <glyph glyph-name="Identity.424" unicode="&#x3079;" 
d="M682 667q61 -91 96 -160l-42 -19q-41 87 -94 161zM808 715q56 -75 99 -157l-40 -19q-57 106 -97 158zM60 245q28 20 65 59q25 25 61 69t78.5 98.5t60.5 76.5q39 48 74.5 51.5t83.5 -43.5q24 -26 92.5 -106.5t103.5 -117.5q169 -183 249 -254l-39 -44q-79 75 -244 256
q-26 29 -94 110t-94 108q-36 36 -54.5 34.5t-46.5 -37.5q-5 -7 -83 -105.5t-110 -135.5q-15 -16 -55 -68z" />
    <glyph glyph-name="Identity.425" unicode="&#x307a;" 
d="M690 585q0 -33 23 -56.5t57 -23.5q33 0 56 23.5t23 56.5q0 32 -23 55.5t-56 23.5q-34 0 -57 -23t-23 -56zM653 585q0 48 34 82.5t83 34.5q48 0 82.5 -34.5t34.5 -82.5q0 -49 -34.5 -83.5t-82.5 -34.5q-49 0 -83 34.5t-34 83.5zM60 245q28 20 65 59q25 25 61 69t78.5 98.5
t60.5 76.5q39 48 74.5 51.5t83.5 -43.5q24 -26 92.5 -106.5t103.5 -117.5q169 -183 249 -254l-39 -44q-79 75 -244 256q-26 29 -94 110t-94 108q-36 36 -54.5 34.5t-46.5 -37.5q-5 -7 -83 -105.5t-110 -135.5q-15 -16 -55 -68z" />
    <glyph glyph-name="Identity.426" unicode="&#x307b;" 
d="M183 753l60 -5q-10 -31 -14 -53q-50 -235 -50 -401q0 -92 12 -179q26 80 63 170l30 -24q-62 -172 -69 -208q-5 -24 -4 -43q0 -6 3 -30l-47 -4q-36 130 -36 312q0 40 3.5 87t10 97.5t11 83.5t13 83t9.5 59q5 35 5 55zM676 137q0 8 -2 50q-51 14 -102 14q-60 0 -97 -22.5
t-37 -58.5q0 -84 133 -84q60 0 82.5 26.5t22.5 74.5zM904 488v-49q-100 -11 -194 -15q1 -29 9 -202q109 -34 214 -130l-28 -46q-84 86 -184 126q2 -50 2 -64q0 -56 -40 -87t-111 -31q-82 0 -131.5 33.5t-49.5 95.5q0 50 46 88t136 38q47 0 99 -10q-7 139 -8 187
q-135 -5 -247 2v49q119 -9 246 -4v185q-137 -5 -231 0v48q213 -17 448 14v-48q-64 -7 -170 -12v-185q103 6 194 17z" />
    <glyph glyph-name="Identity.427" unicode="&#x307c;" 
d="M155 738l59 -5q-6 -18 -14 -52q-50 -235 -50 -401q0 -92 12 -179q17 51 63 170l30 -24q-60 -166 -69 -208q-5 -25 -4 -43q1 -5 2.5 -16t1.5 -14l-48 -4q-35 126 -35 312q0 126 47 411q5 33 5 53zM648 122q0 9 -2 51q-53 14 -103 14q-59 0 -96 -22.5t-37 -58.5
q0 -42 34.5 -63t96.5 -21q61 0 84 26.5t23 73.5zM875 474v-49q-100 -11 -193 -15q1 -32 9 -203q110 -35 214 -129l-29 -46q-82 85 -183 126q2 -52 2 -64q0 -57 -40.5 -87.5t-111.5 -30.5q-82 0 -131 33t-49 96q0 50 45.5 87.5t135.5 37.5q48 0 100 -10q-8 112 -9 188
q-130 -5 -247 1v50q119 -9 246 -4v184q-121 -5 -230 1v48q204 -16 402 9q-20 46 -29 63l36 12q40 -77 63 -141l-38 -14q-3 9 -16 42v-8q-75 -7 -140 -10v-184q102 6 193 17zM875 790l37 13q32 -59 64 -141l-39 -14q-33 91 -62 142z" />
    <glyph glyph-name="Identity.428" unicode="&#x307d;" 
d="M155 738l59 -5q-6 -18 -14 -52q-50 -235 -50 -401q0 -92 12 -179q17 51 63 170l30 -24q-60 -166 -69 -208q-5 -25 -4 -43q1 -5 2.5 -16t1.5 -14l-48 -4q-35 126 -35 312q0 128 47 410q3 18 5 54zM648 122q0 9 -2 51q-53 14 -103 14q-59 0 -96 -22.5t-37 -58.5
q0 -42 34.5 -63t96.5 -21q61 0 84 26.5t23 73.5zM886 816q-28 0 -47 -19.5t-19 -47.5t19 -47t47 -19t48 19t20 47t-20 47.5t-48 19.5zM809 682v-33q-56 -6 -127 -9v-183q102 6 193 17v-49q-100 -11 -193 -15q1 -32 9 -203q110 -35 214 -129l-29 -46q-82 85 -183 126
q2 -52 2 -64q0 -57 -40.5 -87.5t-111.5 -30.5q-82 0 -131 33t-49 96q0 50 45.5 87.5t135.5 37.5q48 0 100 -10q-8 112 -9 188q-130 -5 -247 1v50q119 -9 246 -4v183q-107 -4 -230 2v48q197 -17 395 8q-15 22 -15 53q0 43 29.5 73t72.5 30t73.5 -30t30.5 -73t-30.5 -72.5
t-73.5 -29.5q-47 0 -77 35z" />
    <glyph glyph-name="Identity.429" unicode="&#x307e;" 
d="M514 108q0 9 -0.5 36t-0.5 44q-52 11 -103 11q-79 0 -123 -26.5t-44 -66.5q0 -92 157 -92q114 0 114 94zM855 67l-29 -46q-124 112 -262 154q2 -62 2 -74q0 -54 -37.5 -93.5t-125.5 -39.5q-101 0 -154.5 34t-53.5 101q0 64 59.5 102.5t161.5 38.5q47 0 95 -8
q-1 68 -5 159q-19 -1 -58 -1q-125 0 -255 14l1 51q114 -19 254 -19q38 0 57 1v165q-17 -1 -51 -1q-117 0 -243 15v51q100 -19 242 -19h52v76q0 34 -2 54h56q-4 -32 -5 -64v-64q136 5 264 25v-50q-197 -18 -264 -22v-165q145 6 282 28v-50q-131 -19 -281 -24q0 -28 6 -172
q149 -39 294 -157z" />
    <glyph glyph-name="Identity.430" unicode="&#x307f;" 
d="M269 138q14 18 31 49.5t29 58t31.5 70.5t29.5 65q-116 -6 -185 -65t-69 -137q0 -35 20 -55.5t48 -20.5q36 0 65 35zM937 232l-23 -54q-55 46 -116 84q-29 -106 -91.5 -180.5t-173.5 -129.5l-43 36q207 85 264 299q-156 85 -311 93q-96 -220 -131 -269q-43 -59 -108 -59
q-50 0 -83 34t-33 88q0 108 91.5 180.5t233.5 73.5q109 236 116 251q-187 -9 -225 -11q-49 -4 -69 -7l-3 57q24 -2 69 -2q87 0 234 11q21 1 37 8l34 -28q-21 -27 -22 -29q-10 -15 -25.5 -46t-28 -58.5t-34 -75.5t-32.5 -72q147 -11 302 -89q9 49 12 98q2 44 1 81l53 -6
q-7 -122 -22 -196q65 -36 127 -82z" />
    <glyph glyph-name="Identity.431" unicode="&#x3080;" 
d="M163 283q0 -45 22 -71t55 -26q44 0 66 46.5t22 109.5q0 38 -18 61.5t-46 23.5q-41 0 -71 -41t-30 -103zM755 258l55 -18q3 -70 2 -101q-3 -68 -31.5 -101.5t-88.5 -48.5q-74 -18 -199 -18q-130 0 -175 24t-45 84q0 25 2 65q-18 -6 -41 -6q-43 0 -80 35.5t-37 109.5
q0 73 42 130.5t108 57.5q20 0 38 -6v119q-15 -1 -43 -1q-90 0 -156 10l-2 50q85 -14 155 -14q30 0 46 1v75q0 54 -5 75h59q-5 -28 -5 -75v-71q95 10 197 36v-51q-92 -22 -197 -32v-160q23 -34 23 -81q0 -113 -53 -170q-2 -48 -2 -75q0 -34 10.5 -49.5t47.5 -24t116 -8.5
q113 0 177 17q43 13 65.5 38.5t22.5 77.5q0 63 -6 106zM680 642l33 34q43 -30 100 -83.5t90 -95.5l-37 -37q-32 43 -87.5 96.5t-98.5 85.5z" />
    <glyph glyph-name="Identity.432" unicode="&#x3081;" 
d="M426 265l5 8q74 122 126 302q-130 0 -242 -75q42 -117 78 -179q17 -31 33 -56zM232 96q72 0 164 125q-22 33 -39 64q-38 67 -82 185q-57 -49 -91.5 -119t-34.5 -134q0 -57 22.5 -89t60.5 -32zM593 770l58 -5q-3 -12 -8 -35t-6 -29q-4 -23 -19 -84q121 -17 196.5 -101
t75.5 -208q0 -141 -93.5 -229.5t-257.5 -109.5l-32 45q153 14 242.5 91.5t89.5 203.5q0 104 -64 176.5t-170 86.5q-65 -226 -142 -338l-8 -12q31 -44 64 -75l-39 -33q-26 29 -55 67q-101 -135 -196 -135q-56 0 -92 44.5t-36 123.5q0 84 44 166t113 136q-17 49 -32 98
q-20 64 -28 82l55 17q3 -12 9.5 -41t9.5 -42q15 -50 27 -85q123 76 265 76h6q11 39 19 85q5 39 4 64z" />
    <glyph glyph-name="Identity.433" unicode="&#x3082;" 
d="M692 406l59 11q104 -106 104 -224q0 -107 -86.5 -166.5t-227.5 -59.5q-101 0 -165 51.5t-64 162.5q0 43 8 123q-130 9 -217 37l3 51q85 -31 219 -40q6 58 24 203q-125 9 -221 34l4 50q98 -30 223 -37q6 43 13 117q3 30 0 59l61 -4q-7 -30 -10 -58q-2 -13 -7 -52.5
t-8 -63.5h6q122 0 206 12l-1 -50q-99 -9 -205 -9h-12q-15 -109 -25 -203h25q123 0 211 12l-1 -51q-91 -10 -205 -10h-35q-7 -79 -7 -113q0 -79 45 -125t134 -46q120 0 192 47.5t72 133.5q0 52 -28.5 107.5t-83.5 100.5z" />
    <glyph glyph-name="Identity.434" unicode="&#x3083;" 
d="M566 525l-36 -30q-47 51 -107 94l36 29q63 -46 107 -93zM218 525l53 21q8 -19 21 -40q22 -39 54 -105q211 91 300 91q88 0 134 -42.5t46 -108.5q0 -71 -47.5 -113.5t-140.5 -42.5q-61 0 -122 24l3 49q60 -28 118 -28q76 0 108.5 32t32.5 80q0 42 -31 73t-102 31
q-86 0 -279 -87q16 -32 38 -82q53 -118 119 -327l-52 -15q-59 208 -110 323q-6 14 -18.5 41t-18.5 41q-31 -15 -89.5 -43.5t-78.5 -37.5l-27 54q33 7 59 18q12 5 29.5 12.5t43 19t43.5 19.5q-35 71 -50 94q-21 33 -36 49z" />
    <glyph glyph-name="Identity.435" unicode="&#x3084;" 
d="M589 679l-37 -32q-77 75 -129 113l37 29q76 -57 129 -110zM176 684l54 21q13 -29 33 -59q24 -46 63 -125q247 110 364 110q96 0 151.5 -47.5t55.5 -126.5q0 -82 -53 -134t-164 -52q-71 0 -145 28l2 52q68 -32 142 -32q89 0 128 40t39 100q0 53 -39.5 89t-117.5 36
q-111 0 -342 -105q30 -64 44 -95q57 -127 148 -407l-57 -16q-69 251 -136 403q-33 72 -43 94q-28 -13 -100.5 -48.5t-99.5 -47.5l-27 56q31 8 72 24q44 17 134 59q-36 75 -65 121q-14 27 -41 62z" />
    <glyph glyph-name="Identity.436" unicode="&#x3085;" 
d="M598 104q97 0 148.5 51.5t51.5 135.5q0 76 -48 124t-146 48q7 -77 7 -141q0 -130 -31 -217q6 -1 18 -1zM599 508h5q116 0 178.5 -61t62.5 -153q0 -104 -63 -170.5t-188 -66.5q-11 0 -33 2q-41 -84 -121 -132l-45 29q78 41 119 115q-95 33 -142 132l28 38
q45 -100 134 -128q31 83 31 210q0 63 -6 137q-106 -15 -181.5 -90.5t-97.5 -167.5q-8 -29 -7 -56q4 -45 13 -77l-45 -7q-27 96 -27 202q0 74 23 267q3 18 1 34l57 -5q-3 -8 -9 -32q-10 -51 -19 -138.5t-6 -135.5q33 99 113.5 167t178.5 83q-3 26 -10 56q-8 32 -12 43l52 2
q10 -46 16 -97z" />
    <glyph glyph-name="Identity.437" unicode="&#x3086;" 
d="M609 598h-5q8 -85 8 -170q0 -161 -36 -268q9 -1 26 -1q109 0 176 61t67 167q0 91 -61.5 151t-174.5 60zM599 644h9q132 0 209 -72.5t77 -181.5q0 -123 -76 -201.5t-220 -78.5q-20 0 -41 3q-48 -103 -146 -164l-47 29q97 51 144 146q-118 38 -176 158l33 37
q56 -122 163 -151q37 102 37 259q0 89 -8 167q-127 -17 -218 -108t-121 -205q-9 -39 -8 -69q4 -49 14 -90l-45 -8q-31 112 -31 245q0 39 4 90t7.5 85.5t9.5 80.5t7 53q1 22 0 39l57 -5q-1 -4 -4 -17t-5 -22q-13 -65 -23.5 -171.5t-5.5 -164.5q37 124 135.5 209.5
t221.5 103.5q-6 43 -15 85q-4 28 -14 55l54 2q13 -52 22 -138z" />
    <glyph glyph-name="Identity.438" unicode="&#x3087;" 
d="M475 77q0 13 -2 67q-34 7 -73 7q-70 0 -111.5 -20t-41.5 -60q0 -33 36 -54.5t101 -21.5q45 0 68 22t23 60zM514 411v-42q0 -36 7 -190q142 -35 257 -139l-27 -46q-98 98 -228 138q2 -54 2 -70q0 -48 -34.5 -80t-101.5 -32q-87 0 -138 31.5t-51 88.5q0 58 53 91t151 33
q31 0 68 -5q-6 124 -6 182v169q0 56 -6 72h59q-5 -20 -5 -71v-85q169 5 256 17l1 -46q-88 -11 -257 -16z" />
    <glyph glyph-name="Identity.439" unicode="&#x3088;" 
d="M481 123q0 15 -2 79q-53 11 -105 11q-87 0 -134.5 -27.5t-47.5 -74.5q0 -44 44 -69.5t125 -25.5q120 0 120 107zM519 519v-28q0 -57 9 -251q173 -43 311 -168l-30 -49q-116 117 -279 166q2 -64 2 -83q0 -60 -42.5 -99.5t-122.5 -39.5q-105 0 -165 35t-60 108
q0 65 59.5 107.5t176.5 42.5q51 0 99 -9q-8 164 -8 240q0 30 -0.5 102t-0.5 91q0 61 -7 89h64q-6 -34 -6 -89v-116q171 2 302 19l2 -50q-142 -14 -304 -18z" />
    <glyph glyph-name="Identity.440" unicode="&#x3089;" 
d="M324 718l13 51q59 -19 184 -44.5t192 -32.5l-13 -50q-67 9 -193.5 34.5t-182.5 41.5zM300 599q-7 -38 -21.5 -153t-20.5 -148q143 134 338 134q104 0 172.5 -56t68.5 -141q0 -136 -129.5 -206t-378.5 -50l-15 53q230 -26 350 33.5t120 171.5q0 65 -53.5 106.5
t-136.5 41.5q-206 0 -324 -140q-15 -19 -25 -45l-53 12q14 62 30.5 191.5t20.5 202.5z" />
    <glyph glyph-name="Identity.441" unicode="&#x308a;" 
d="M268 780l60 -2q-35 -122 -50 -317q18 62 58 121t101 101t124 42q96 0 155.5 -91t59.5 -242q0 -99 -30 -175t-87 -125.5t-128.5 -80.5t-163.5 -47l-31 47q388 57 388 380q0 127 -43 207t-127 80q-61 0 -121 -51.5t-98 -123t-47 -137.5q-8 -61 1 -131l-51 -4
q-10 90 -10 152q0 108 32 322q7 48 8 75z" />
    <glyph glyph-name="Identity.442" unicode="&#x308b;" 
d="M504 16q47 0 92 8q-9 67 -48 107t-104 40q-38 0 -63.5 -19.5t-25.5 -49.5q0 -39 42.5 -62.5t106.5 -23.5zM699 739l36 -40q-3 -2 -21.5 -15.5t-26.5 -19.5q-20 -15 -70.5 -59t-114 -99.5t-96.5 -83.5q73 26 160 26q121 0 198 -64t77 -161q0 -118 -92 -186t-239 -68
q-97 0 -150 36.5t-53 93.5q0 47 38.5 81.5t99.5 34.5q87 0 137.5 -51.5t61.5 -127.5q69 24 108 72t39 116q0 76 -67 127.5t-166 51.5q-120 0 -199.5 -43t-192.5 -152l-39 39q49 41 151.5 126.5t125.5 105.5q35 29 241 207q-175 -10 -335 -16q-38 -2 -57 -5l-2 56
q29 -3 59 -3q41 0 177.5 5t171.5 9q26 2 40 7z" />
    <glyph glyph-name="Identity.443" unicode="&#x308c;" 
d="M958 148l10 -54q-84 -88 -179 -88q-46 0 -74 29t-28 82q0 58 19 197t19 187q0 87 -86 87q-61 0 -145.5 -56.5t-162.5 -141.5q-4 -98 -4 -136q0 -164 3 -229l3 -51h-58q3 15 3 50q1 49 1.5 118t0.5 117q0 16 4 102q-64 -96 -184 -265l-34 45q43 54 116 155t107 155
q1 18 3.5 56t4.5 57q-23 -3 -96.5 -13t-104.5 -14l-5 56q18 -1 52 1q65 4 157 19q1 19 2.5 45.5t2.5 40t1 18.5q0 42 -3 64l64 -3q-6 -31 -19 -156l10 3l23 -25q-4 -6 -18.5 -29t-21.5 -35l-6 -78q69 68 156 123t156 55q62 0 95.5 -33t33.5 -93q0 -48 -19.5 -189.5
t-19.5 -191.5q0 -31 14.5 -50t44.5 -19q82 0 162 88z" />
    <glyph glyph-name="Identity.444" unicode="&#x308d;" 
d="M248 715q27 -3 61 -3q123 0 326 10q39 6 45 8l36 -41q-4 -2 -11 -7t-15 -10.5t-11 -7.5q-167 -133 -287 -241q85 37 176 37q117 0 193 -62t76 -162q0 -94 -64.5 -158t-173 -90t-246.5 -15l-16 53q124 -14 225.5 6t162 74t60.5 132t-61.5 126.5t-162.5 48.5
q-66 0 -121.5 -15t-105.5 -48t-83.5 -63t-85.5 -82l-39 40q67 62 167 149.5t202.5 175t126.5 108.5q-189 -6 -310 -13q-6 0 -63 -6z" />
    <glyph glyph-name="Identity.445" unicode="&#x308e;" 
d="M401 502l22 -23q-4 -6 -17.5 -27t-20.5 -33q-2 -19 -4 -53q63 56 131.5 84.5t127.5 28.5q90 0 153 -55.5t63 -145.5q0 -117 -78 -187t-219 -94l-22 47q123 16 197.5 74.5t74.5 160.5q0 57 -44.5 106.5t-129.5 49.5q-127 0 -258 -122q-2 -52 -2 -73q0 -148 4 -224
q0 -7 0.5 -20.5t1.5 -20.5h-53q2 16 2 39q0 210 2 275q-112 -173 -146 -222l-33 42q90 113 183 256q2 26 8 84q-11 -2 -166 -27l-6 49q18 0 38 2q75 5 137 17q6 64 8 94q1 8 1 52l59 -1q-8 -30 -21 -135z" />
    <glyph glyph-name="Identity.446" unicode="&#x308f;" 
d="M358 625l23 -25q-4 -6 -18.5 -29t-21.5 -35q-1 -14 -3 -42.5t-3 -42.5q158 137 327 137q102 0 177.5 -66.5t75.5 -174.5q1 -140 -95.5 -221t-259.5 -112l-22 50q65 9 121 29t104 53.5t75 85t27 116.5q0 30 -12 62t-35.5 62t-65.5 49t-96 19q-169 0 -325 -151
q-4 -98 -4 -135q0 -164 3 -229l3 -51h-58q3 15 3 50q1 49 1.5 118t0.5 117q0 16 4 102q-64 -96 -184 -265l-34 45q43 54 116 155t107 155q1 18 3.5 56t4.5 57q-23 -3 -96.5 -13t-104.5 -14l-5 56q18 -1 52 1q75 5 157 18q1 20 2.5 46.5t2.5 40t1 18.5q0 42 -3 64l64 -3
q-6 -31 -19 -156z" />
    <glyph glyph-name="Identity.447" unicode="&#x3090;" 
d="M582 17q63 0 113 22q-37 125 -140 125q-37 0 -62 -19t-25 -49q0 -37 32 -58t82 -21zM392 338q20 53 51 147q-83 -27 -151 -85.5t-103.5 -126t-35.5 -128.5q0 -34 15.5 -53t37.5 -19q37 0 64 27q57 62 122 238zM532 751l39 -28q-14 -24 -19 -37q-3 -10 -10.5 -35.5
t-15.5 -52t-16 -51.5q27 4 60 4q140 0 222 -84.5t82 -211.5q0 -118 -72.5 -201t-216.5 -83q-75 0 -119 33.5t-44 88.5q0 49 38.5 81t93.5 32q72 0 116.5 -41.5t64.5 -103.5q89 64 89 193q0 107 -68 178.5t-189 71.5q-37 0 -72 -6q-22 -73 -62 -185q-62 -178 -130 -250
q-39 -43 -101 -43q-40 0 -68 30t-28 87q0 127 103 245t251 155q32 107 44 159q-271 -19 -283 -20l-3 57q24 -3 60 -3q121 3 204 9q35 5 50 12z" />
    <glyph glyph-name="Identity.448" unicode="&#x3091;" 
d="M351 364q0 -54 102 -66q32 14 53 32.5t21 38.5q0 25 -24 38.5t-61 13.5q-35 0 -63 -14.5t-28 -42.5zM670 759l34 -40q-57 -21 -252 -137q57 14 119 14q94 -1 160 -43.5t66 -118.5q0 -86 -82 -134.5t-201 -48.5q-46 0 -82 6q-56 -37 -122 -94q65 11 109.5 -20t67.5 -92
q27 56 81 95.5t113 39.5q75 0 135.5 -54t99.5 -146l-52 -22q-33 88 -81 132.5t-106 44.5q-49 0 -93 -36t-64 -92q-2 -5 -9 -40h-51q-2 26 -7 40q-36 114 -130 114q-50 0 -99 -42.5t-107 -116.5l-47 27q67 73 152.5 151t152.5 127q-69 30 -69 89q0 43 43 70t96 27
q57 0 93 -24.5t36 -65.5t-49 -74q91 2 156 39.5t65 97.5q0 58 -54 92t-132 34q-107 0 -181 -32q-78 -34 -204 -129l-33 39q140 100 442 270q-260 -7 -329 -13l-2 51q51 -3 56 -3q154 0 298 9q40 1 63 9z" />
    <glyph glyph-name="Identity.449" unicode="&#x3092;" 
d="M574 130h-52q4 84 4 174q-87 -46 -134.5 -90.5t-47.5 -97.5q0 -32 15.5 -53t46 -31t61.5 -13t77 -3q126 0 263 22l-1 -53q-130 -16 -265 -16q-54 0 -95.5 6t-77.5 21t-55 44t-19 71q0 74 61 130t169 112h1q-3 37 -29.5 57.5t-68.5 20.5q-95 0 -180 -75q-21 -20 -90 -101
l-45 34q164 163 233 321q-20 -1 -58 -1q-68 0 -160 5v52q77 -10 163 -10q48 0 73 1q26 73 30 128l53 -4q-17 -74 -32 -123q175 7 315 31v-50q-145 -23 -332 -28q-37 -95 -108 -183q68 47 151 47q51 0 87.5 -26.5t43.5 -72.5q44 21 117.5 53t91.5 40q33 15 64 32l22 -51
q-19 -5 -69 -25q-140 -56 -225 -97q0 -100 2 -198z" />
    <glyph glyph-name="Identity.450" unicode="&#x3093;" 
d="M537 752q-15 -20 -32 -49q-92 -150 -202 -364q76 77 164 77q48 0 80 -30.5t34 -85.5q1 -28 1 -96.5t2 -96.5q3 -79 88 -79q44 0 83 24t66 63t44.5 78.5t27.5 79.5l42 -34q-89 -263 -270 -263q-70 0 -99 35t-32 84q-2 30 -2 98t-1 99q-5 76 -81 76q-61 0 -119.5 -49.5
t-92.5 -114.5q-23 -43 -52.5 -116.5t-38.5 -110.5l-55 19q72 200 357 717q19 35 30 63z" />
    <glyph glyph-name="Identity.451" unicode="&#x309b;" 
d="M54 786q35 -50 98 -159l-41 -18q-47 93 -95 161zM178 833q32 -46 98 -158l-41 -18q-62 116 -96 160z" />
    <glyph glyph-name="Identity.452" unicode="&#x309c;" 
d="M24 707q0 47 32.5 80t79.5 33t79.5 -33t32.5 -80t-33 -79.5t-79 -32.5q-47 0 -79.5 32.5t-32.5 79.5zM59 707q0 -29 23.5 -52.5t53.5 -23.5q31 0 54 23t23 53q0 31 -23 53.5t-54 22.5t-54 -22.5t-23 -53.5z" />
    <glyph glyph-name="Identity.453" unicode="&#x309d;" 
d="M719 197q-58 -19 -294 -113l-25 47q21 8 267 104q-44 66 -142 173t-184 185l43 33q92 -84 193.5 -198t156.5 -190z" />
    <glyph glyph-name="Identity.454" unicode="&#x309e;" 
d="M575 690q33 -48 93 -149l-43 -20q-48 95 -91 152zM702 732q46 -65 93 -149l-42 -19q-56 105 -92 150zM680 178q-98 -33 -295 -114l-24 48q35 13 140 54.5t126 49.5q-43 65 -141 171.5t-185 186.5l43 33q92 -83 192.5 -196.5t158.5 -191.5z" />
    <glyph glyph-name="Identity.455" unicode="&#x30a1;" 
d="M463 407h57q0 -94 -8.5 -157t-32.5 -124t-70.5 -107.5t-119.5 -86.5l-49 39q35 11 62 28q100 68 132.5 152t32.5 203q0 15 -4 53zM822 536l30 -27q-8 -10 -15 -20q-101 -163 -206 -232l-44 31q53 30 106.5 89t82.5 108h-504q-47 0 -88 -3v56q43 -5 88 -5h512q23 0 38 3z
" />
    <glyph glyph-name="Identity.456" unicode="&#x30a2;" 
d="M465 545h57q0 -117 -9.5 -194.5t-38 -152t-85 -128t-146.5 -96.5l-48 40q42 12 80 38q62 36 102.5 84t59 107.5t25 113.5t6.5 126q0 40 -3 62zM885 707l33 -32q-11 -11 -21 -26q-36 -61 -104 -140.5t-150 -136.5l-44 36q69 39 139 113.5t100 131.5h-598q-39 0 -109 -4v61
q53 -8 109 -8h595q32 0 50 5z" />
    <glyph glyph-name="Identity.457" unicode="&#x30a3;" 
d="M724 588l41 -37q-37 -40 -99.5 -91t-128.5 -92v-365q0 -56 3 -74h-59q4 24 4 74v334q-157 -87 -333 -140l-29 50q168 36 344 137q76 44 148 101t109 103z" />
    <glyph glyph-name="Identity.458" unicode="&#x30a4;" 
d="M804 766l43 -40q-123 -125 -271 -218v-439q0 -64 5 -92h-62q4 34 4 92v408q-177 -101 -394 -167l-30 51q117 29 235.5 80t207.5 105q77 48 149 108.5t113 111.5z" />
    <glyph glyph-name="Identity.459" unicode="&#x30a5;" 
d="M783 481l33 -19q-2 -6 -9 -41q-22 -154 -77 -249q-99 -172 -341 -236l-43 45q32 4 78 19q86 31 149 74t105 113q65 107 75 243h-500v-157q0 -27 3 -42h-55q4 22 4 43v142q0 30 -4 64q31 -3 78 -3h189v82q0 27 -4 51h58q-3 -18 -3 -51v-82h215q33 0 49 4z" />
    <glyph glyph-name="Identity.460" unicode="&#x30a6;" 
d="M831 630l35 -23q-7 -17 -12 -48q-30 -194 -101 -310q-56 -94 -154 -165t-234 -108l-42 47q37 6 81 21q86 26 168 85.5t129 134.5q40 64 66.5 153t32.5 158h-596v-197q0 -35 4 -51h-57q3 19 3 52v177q0 51 -3 72q43 -5 88 -5h226v104q0 33 -4 64h61q-5 -29 -5 -64v-104
h254q37 0 60 7z" />
    <glyph glyph-name="Identity.461" unicode="&#x30a7;" 
d="M523 57h256q33 0 62 3v-55q-40 2 -62 2h-553q-20 0 -66 -2v55q33 -3 66 -3h247v394h-202q-42 0 -63 -2v53q31 -3 63 -3h462q12 0 66 3v-53q-19 2 -66 2h-210v-394z" />
    <glyph glyph-name="Identity.462" unicode="&#x30a8;" 
d="M523 106h311q13 0 76 5v-59q-26 3 -76 3h-662q-39 0 -82 -3v59q35 -5 82 -5h298v491h-243q-41 0 -78 -3v57q35 -4 78 -4h552q37 0 81 4v-57q-35 3 -81 3h-256v-491z" />
    <glyph glyph-name="Identity.463" unicode="&#x30a9;" 
d="M636 453h160q34 0 58 4v-54q-42 3 -58 3h-160q6 -364 6 -400q0 -27 -17.5 -42t-44.5 -15q-30 0 -138 6l-4 50q64 -11 127 -11q28 0 28 29q0 92 -4 330q-52 -77 -154 -167t-209 -147l-36 39q112 56 220 150.5t161 177.5h-300q-32 0 -65 -3v54q31 -4 65 -4h317q-2 72 -3 94
q0 26 -5 58h58q-3 -19 -3 -58q0 -50 1 -94z" />
    <glyph glyph-name="Identity.464" unicode="&#x30aa;" 
d="M641 587h177q30 0 75 5v-56q-57 3 -74 3h-177q6 -459 6 -490q0 -68 -79 -68q-62 0 -152 6l-4 54q74 -12 146 -12q22 0 30.5 9.5t8.5 29.5q0 120 -4 416q-66 -97 -193 -210.5t-262 -185.5l-37 42q147 73 277.5 190t194.5 219h-364q-22 0 -82 -4v57q50 -5 82 -5h383
q-2 85 -3 112q-2 49 -8 73h63q-5 -42 -5 -73q0 -6 0.5 -44t0.5 -68z" />
    <glyph glyph-name="Identity.465" unicode="&#x30ab;" 
d="M807 593l39 -19q-5 -28 -6 -47q-13 -382 -61 -479q-15 -28 -36.5 -39.5t-58.5 -11.5q-76 0 -157 6l-6 53q93 -10 153 -10q45 0 59 31q29 56 42.5 202.5t13.5 261.5h-312q-25 -214 -100.5 -341.5t-204.5 -215.5l-47 38q38 19 85 60q181 153 218 459h-189q-74 0 -106 -3v56
q62 -4 105 -4h194q5 58 5 110q0 48 -5 77h61q-2 -17 -4 -76q-1 -42 -7 -111h268q18 0 57 3z" />
    <glyph glyph-name="Identity.466" unicode="&#x30ac;" 
d="M462 578h268q31 0 57 4l39 -20q-5 -29 -6 -47q-13 -382 -61 -478q-27 -52 -95 -52q-49 0 -157 6l-6 53q93 -10 153 -10q45 0 59 32q29 55 42.5 201.5t13.5 262.5h-312q-25 -214 -100.5 -342t-204.5 -216l-47 38q43 23 85 60q183 154 218 460h-189q-63 0 -106 -4v57
q52 -5 105 -5h194q5 58 5 110q0 48 -5 78h61q-2 -17 -4 -77q-1 -42 -7 -111zM706 757l38 17q46 -66 83 -137l-39 -18q-32 68 -82 138zM811 794l37 17q48 -64 86 -136l-39 -18q-41 82 -84 137z" />
    <glyph glyph-name="Identity.467" unicode="&#x30ad;" 
d="M879 387l11 -56q-3 0 -81 -13q-106 -16 -264 -42q42 -203 44 -212q15 -62 25 -87l-61 -13q-10 65 -15 90q-12 69 -42 214q-146 -23 -287 -48q-49 -8 -82 -17l-12 60q45 2 79 8q62 7 293 45l-45 225q-218 -35 -235 -38q-58 -11 -75 -15l-11 61q26 1 77 6q90 11 234 34
q-6 26 -11.5 53t-8.5 42.5t-4 18.5q-6 30 -17 64l58 11q3 -32 10 -64q1 -4 22 -117q221 36 251 42q17 4 37.5 9t21.5 5l11 -56q-13 -1 -59 -9l-252 -40q21 -112 45 -224q229 39 264 45q56 10 79 18z" />
    <glyph glyph-name="Identity.468" unicode="&#x30ae;" 
d="M828 669l-38 -19q-35 71 -83 139l38 17q52 -75 83 -137zM470 531l45 -224q210 35 264 45q56 10 80 17l11 -55q-3 0 -81 -13q-106 -16 -264 -42q42 -206 44 -213q17 -69 24 -86l-61 -13q-12 79 -15 90q-10 58 -42 214q-270 -45 -287 -48q-52 -9 -81 -17l-12 60q39 2 79 7
q74 10 292 46l-45 224q-166 -25 -235 -38q-40 -6 -74 -14l-12 61q27 1 78 6q91 11 233 34q-6 26 -11.5 53t-8.5 42.5t-4 18.5q-5 33 -17 64l59 11q0 -3 9 -65q0 -1 22 -116q175 27 252 42q32 6 59 14l11 -56q-9 -1 -60 -9zM813 826l37 17q59 -84 85 -136l-38 -19
q-40 78 -84 138z" />
    <glyph glyph-name="Identity.469" unicode="&#x30af;" 
d="M810 654l45 -26q-11 -19 -17 -43q-21 -84 -68 -178.5t-111 -172.5q-143 -176 -395 -266l-45 43q245 70 397 252q60 73 106 165t64 171h-371q-104 -151 -254 -249l-45 33q116 68 197.5 165.5t118.5 181.5q17 34 23 65l60 -21q-1 -2 -34 -64q-17 -35 -36 -64h313q36 0 52 8
z" />
    <glyph glyph-name="Identity.470" unicode="&#x30b0;" 
d="M400 621h312q36 0 52 8l45 -27q-10 -18 -17 -42q-21 -85 -68 -179.5t-111 -171.5q-143 -176 -395 -266l-45 42q243 70 397 253q60 72 106 164.5t64 171.5h-371q-104 -151 -254 -249l-45 33q116 68 197.5 165.5t118.5 181.5q17 34 23 64l60 -20q-12 -21 -34 -65
q-12 -24 -35 -63zM719 772l38 17q46 -66 83 -137l-39 -18q-32 68 -82 138zM824 809l37 17q48 -64 86 -136l-39 -18q-41 82 -84 137z" />
    <glyph glyph-name="Identity.471" unicode="&#x30b1;" 
d="M326 586h496q61 0 87 5v-57q-27 2 -87 2h-186q-11 -212 -87.5 -345.5t-211.5 -219.5l-55 38q34 11 73 41q214 161 229 486h-283q-32 -59 -80 -121t-89 -95l-51 31q49 34 100 99.5t80 120.5q33 62 56 142q8 32 11 66l63 -12q-19 -57 -21 -64q-25 -76 -44 -117z" />
    <glyph glyph-name="Identity.472" unicode="&#x30b2;" 
d="M837 642l-39 -18q-32 68 -82 138l38 17q46 -66 83 -137zM308 568h496q61 0 88 4v-56q-56 2 -88 2h-185q-11 -212 -88 -346t-212 -220l-55 39q38 13 73 41q215 158 229 486h-282q-32 -59 -80 -121t-90 -95l-51 30q49 35 100 101t80 120q37 69 56 141q8 31 11 67l63 -12
q-19 -57 -21 -64q-24 -74 -44 -117zM821 799l37 17q52 -71 86 -136l-39 -18q-41 82 -84 137z" />
    <glyph glyph-name="Identity.473" unicode="&#x30b3;" 
d="M835 -1h-58q2 12 2 58h-507q-70 0 -104 -3v60q52 -5 103 -5h508v506h-496q-39 0 -102 -3v59q52 -5 101 -5h485q45 0 67 1q-2 -42 -2 -68v-516q0 -63 3 -84z" />
    <glyph glyph-name="Identity.474" unicode="&#x30b4;" 
d="M809 687l-39 -19q-32 66 -81 135l38 16q39 -54 82 -132zM815 570v-516q0 -16 0.5 -35t1.5 -32.5t1 -15.5h-57q0 1 2 57h-508q-68 0 -104 -3v60q52 -5 103 -5h509v507h-497q-39 0 -102 -3v58q52 -5 101 -5h486q44 0 66 1q-2 -42 -2 -68zM810 829l39 17q49 -71 83 -132
l-40 -17q-47 88 -82 132z" />
    <glyph glyph-name="Identity.475" unicode="&#x30b5;" 
d="M703 555h132q55 0 80 5v-57q-12 3 -80 3h-132v-36q0 -214 -57 -323.5t-219 -182.5l-43 41q71 29 116.5 60t82.5 82t53.5 128t16.5 188v43h-313v-177q0 -66 4 -82h-58q0 1 1 14.5t2 33t1 34.5v177h-122q-17 0 -39.5 -1t-38.5 -1.5t-17 -0.5v57q20 -5 95 -5h122v145
q0 46 -4 62h58q0 -1 -1 -10t-2 -23t-1 -28v-146h313v137q0 17 -1 34.5t-2 28.5t-1 12h59q-5 -20 -5 -75v-137z" />
    <glyph glyph-name="Identity.476" unicode="&#x30b6;" 
d="M847 614l-38 -13q-28 79 -61 141l36 12q34 -61 63 -140zM684 536h131q51 0 81 5v-57q-12 3 -81 3h-131v-36q0 -213 -57.5 -323t-218.5 -183l-44 41q57 23 96 46t74 59t55.5 82.5t32.5 113.5t12 156v44h-313v-177q0 -14 0.5 -33.5t1.5 -33.5t1 -15h-58q5 20 5 82v177h-122
q-18 0 -40.5 -0.5t-38 -1.5t-16.5 -1v57q15 -5 95 -5h122v145q0 13 -1 27.5t-2 24t-1 10.5h58q-4 -16 -4 -61v-146h313v137q0 55 -5 75h60q-5 -20 -5 -75v-137zM845 772l37 12q32 -60 63 -140l-38 -13q-37 99 -62 141z" />
    <glyph glyph-name="Identity.477" unicode="&#x30b7;" 
d="M296 755q103 -60 212 -141l-32 -43q-32 26 -99.5 72t-108.5 69zM167 37q184 32 333 118q243 142 372 362l32 -51q-64 -100 -162.5 -193.5t-215.5 -162.5q-138 -83 -329 -125zM148 531q41 -22 113 -66t101 -65l-30 -45q-110 80 -213 133z" />
    <glyph glyph-name="Identity.478" unicode="&#x30b8;" 
d="M708 734q59 -84 95 -157l-40 -19q-40 86 -93 158zM834 781q52 -66 98 -155l-40 -19q-43 88 -96 156zM285 746q39 -23 109.5 -70.5t101.5 -70.5l-31 -43q-32 26 -100 71.5t-109 69.5zM155 28q184 32 333 118q244 141 373 362l31 -51q-63 -100 -161.5 -193.5t-215.5 -162.5
q-137 -82 -330 -125zM136 522q41 -22 113.5 -66t100.5 -65l-29 -45q-110 80 -213 133z" />
    <glyph glyph-name="Identity.479" unicode="&#x30b9;" 
d="M747 690l33 -26q-13 -18 -18 -33q-28 -72 -76 -156.5t-99 -147.5q151 -130 299 -306l-43 -38q-136 172 -289 306q-193 -207 -400 -299l-40 43q221 88 413 303q53 60 104.5 146t71.5 152h-419q-14 0 -35.5 -1t-38 -2t-17.5 -1v59q30 -5 91 -5h405q39 0 58 6z" />
    <glyph glyph-name="Identity.480" unicode="&#x30ba;" 
d="M833 666l-39 -18q-32 68 -82 138l38 17q48 -68 83 -137zM727 676l33 -26q-12 -14 -18 -33q-28 -72 -76 -156.5t-99 -147.5q76 -66 159 -151.5t140 -154.5l-43 -38q-131 167 -289 306q-193 -206 -400 -299l-40 43q221 88 413 303q53 60 104.5 146t71.5 152h-419
q-71 0 -91 -4v60q36 -6 91 -6h405q39 0 58 6zM819 821l37 17q48 -64 86 -136l-39 -18q-41 82 -84 137z" />
    <glyph glyph-name="Identity.481" unicode="&#x30bb;" 
d="M647 255l-45 27q55 51 108.5 127t80.5 132q-3 -1 -63.5 -13t-168 -33.5t-189.5 -38.5v-317q0 -56 32 -76t124 -20q163 0 310 28l-3 -56q-139 -21 -316 -21q-115 0 -156.5 31.5t-41.5 100.5v320q-207 -42 -241 -50l-11 56q53 6 252 44v188q0 50 -5 79h62q-6 -43 -6 -79
v-178q313 60 422 85q31 7 42 15l37 -29q-8 -12 -20 -32q-111 -194 -204 -290z" />
    <glyph glyph-name="Identity.482" unicode="&#x30bc;" 
d="M839 646l-39 -18q-35 73 -82 138l38 17q42 -59 83 -137zM358 668v-179q328 64 421 86q25 4 43 14l37 -29q-9 -11 -20 -32q-116 -197 -204 -290l-46 28q55 51 108 126t82 132q-12 -1 -421 -85v-317q0 -55 31.5 -75t123.5 -20q168 0 310 27l-2 -56q-134 -20 -317 -20
q-115 0 -156 31t-41 100v320q-209 -43 -242 -50l-10 56q53 6 252 44v189q0 44 -6 78h63q-6 -34 -6 -78zM823 803l37 17q48 -64 86 -136l-39 -18q-41 82 -84 137z" />
    <glyph glyph-name="Identity.483" unicode="&#x30bd;" 
d="M277 23q223 90 359 296q97 146 128 340q6 30 6 59l63 -9q-8 -20 -14 -56q-41 -214 -136 -361q-138 -210 -359 -309zM142 676l49 25q68 -101 165 -278l-49 -28q-28 57 -81 148t-84 133z" />
    <glyph glyph-name="Identity.484" unicode="&#x30be;" 
d="M261 3q99 42 179.5 103t129.5 121.5t86 132.5t54 124.5t28 108.5q8 40 8 58l62 -12q-4 -11 -10 -31t-6 -21q-16 -70 -36.5 -130t-58.5 -133.5t-88 -134t-127 -121t-173 -105.5zM126 656l48 25q54 -80 166 -278l-49 -28q-27 53 -80.5 145t-84.5 136zM729 819
q46 -67 82 -132l-40 -19q-31 67 -81 135zM850 846q43 -59 83 -132l-39 -17q-54 97 -82 132z" />
    <glyph glyph-name="Identity.485" unicode="&#x30bf;" 
d="M812 668l45 -26q-10 -18 -17 -42q-48 -168 -152 -313q53 -33 98 -65l-35 -45q-21 17 -95 68q-154 -185 -406 -277l-46 41q122 36 228 106.5t180 157.5q-117 75 -238 142l32 37q101 -52 238 -137q103 141 144 298h-372q-109 -158 -265 -264l-43 33q116 71 200 171t122 185
q17 30 24 65l59 -20q-1 -2 -34 -64q-15 -30 -33 -59h313q34 0 53 8z" />
    <glyph glyph-name="Identity.486" unicode="&#x30c0;" 
d="M409 637h314q33 0 52 8l45 -26q-11 -19 -17 -43q-45 -166 -152 -312q53 -33 98 -65l-34 -45q-43 34 -96 68q-154 -185 -406 -277l-45 41q122 36 227.5 106.5t179.5 157.5q-129 83 -238 142l33 37q101 -52 238 -137q50 68 88 148t55 150h-372q-107 -157 -264 -264l-44 33
q117 72 201 171.5t122 184.5q17 34 23 65l59 -20q-2 -3 -34 -64q-15 -30 -33 -59zM719 780l38 17q45 -64 83 -137l-39 -18q-35 73 -82 138zM824 817l37 17q48 -64 86 -136l-39 -18q-41 82 -84 137z" />
    <glyph glyph-name="Identity.487" unicode="&#x30c1;" 
d="M543 440h290q33 0 73 4v-55q-29 3 -71 3h-293q-4 -151 -64 -250t-191 -173l-49 36q123 58 185.5 150t68.5 237h-310q-52 0 -87 -3v56q47 -5 85 -5h313v207q-122 -13 -306 -15l-13 49q149 -8 334 16q183 24 260 56l35 -46q-30 -8 -43 -12q-121 -28 -217 -42v-213z" />
    <glyph glyph-name="Identity.488" unicode="&#x30c2;" 
d="M515 428h290q43 0 73 3v-55q-28 3 -71 3h-293q-4 -151 -64 -250t-191 -173l-49 36q123 58 185 149.5t68 237.5h-310q-51 0 -86 -3v56q38 -4 85 -4h312v206q-110 -13 -305 -15l-13 50q58 -4 156 0.5t177 14.5q184 24 261 56l35 -46q-15 -4 -43 -12q-106 -25 -217 -42v-212
zM825 495l-38 -18q-36 76 -79 133l37 17q48 -67 80 -132zM811 646l36 18q46 -62 82 -131l-37 -19q-36 73 -81 132z" />
    <glyph glyph-name="Identity.489" unicode="&#x30c3;" 
d="M471 565q56 -136 76 -213l-47 -18q-7 32 -34.5 108t-42.5 107zM774 536l55 -17q-2 -7 -12 -35q-43 -191 -144 -317q-125 -157 -321 -231l-43 44q91 28 176 83.5t146 130.5q115 142 143 342zM238 516q35 -75 90 -224l-48 -18q-12 39 -44 120t-45 103z" />
    <glyph glyph-name="Identity.490" unicode="&#x30c4;" 
d="M445 735q16 -34 50.5 -127.5t45.5 -131.5l-49 -17q-12 43 -45 134.5t-50 125.5zM824 698l59 -17q-5 -12 -13 -44q-54 -227 -167 -374q-74 -99 -178.5 -174.5t-212.5 -111.5l-43 43q110 33 213.5 104.5t177.5 166.5q61 79 104.5 187.5t59.5 219.5zM166 677
q55 -118 111 -271l-51 -18q-13 44 -53 142t-57 128z" />
    <glyph glyph-name="Identity.491" unicode="&#x30c5;" 
d="M426 713q16 -35 50.5 -128t45.5 -131l-49 -17q-12 43 -45 134.5t-50 125.5zM795 630l59 -15q-5 -12 -13 -44q-56 -198 -157 -330q-75 -99 -179.5 -174.5t-211.5 -111.5l-43 43q110 33 213 104.5t178 166.5q123 159 154 361zM147 655q55 -118 111 -271l-51 -18
q-13 44 -53 142t-57 128zM740 819q39 -54 82 -132l-39 -19q-35 72 -81 135zM862 846q44 -62 83 -132l-39 -17q-55 97 -83 132z" />
    <glyph glyph-name="Identity.492" unicode="&#x30c6;" 
d="M710 671h-405q-47 0 -82 -3v56q43 -5 80 -5h407q42 0 85 5v-56q-40 3 -85 3zM183 472h654q36 0 71 3v-54q-40 2 -71 2h-289q-3 -186 -57 -284q-28 -49 -80 -96.5t-114 -79.5l-48 36q62 27 113 68.5t80 90.5q31 51 42 113.5t13 151.5h-314q-54 0 -81 -2v54q39 -3 81 -3z
" />
    <glyph glyph-name="Identity.493" unicode="&#x30c7;" 
d="M866 669l-39 -18q-32 68 -82 138l38 17q46 -66 83 -137zM651 664h-356q-47 0 -82 -3v56q43 -5 80 -5h358q51 0 84 5v-56q-39 3 -84 3zM174 464h654q39 0 70 4v-54q-40 2 -70 2h-289q-3 -184 -58 -284q-28 -49 -80.5 -97t-113.5 -79l-48 36q62 27 113 68.5t80 90.5
q31 51 42 113t13 152h-313q-41 0 -82 -3v55q52 -4 82 -4zM850 826l37 17q52 -71 86 -136l-39 -18q-39 78 -84 137z" />
    <glyph glyph-name="Identity.494" unicode="&#x30c8;" 
d="M835 327l-22 -53q-78 43 -198.5 91t-212.5 76l1 -357q0 -71 5 -106h-62q5 34 5 106v585q0 51 -6 95h63q-6 -56 -6 -95v-173q100 -31 224 -79t209 -90z" />
    <glyph glyph-name="Identity.495" unicode="&#x30c9;" 
d="M732 555l-40 -19q-36 78 -89 151l38 18q56 -77 91 -150zM370 657v-173q99 -30 222 -78.5t210 -91.5l-22 -53q-77 43 -197.5 91t-212.5 76l1 -356q0 -70 4 -107h-61q4 37 4 107v585q0 60 -6 94h64q-6 -54 -6 -94zM718 734l38 19q51 -68 94 -149l-40 -20q-42 86 -92 150z
" />
    <glyph glyph-name="Identity.496" unicode="&#x30ca;" 
d="M553 526h290q55 0 73 3v-54q-12 1 -74 1h-289v-20q0 -168 -66 -286t-206 -197l-51 38q271 130 271 445v20h-314q-69 0 -83 -2v56q28 -4 81 -4h316v149q0 56 -7 89h65q-6 -42 -6 -89v-149z" />
    <glyph glyph-name="Identity.497" unicode="&#x30cb;" 
d="M96 74v62q77 -5 93 -5h614q36 0 79 5v-62q-39 3 -79 3h-614zM184 577v57q84 -3 86 -3h437q51 0 92 3v-57q-27 2 -92 2h-437q-30 0 -86 -2z" />
    <glyph glyph-name="Identity.498" unicode="&#x30cc;" 
d="M810 103l-38 -44q-83 78 -198 166q-78 -88 -177 -154.5t-203 -104.5l-46 44q105 31 206 97t177 150q-153 112 -281 179l32 39q123 -64 283 -179q57 72 99.5 161.5t61.5 174.5h-439q-40 0 -94 -2v56q54 -4 94 -4h431q27 0 44 7l36 -29q-13 -22 -21 -48q-25 -91 -71.5 -185
t-98.5 -161q100 -74 203 -163z" />
    <glyph glyph-name="Identity.499" unicode="&#x30cd;" 
d="M532 346l-1 -1q0 -43 -0.5 -144t-0.5 -134q0 -39 4 -101h-60q5 52 5 101q0 31 0.5 120.5t0.5 125.5q-135 -83 -356 -149l-32 48q232 58 404 171q68 43 130.5 101.5t93.5 101.5h-447q-78 0 -117 -4v57q47 -5 117 -5h209v73q0 59 -5 84h61q-5 -25 -5 -84v-73h191q36 0 52 5
l34 -33q-31 -31 -44 -46q-102 -125 -234 -214zM634 300l34 37q122 -66 242 -145l-35 -43q-133 95 -241 151z" />
    <glyph glyph-name="Identity.500" unicode="&#x30ce;" 
d="M783 712q-3 -9 -12.5 -35.5t-13.5 -38.5q-81 -233 -180 -361q-68 -88 -169 -162.5t-206 -118.5l-44 46q108 38 208.5 109.5t168.5 158.5q67 86 117 197.5t71 220.5z" />
    <glyph glyph-name="Identity.501" unicode="&#x30cf;" 
d="M243 309q32 74 61.5 179.5t39.5 186.5l56 -11q-10 -31 -15 -57q-1 -5 -8.5 -35t-12 -50t-14 -55t-18 -62.5t-19.5 -59.5t-22 -58q-64 -147 -148 -268l-52 22q88 117 152 268zM735 358q-83 205 -145 309l51 18q70 -129 145 -310q73 -176 122 -339l-54 -17
q-33 128 -119 339z" />
    <glyph glyph-name="Identity.502" unicode="&#x30d0;" 
d="M757 768q51 -71 83 -137l-39 -18q-35 73 -82 138zM861 806q57 -78 86 -136l-38 -19q-41 81 -85 138zM233 294q32 75 60.5 180t39.5 186l56 -11q-4 -11 -15 -57q-49 -214 -94 -320q-62 -146 -148 -268l-52 22q84 110 153 268zM725 343q-83 205 -145 309l50 18
q76 -141 145 -310q70 -167 122 -338l-54 -17q-33 126 -118 338z" />
    <glyph glyph-name="Identity.503" unicode="&#x30d1;" 
d="M772 684q0 -29 20.5 -50t49.5 -21t50.5 21t21.5 50t-21.5 50.5t-50.5 21.5t-49.5 -21.5t-20.5 -50.5zM735 684q0 45 31.5 76.5t75.5 31.5q45 0 76.5 -31.5t31.5 -76.5t-31.5 -76t-76.5 -31q-44 0 -75.5 31t-31.5 76zM233 294q32 75 60.5 180t39.5 186l56 -11
q-4 -11 -15 -57q-49 -214 -94 -320q-62 -146 -148 -268l-52 22q84 110 153 268zM725 343q-83 205 -145 309l50 18q76 -141 145 -310q70 -167 122 -338l-54 -17q-33 126 -118 338z" />
    <glyph glyph-name="Identity.504" unicode="&#x30d2;" 
d="M298 389v-240q0 -40 16.5 -56t56.5 -25q59 -9 142 -9q221 0 339 31v-59q-132 -21 -340 -21q-103 0 -156 9q-56 9 -82.5 35.5t-26.5 82.5v554q0 43 -5 67h61q-5 -32 -5 -67v-248q244 58 416 134q40 17 76 40l24 -53q-8 -3 -36.5 -15.5t-44.5 -18.5q-167 -69 -435 -141z
" />
    <glyph glyph-name="Identity.505" unicode="&#x30d3;" 
d="M805 631l-39 -18q-35 73 -82 138l38 17q52 -75 83 -137zM259 372v-241q0 -40 16 -56t56 -25q59 -9 143 -9q220 0 338 31v-59q-144 -21 -340 -21q-104 0 -155 9q-57 10 -83 36t-26 83v553q0 38 -6 68h61q-4 -40 -4 -68v-248q226 53 400 128q50 23 76 41l24 -53
q-76 -33 -81 -35q-155 -65 -419 -134zM790 788l37 17q55 -76 85 -136l-38 -18q-44 84 -84 137z" />
    <glyph glyph-name="Identity.506" unicode="&#x30d4;" 
d="M259 372v-241q0 -40 16 -56t56 -25q59 -9 143 -9q220 0 338 31v-59q-144 -21 -340 -21q-104 0 -155 9q-57 10 -83 36t-26 83v553q0 38 -6 68h61q-4 -40 -4 -68v-248q226 53 400 128q50 23 76 41l24 -53q-76 -33 -81 -35q-155 -65 -419 -134zM821 619q29 0 50 21t21 50
t-21 50.5t-50 21.5t-50 -21.5t-21 -50.5t21 -50t50 -21zM821 798q44 0 76 -31.5t32 -76.5q0 -44 -32 -75.5t-76 -31.5q-45 0 -76.5 31.5t-30.5 75.5q0 45 31 76.5t76 31.5z" />
    <glyph glyph-name="Identity.507" unicode="&#x30d5;" 
d="M806 689l38 -25q-6 -13 -10 -38q-18 -96 -57 -200.5t-92 -171.5q-73 -93 -164 -157t-224 -105l-44 48q137 36 228.5 96t160.5 149q52 67 89.5 167.5t48.5 183.5h-538q-50 0 -88 -3v58q52 -6 89 -6h524q25 0 39 4z" />
    <glyph glyph-name="Identity.508" unicode="&#x30d6;" 
d="M797 674l39 -25q-7 -16 -11 -38q-18 -96 -57 -200.5t-91 -171.5q-74 -93 -165 -157t-224 -105l-44 48q137 36 228.5 96t160.5 149q52 67 90 167.5t49 183.5h-539q-49 0 -88 -3v58q52 -6 89 -6h524q25 0 39 4zM837 833l39 17q44 -62 83 -132l-39 -17q-55 97 -83 132z
M715 808l38 17q44 -63 82 -132l-39 -19q-35 71 -81 134z" />
    <glyph glyph-name="Identity.509" unicode="&#x30d7;" 
d="M877 639q29 0 50 20.5t21 49.5t-21 50.5t-50 21.5t-50 -21.5t-21 -50.5t21 -49.5t50 -20.5zM234 670h524h19q-7 17 -7 39q0 45 31 76.5t76 31.5q44 0 76 -31.5t32 -76.5q0 -44 -32 -75.5t-76 -31.5q-27 0 -51 13l-1 -4q-18 -96 -57 -200.5t-91 -171.5q-74 -93 -165 -157
t-224 -105l-44 48q137 36 228.5 96t160.5 149q52 67 90 167.5t49 183.5h-539q-49 0 -88 -3v58q52 -6 89 -6z" />
    <glyph glyph-name="Identity.510" unicode="&#x30d8;" 
d="M73 270q11 9 64 60q29 29 107.5 125t93.5 114q38 45 68.5 47.5t80.5 -37.5q47 -37 209 -209q169 -182 239 -265l-40 -44q-25 33 -58.5 72t-58.5 66.5t-62 69t-53 58.5q-144 160 -202 207q-34 28 -50 26.5t-44 -35.5q-25 -29 -96 -117t-96 -118q-11 -13 -30.5 -37.5
t-23.5 -29.5z" />
    <glyph glyph-name="Identity.511" unicode="&#x30d9;" 
d="M680 669q53 -73 95 -157l-41 -19q-40 88 -93 158zM806 718q54 -72 97 -156l-40 -20q-47 95 -96 157zM64 251q31 27 64 60q22 22 57 64t79.5 96.5t63.5 77.5q38 45 68.5 48t81.5 -37q56 -45 208 -209q170 -183 240 -265l-41 -44q-25 33 -58.5 72.5t-57.5 66t-63 69.5
t-53 59q-139 154 -201 206q-34 28 -50.5 26.5t-44.5 -35.5q-15 -19 -89.5 -111t-102.5 -124q-11 -13 -30.5 -37.5t-23.5 -29.5z" />
    <glyph glyph-name="Identity.512" unicode="&#x30da;" 
d="M693 593q0 -33 23.5 -56t55.5 -23q33 0 56 23t23 56t-23 56t-56 23q-32 0 -55.5 -23t-23.5 -56zM656 593q0 48 34 82t82 34q49 0 83 -34t34 -82t-34 -82t-83 -34q-48 0 -82 34t-34 82zM64 251q31 27 64 60q22 22 57 64t79.5 96.5t63.5 77.5q38 45 68.5 48t81.5 -37
q56 -45 208 -209q170 -183 240 -265l-41 -44q-25 33 -58.5 72.5t-57.5 66t-63 69.5t-53 59q-139 154 -201 206q-34 28 -50.5 26.5t-44.5 -35.5q-15 -19 -89.5 -111t-102.5 -124q-11 -13 -30.5 -37.5t-23.5 -29.5z" />
    <glyph glyph-name="Identity.513" unicode="&#x30db;" 
d="M291 408l45 -22q-29 -60 -87.5 -141t-104.5 -131l-46 31q48 44 106 123.5t87 139.5zM826 547h-284v-496q0 -37 -17.5 -54t-57.5 -17q-69 0 -130 7l-4 53q66 -12 118 -12q40 0 40 40v479h-292q-40 0 -79 -3v56q36 -4 78 -4h293v116q0 36 -6 62h61q-4 -28 -4 -62v-116h283
q40 0 72 4v-54q-24 1 -71 1zM703 382l43 24q38 -45 90 -123t85 -138l-48 -27q-32 62 -82 141t-88 123z" />
    <glyph glyph-name="Identity.514" unicode="&#x30dc;" 
d="M826 644l-39 -18q-34 72 -81 136l38 17q48 -68 82 -135zM266 394l45 -22q-29 -60 -87.5 -141t-104.5 -131l-46 31q49 44 106.5 123t86.5 140zM801 533h-284v-496q0 -37 -17 -54t-58 -17q-60 0 -130 6l-4 54q66 -12 118 -12q40 0 40 40v479h-292q-40 0 -78 -3v56
q43 -5 77 -5h293v117q0 34 -6 62h61q-4 -28 -4 -62v-117h283q32 0 72 5v-55q-24 2 -71 2zM678 368l44 23q38 -45 89 -122t85 -138l-48 -27q-32 61 -81.5 140t-88.5 124zM818 791l36 17q54 -73 86 -135l-39 -18q-42 80 -83 136z" />
    <glyph glyph-name="Identity.515" unicode="&#x30dd;" 
d="M812 802q-29 0 -49.5 -20.5t-20.5 -49.5t20.5 -49t49.5 -20t49.5 20.5t20.5 48.5q0 29 -20.5 49.5t-49.5 20.5zM812 627q-44 0 -75 30.5t-31 74.5t31 75.5t75 31.5t75 -31.5t31 -75.5q0 -43 -31 -74t-75 -31zM266 394l45 -22q-29 -60 -87.5 -141t-104.5 -131l-46 31
q49 44 106.5 123t86.5 140zM801 533h-284v-496q0 -37 -17 -54t-58 -17q-60 0 -130 6l-4 54q66 -12 118 -12q40 0 40 40v479h-292q-40 0 -78 -3v56q43 -5 77 -5h293v117q0 34 -6 62h61q-4 -28 -4 -62v-117h283q32 0 72 5v-55q-24 2 -71 2zM678 368l44 23q38 -45 89 -122
t85 -138l-48 -27q-32 61 -81.5 140t-88.5 124z" />
    <glyph glyph-name="Identity.516" unicode="&#x30de;" 
d="M873 669l42 -33q-10 -10 -20 -24q-153 -248 -376 -415q123 -123 179 -193l-46 -36q-45 62 -175 196q-45 45 -120 109t-114 91l41 33q84 -60 197 -164q115 84 208.5 191.5t138.5 189.5h-623q-56 0 -94 -4v59q47 -5 94 -5h621q34 0 47 5z" />
    <glyph glyph-name="Identity.517" unicode="&#x30df;" 
d="M289 742q104 -14 263 -49t249 -66l-21 -50q-88 33 -244 67.5t-266 49.5zM243 481q341 -62 494 -119l-22 -49q-83 33 -231.5 68.5t-260.5 51.5zM187 187q133 -21 309 -65.5t273 -84.5l-22 -49q-91 42 -267 86t-313 65z" />
    <glyph glyph-name="Identity.518" unicode="&#x30e0;" 
d="M922 -3l-53 -24q-22 61 -60 137q-451 -54 -641 -71q-32 -3 -77 -9l-10 60q37 -1 84 2q9 0 63 5q34 84 99 279.5t94 292.5q15 58 17 85l65 -14q-26 -68 -30 -81q-26 -89 -90 -282t-97 -275q261 23 499 55q-75 144 -132 219l47 22q53 -75 123 -202t99 -199z" />
    <glyph glyph-name="Identity.519" unicode="&#x30e1;" 
d="M732 744l58 -20q-3 -6 -27 -63q-66 -180 -160 -307q176 -150 252 -235l-40 -42q-91 104 -244 235q-182 -221 -404 -331l-44 39q236 113 407 326q-157 128 -289 208l33 40q169 -110 288 -207q93 127 151 294q13 35 19 63z" />
    <glyph glyph-name="Identity.520" unicode="&#x30e2;" 
d="M829 360h-359v-228q0 -85 135 -85q142 0 265 14l-2 -53q-156 -11 -268 -11q-181 0 -181 118v245h-213q-46 0 -85 -3v56q36 -4 85 -4h213v235h-146q-36 0 -86 -2v53q38 -3 86 -3h471q46 0 79 3v-53q-46 2 -79 2h-274v-235h358q44 0 75 3v-54q-42 2 -74 2z" />
    <glyph glyph-name="Identity.521" unicode="&#x30e3;" 
d="M824 494l32 -23q-30 -61 -95.5 -146t-118.5 -134l-46 24q50 42 103 106.5t83 114.5q-66 -12 -346 -68q94 -337 106 -375q2 -7 9 -28.5t11 -31.5l-57 -15q-1 23 -12 64q-11 38 -104 376l-214 -42l-13 51q27 2 77 11q15 2 137 25q-26 96 -36 127q-11 39 -21 54l57 14
q0 -1 4.5 -21.5t8.5 -35.5q2 -7 13.5 -50.5t21.5 -78.5q302 56 369 72q15 3 31 10z" />
    <glyph glyph-name="Identity.522" unicode="&#x30e4;" 
d="M866 653l36 -25q-35 -71 -113 -171.5t-141 -157.5l-52 26q59 47 127.5 129t102.5 140q-84 -15 -429 -84q110 -399 128 -459q11 -36 23 -68l-60 -15q-6 37 -16 70q-4 13 -26 95t-50 185.5t-49 181.5q-201 -39 -258 -53l-15 56l92 12l168 31q-31 113 -43 152q-14 47 -25 67
l60 15q1 -9 15 -69l43 -155q402 75 447 86q23 4 35 11z" />
    <glyph glyph-name="Identity.523" unicode="&#x30e5;" 
d="M665 74h120q31 0 67 2v-52q-16 1 -64 1h-561q-24 0 -74 -2v54q35 -3 74 -3h385q12 68 31 198t20 169h-345q-25 0 -69 -2v55q44 -4 68 -4h332q27 0 35 4l40 -19q-5 -17 -5 -24q-11 -110 -54 -377z" />
    <glyph glyph-name="Identity.524" unicode="&#x30e6;" 
d="M693 124h152q35 0 77 5v-60q-26 4 -77 4h-680q-42 0 -81 -4v60q35 -5 81 -5h473q17 90 41.5 260t25.5 219h-422q-43 0 -85 -3v58q56 -6 84 -6h400q25 0 44 7l44 -20q-4 -10 -6 -25q-17 -168 -71 -490z" />
    <glyph glyph-name="Identity.525" unicode="&#x30e7;" 
d="M763 -45h-52q1 8 1 41h-415q-19 0 -46.5 -1t-34.5 -1v54q34 -4 80 -4h416v205h-385q-44 0 -78 -2v53q60 -4 77 -4h386v193h-393q-11 0 -47.5 -1t-42.5 -1v52q22 -3 90 -3h390q13 0 30.5 0.5t22.5 0.5q-1 -9 -1 -40v-497q0 -19 2 -45z" />
    <glyph glyph-name="Identity.526" unicode="&#x30e8;" 
d="M820 -18h-55q1 12 1 52h-508q-59 0 -99 -4v57q38 -4 98 -4h509v258h-470q-53 0 -97 -2v56q50 -5 95 -5h472v244h-482q-59 0 -110 -3v56q36 -4 110 -4h474q31 0 61 2q-1 -12 -1 -48v-603q0 -20 2 -52z" />
    <glyph glyph-name="Identity.527" unicode="&#x30e9;" 
d="M825 507l38 -23q-8 -14 -11 -23q-41 -175 -144 -288q-130 -141 -358 -204l-40 46q220 44 355 188q47 50 80.5 117t47.5 133h-559q-38 0 -86 -3v57q48 -6 86 -6h546q30 0 45 6zM236 676v55q33 -4 81 -4h399q51 0 80 4v-55q-22 2 -81 2h-398q-29 0 -81 -2z" />
    <glyph glyph-name="Identity.528" unicode="&#x30ea;" 
d="M236 741h60q-3 -25 -3 -69v-332q0 -48 3 -70h-60q4 28 4 70v332q0 46 -4 69zM700 748h60q-3 -33 -3 -78v-141q0 -126 -10.5 -202.5t-30 -120t-57.5 -91.5q-72 -91 -235 -147l-42 44q159 44 238 138q53 63 69 140t16 240v140q0 41 -5 78z" />
    <glyph glyph-name="Identity.529" unicode="&#x30eb;" 
d="M129 -13l-48 33q128 90 177 249q30 98 30 407q0 32 -6 61h60q-4 -32 -4 -61q0 -307 -31 -422q-47 -163 -178 -267zM571 -9l-35 30q6 20 6 46v608q0 23 -4 67h59q-3 -17 -3 -67v-609q83 39 172 110t146 157l31 -44q-63 -87 -155.5 -159.5t-187.5 -119.5q-13 -6 -29 -19z
" />
    <glyph glyph-name="Identity.530" unicode="&#x30ec;" 
d="M274 -3l-36 30q7 15 7 40v589q0 48 -6 78h64q-6 -34 -6 -77v-596q161 39 319.5 133.5t247.5 213.5l30 -44q-95 -120 -245.5 -211.5t-342.5 -143.5q-26 -9 -32 -12z" />
    <glyph glyph-name="Identity.531" unicode="&#x30ed;" 
d="M794 619h-584v-511h584v511zM846 605v-495q0 -80 2 -110h-56q0 4 0.5 13t1 22.5t0.5 23.5h-584q0 -10 0.5 -31.5t1.5 -27.5h-55q2 34 2 109v496q0 44 -1 66q38 -2 80 -2h528q55 0 82 2q-2 -22 -2 -66z" />
    <glyph glyph-name="Identity.532" unicode="&#x30ee;" 
d="M772 529l36 -24q-5 -11 -8 -29q-29 -223 -105 -326q-112 -153 -305 -217l-43 43q188 48 299 195q79 105 99 306h-495v-172q0 -4 0.5 -20t0.5 -25h-54q3 16 3 45v172q0 19 -2 49q19 -2 82 -2h456q24 0 36 5z" />
    <glyph glyph-name="Identity.533" unicode="&#x30ef;" 
d="M821 690l40 -25q-7 -12 -10 -34q-12 -86 -20.5 -134t-31.5 -119.5t-55 -121.5q-60 -95 -159 -168.5t-219 -110.5l-43 42q119 33 216 100t159 163q78 121 97 355h-594v-221q0 -32 2 -53h-57q2 21 2 53v215q0 29 -3 57q24 -2 97 -2h535q28 0 44 4z" />
    <glyph glyph-name="Identity.534" unicode="&#x30f0;" 
d="M364 237h273v314h-273v-314zM687 237h149q34 0 76 5v-56q-25 3 -76 3h-149v-117q0 -50 3 -95h-57q4 46 4 93v119h-460q-37 0 -82 -3v56q36 -5 82 -5h137v314h-100q-23 0 -83 -2v54q37 -4 83 -4h423v91q0 30 -4 66h57q-3 -42 -3 -66v-91h123q27 0 77 4v-54q-26 2 -77 2
h-123v-314z" />
    <glyph glyph-name="Identity.535" unicode="&#x30f1;" 
d="M807 621h-564l-100 -4v57q60 -4 98 -4h562q32 0 49 6l35 -26q-2 -2 -9.5 -12.5t-11.5 -16.5q-36 -62 -94.5 -130.5t-122.5 -119.5l-46 33q60 39 115.5 99t88.5 118zM509 102h334q27 0 79 4v-59q-27 3 -79 3h-672q-39 0 -84 -3v59q39 -4 84 -4h286v374q0 39 -2 59h58
q-4 -28 -4 -59v-374z" />
    <glyph glyph-name="Identity.536" unicode="&#x30f2;" 
d="M822 702l43 -27q-6 -13 -10 -31q-46 -271 -115 -377q-73 -109 -171.5 -180.5t-237.5 -117.5l-42 45q261 63 405 274q26 40 49 107h-460q-44 0 -85 -3v55q50 -4 84 -4h476q26 89 42 206h-532q-36 0 -96 -3v59q42 -7 96 -7h511q28 0 43 4z" />
    <glyph glyph-name="Identity.537" unicode="&#x30f3;" 
d="M219 716q52 -35 131.5 -99t120.5 -104l-39 -39q-44 43 -120 107t-128 98zM157 44q220 34 409 156q103 68 187.5 165.5t127.5 190.5l31 -53q-120 -221 -316 -347q-189 -122 -406 -164z" />
    <glyph glyph-name="Identity.538" unicode="&#x30f4;" 
d="M820 672l-39 -18q-35 73 -82 138l38 17q48 -68 83 -137zM496 612h254q43 0 59 7l36 -23q-7 -18 -12 -49q-30 -192 -101 -310q-55 -94 -153.5 -164.5t-234.5 -108.5l-42 48q35 5 80 21q87 25 169 85t129 135q39 64 65.5 152.5t33.5 158.5h-596v-198q0 -32 3 -51h-57
q4 17 4 52v178q0 50 -4 71q52 -4 89 -4h226v103q0 33 -4 65h61q-5 -30 -5 -65v-103zM811 819l37 17q51 -68 85 -136l-38 -18q-47 90 -84 137z" />
    <glyph glyph-name="Identity.539" unicode="&#x30f5;" 
d="M758 456l33 -19q-4 -28 -4 -39q-2 -54 -6 -119.5t-16.5 -153.5t-29.5 -122q-24 -44 -79 -44q-62 0 -138 6l-5 50q66 -9 133 -9q35 0 48 25q22 45 33 164.5t11 209.5h-262q-20 -172 -79 -276.5t-170 -180.5l-45 37q23 11 70 45q148 117 178 375h-160q-58 0 -84 -2v53
q50 -4 83 -4h165q3 45 3 94q0 33 -4 58h56q-1 -5 -3 -55q-1 -36 -5 -97h232q23 0 45 4z" />
    <glyph glyph-name="Identity.540" unicode="&#x30f6;" 
d="M355 441h421q50 0 72 3v-53q-34 3 -72 3h-161q-20 -326 -252 -466l-53 36q33 11 72 41q170 132 183 389h-235q-28 -48 -68.5 -97.5t-72.5 -76.5l-48 28q75 53 151 177q35 59 53 127q8 29 9 52l59 -13q-11 -27 -17 -49q-18 -53 -41 -101z" />
    <glyph glyph-name="Identity.541" unicode="&#x30fb;" 
d="M406 380q0 39 27.5 66.5t66.5 27.5t66.5 -27.5t27.5 -66.5t-27.5 -66.5t-66.5 -27.5t-66.5 27.5t-27.5 66.5z" />
    <glyph glyph-name="Identity.542" unicode="&#x30fc;" 
d="M108 353v62q52 -4 127 -4h554q62 0 102 4v-62q-54 3 -101 3h-555q-87 0 -127 -3z" />
    <glyph glyph-name="Identity.543" unicode="&#x30fd;" 
d="M355 565q87 -76 195 -195.5t177 -213.5l-48 -36q-64 97 -170 214.5t-199 196.5z" />
    <glyph glyph-name="Identity.544" unicode="&#x30fe;" 
d="M572 681q42 -59 94 -150l-43 -19q-50 97 -91 151zM700 722q48 -69 93 -149l-42 -19q-56 105 -92 150zM330 563q87 -77 195 -196t177 -213l-48 -37q-64 97 -170 214.5t-199 196.5z" />
    <glyph glyph-name="Identity.545" unicode="&#x4e00;" 
d="M49 417h906v-53h-906v53z" />
    <glyph glyph-name="Identity.546" unicode="&#x4e01;" 
d="M934 732v-48h-378v-663q0 -35 -12 -51t-39 -24q-37 -9 -227 -9q-5 22 -23 53q136 -4 215 -1q18 1 25.5 7.5t7.5 23.5v664h-437v48h868z" />
    <glyph glyph-name="Identity.547" unicode="&#x4e03;" 
d="M487 12h290q48 0 63 32.5t22 138.5q20 -16 49 -24q-9 -115 -33.5 -154.5t-102.5 -39.5h-286q-82 0 -111.5 25t-29.5 99v338l-284 -48l-9 48l293 49v343h49v-336l539 91l9 -48l-548 -92v-347q0 -44 17.5 -59.5t72.5 -15.5z" />
    <glyph glyph-name="Identity.548" unicode="&#x4e07;" 
d="M935 707h-529q-4 -143 -14 -230h446q-1 -19 -1 -26q-14 -252 -30 -356.5t-45 -134.5q-22 -26 -74 -29q-79 -2 -176 6q-2 26 -17 47q78 -8 178 -8q35 -1 47 12q25 22 39.5 120t27.5 323h-401q-51 -373 -306 -508q-14 19 -36 34q60 31 108 75.5t80 91t55 109t35.5 114
t20.5 123t10 119t4 118.5h-291v46h869v-46z" />
    <glyph glyph-name="Identity.549" unicode="&#x4e08;" 
d="M932 583h-300q-7 -157 -34.5 -265t-93.5 -187q161 -127 446 -161q-19 -23 -29 -45q-289 42 -451 171q-119 -113 -366 -165q-10 25 -28 42q243 50 356 156q-144 137 -208 387l44 12q59 -234 197 -363q61 72 86 172.5t30 245.5h-511v47h512q2 59 2 189h51q0 -129 -2 -189
h299v-47z" />
    <glyph glyph-name="Identity.550" unicode="&#x4e09;" 
d="M127 735h750v-48h-750v48zM187 407h612v-48h-612v48zM68 55h864v-48h-864v48z" />
    <glyph glyph-name="Identity.551" unicode="&#x4e0a;" 
d="M491 22h453v-48h-887v48h384v794h50v-320h385v-47h-385v-427z" />
    <glyph glyph-name="Identity.552" unicode="&#x4e0b;" 
d="M942 711h-436v-192l10 12q93 -44 198 -105.5t167 -106.5l-31 -42q-142 105 -344 207v-556h-50v783h-397v48h883v-48z" />
    <glyph glyph-name="Identity.553" unicode="&#x4e0d;" 
d="M927 712h-324q-28 -50 -79 -122v-662h-50v600q-167 -200 -389 -319q-19 26 -32 39q152 80 282.5 203.5t208.5 260.5h-470v48h853v-48zM566 495l34 31q97 -59 196.5 -132.5t153.5 -128.5l-36 -36q-54 55 -153.5 131t-194.5 135z" />
    <glyph glyph-name="Identity.554" unicode="&#x4e0e;" 
d="M944 248v-46h-189q-32 -202 -81 -247q-25 -25 -80 -28q-71 -2 -184 7q-2 27 -17 47q94 -8 188 -8q40 0 53 11q43 38 72 218h-647v46h654q12 82 20 169h-458q-7 -31 -15 -57l-49 6q55 184 110 469l48 -5q-13 -68 -32 -149h505v-46h-515q-17 -76 -40 -172h499
q-1 -19 -2 -27q-15 -135 -23 -188h183z" />
    <glyph glyph-name="Identity.555" unicode="&#x4e11;" 
d="M311 6h360q15 138 31 357h-339q-26 -202 -52 -357zM722 716h-315q-21 -175 -38 -306h336q11 169 17 306zM944 363h-195q-14 -211 -28 -357h211v-47h-864v47h195q29 172 54 357h-259v47h265q24 184 36 306h-220v47h633q-8 -170 -20 -353h192v-47z" />
    <glyph glyph-name="Identity.556" unicode="&#x4e14;" 
d="M267 223v-205h472v205h-472zM739 725h-472v-202h472v202zM739 269v209h-472v-209h472zM788 18h155v-47h-885v47h162v754h568v-754z" />
    <glyph glyph-name="Identity.557" unicode="&#x4e16;" 
d="M521 292h220v239h-220v-239zM789 199h-48v47h-220v-54h-47v339h-217v-477h658v-47h-658v-80h-48v604h-154v46h154v231h48v-231h217v253h47v-253h220v240h48v-240h159v-46h-159v-332z" />
    <glyph glyph-name="Identity.558" unicode="&#x4e18;" 
d="M268 422v-403h370v403h-370zM686 19h259v-47h-888v47h162v696l46 -12q347 49 504 111l42 -39q-177 -65 -543 -115v-192h629v-46h-211v-403z" />
    <glyph glyph-name="Identity.559" unicode="&#x4e19;" 
d="M520 714v-169h368v-543q0 -28 -8.5 -42t-30.5 -21q-30 -9 -174 -9q-4 21 -19 50q101 -4 161 -1q13 1 18 5.5t5 17.5v497h-322q-6 -58 -16 -94q78 -59 159 -130.5t126 -122.5l-35 -35q-43 50 -116.5 118.5t-146.5 125.5q-61 -162 -255 -261q-14 21 -35 36q77 37 131 83
t81.5 95t40 92t16.5 93h-306v-572h-47v618h355v169h-398v47h857v-47h-409z" />
    <glyph glyph-name="Identity.560" unicode="&#x4e1e;" 
d="M361 569l28 -15q-40 -140 -122.5 -246t-187.5 -169q-14 21 -35 35q95 51 171.5 141.5t115.5 206.5h-260v44h280zM83 -29v45h832v-45h-832zM861 616l41 -31q-118 -104 -240 -183q128 -161 295 -223q-22 -17 -34 -40q-125 54 -230 161.5t-169 244.5v-396q0 -27 -8 -39.5
t-29 -18.5q-31 -9 -174 -9q-2 17 -17 46q106 -3 158 0q14 1 18.5 5t4.5 16v461h47v-1q101 58 182 133h-522v44h569l11 3l32 -23q-100 -103 -244 -186q34 -76 86 -146q131 89 223 182z" />
    <glyph glyph-name="Identity.561" unicode="&#x4e21;" 
d="M937 714h-421v-155h370v-567q0 -26 -7.5 -39t-27.5 -20q-25 -7 -159 -7q-10 31 -20 46q107 -3 146 -1q21 1 21 22v520h-323v-347h153v249h45v-357h-45v64h-347v-73h-43v366h43v-249h147v347h-305v-587h-46v633h351v155h-405v46h873v-46z" />
    <glyph glyph-name="Identity.562" unicode="&#x4e26;" 
d="M732 832l49 -17q-61 -116 -115 -188l-42 18q66 89 108 187zM373 655l-45 -21q-29 84 -105 180l41 17q76 -93 109 -176zM415 572v-549h163v549h-163zM625 23h318v-48h-885v48h310v549h-280v48h828v-48h-291v-549zM139 452l43 12q40 -76 70 -166.5t38 -156.5l-46 -11
q-8 67 -37.5 156.5t-67.5 165.5zM735 128l-42 14q66 137 121 333l50 -14q-78 -227 -129 -333z" />
    <glyph glyph-name="Identity.563" unicode="&#x4e2d;" 
d="M522 309h323v295h-323v-295zM150 309h323v295h-323v-295zM522 651h372v-450h-49v61h-323v-334h-49v334h-323v-66h-47v455h370v181h49v-181z" />
    <glyph glyph-name="Identity.564" unicode="&#x4e32;" 
d="M522 143h318v174h-318v-174zM162 143h311v174h-311v-174zM201 503h272v167h-272v-167zM795 670h-273v-167h273v167zM522 362h368v-305h-50v42h-318v-171h-49v171h-311v-44h-48v307h359v97h-321v255h321v119h49v-119h323v-255h-323v-97z" />
    <glyph glyph-name="Identity.565" unicode="&#x4e38;" 
d="M780 -10h109q24 0 31.5 33.5t9.5 148.5q20 -16 46 -23q-4 -123 -19.5 -164.5t-64.5 -41.5h-117q-47 0 -64 18t-17 71v537h-263q-10 -150 -44 -264q123 -86 183 -146l-38 -37q-60 63 -161 135q-84 -228 -298 -332q-13 21 -38 36q213 99 294 326q-98 68 -197 120l34 32
q87 -46 178 -106q29 99 39 236h-294v47h296q4 72 4 214h49q0 -118 -4 -214h309v-585q0 -26 7 -33.5t30 -7.5z" />
    <glyph glyph-name="Identity.566" unicode="&#x4e39;" 
d="M375 635l36 28q132 -95 210 -185l-39 -32q-31 38 -90 92t-117 97zM253 392h501v337h-500v-285q0 -34 -1 -52zM943 392v-47h-141v-342q0 -31 -10 -46.5t-33 -21.5q-35 -9 -193 -9q-9 30 -20 49q114 -4 179 -1q16 1 22.5 7t6.5 21v343h-503q-19 -278 -174 -422
q-13 19 -35 34q145 135 162 388h-146v47h148q1 18 1 52v331h595v-383h141z" />
    <glyph glyph-name="Identity.567" unicode="&#x4e3b;" 
d="M609 659l-40 -28q-55 73 -177 169l37 26q50 -36 101 -83.5t79 -83.5zM525 10h419v-48h-883v48h414v276h-323v47h323v247h-366v47h784v-47h-368v-247h330v-47h-330v-276z" />
    <glyph glyph-name="Identity.568" unicode="&#x4e43;" 
d="M664 498h256q-1 -20 -2 -27q-14 -257 -31 -367t-47 -141q-27 -28 -76 -28q-52 -3 -176 4q-4 29 -17 48q78 -7 178 -7q35 0 49 12q25 24 41 128t29 332h-210q-6 -42 -12 -75l-48 4q21 117 42 332h-297v-78q0 -73 -3.5 -130.5t-18.5 -140t-41.5 -150.5t-77 -145.5
t-120.5 -141.5q-13 19 -38 36q67 62 116 135.5t74.5 138t39.5 143t17.5 132t3.5 123.5v78h-200v47h600q-15 -145 -31 -262z" />
    <glyph glyph-name="Identity.569" unicode="&#x4e45;" 
d="M633 667l32 -16q-32 -133 -89 -250q54 -146 155 -262.5t228 -170.5q-23 -21 -34 -41q-121 56 -218.5 166.5t-158.5 254.5q-161 -287 -458 -426q-19 31 -36 41q195 86 340.5 251t208.5 403h-290q-94 -185 -229 -306q-21 21 -42 34q100 82 179.5 209.5t129.5 278.5l50 -12
q-27 -76 -64 -157h285z" />
    <glyph glyph-name="Identity.570" unicode="&#x4e4b;" 
d="M857 631l35 -23q-88 -140 -242 -292t-306 -249q110 -76 356 -76q218 0 256 1q-16 -22 -20 -48h-238q-190 0 -304 43t-180 162q-64 -124 -130 -220l-45 25q51 66 103 161t85 177l45 -19q-14 -33 -34 -74q28 -61 70 -101q136 83 277.5 219.5t227.5 262.5h-711v47h372v204
h49v-204h324z" />
    <glyph glyph-name="Identity.571" unicode="&#x4e4d;" 
d="M935 610h-472v-169h418v-46h-418v-177h431v-47h-431v-244h-49v683h-147q-79 -128 -176 -222q-23 20 -44 30q84 74 157.5 184.5t123.5 233.5l48 -12q-37 -89 -81 -167h640v-47z" />
    <glyph glyph-name="Identity.572" unicode="&#x4e4e;" 
d="M942 358v-49h-410v-308q0 -32 -11 -47t-35 -22q-28 -8 -200 -8q-8 25 -22 49q134 -4 188 -2q17 2 24 8t7 22v308h-423v49h423v357q-179 -15 -344 -20q-1 17 -12 43q490 19 691 74l27 -42q-114 -30 -313 -51v-361h410zM179 640l42 14q79 -135 103 -228l-44 -17
q-28 102 -101 231zM714 409l-38 18q71 116 119 242l49 -18q-74 -156 -130 -242z" />
    <glyph glyph-name="Identity.573" unicode="&#x4e4f;" 
d="M823 514l36 -24q-87 -118 -233.5 -238.5t-295.5 -195.5q56 -38 138 -52.5t202 -15.5q251 0 291 1q-15 -21 -19 -47h-272q-183 0 -288.5 36.5t-167.5 137.5q-63 -109 -116 -180l-43 26q44 51 90.5 128t74.5 142l44 -18q-7 -15 -26 -52q21 -42 54 -75q133 63 267.5 169
t217.5 209h-656v46h352v201q-192 -16 -354 -22q-1 17 -12 43q506 20 726 75l39 -40q-126 -30 -351 -52v-205h293z" />
    <glyph glyph-name="Identity.574" unicode="&#x4e57;" 
d="M304 392v-137h170v137h-170zM304 570v-134h170v134h-170zM698 570h-176v-134h176v134zM698 255v137h-176v-137h176zM908 211h-339q69 -69 174.5 -127.5t209.5 -87.5q-19 -17 -34 -42q-108 37 -217.5 103t-179.5 142v-273h-48v271q-70 -72 -179 -136t-214 -98
q-16 25 -34 39q102 30 207 87t174 122h-327v44h156v137h-198v44h198v134h-147v44h364v109q-143 -13 -339 -20q0 23 -11 41q484 20 688 70l35 -40q-115 -27 -325 -47v-113h378v-44h-155v-134h197v-44h-197v-137h163v-44z" />
    <glyph glyph-name="Identity.575" unicode="&#x4e59;" 
d="M277 13h502q56 0 74.5 39t23.5 165q19 -12 50 -18q-9 -143 -38.5 -189t-111.5 -46h-492q-94 0 -142 30.5t-48 86.5q0 31 14 60.5t67.5 93.5t179 178t327.5 285h-587v48h652l12 4l34 -23q-1 -1 -12 -8q-216 -182 -351.5 -303.5t-193.5 -186t-74.5 -93t-16.5 -52.5
q0 -35 35.5 -53t95.5 -18z" />
    <glyph glyph-name="Identity.576" unicode="&#x4e5d;" 
d="M761 -11h123q23 0 29.5 25.5t8.5 115.5q22 -15 46 -22q-3 -98 -19 -132t-63 -34h-129q-50 0 -68 17.5t-18 69.5v493h-256q-8 -103 -26.5 -184.5t-55.5 -161t-100.5 -142.5t-153.5 -107q-10 15 -37 38q86 40 147.5 98.5t97 133t53 151.5t25.5 174h-280v49h283q5 82 5 252
h50q0 -149 -5 -252h302v-543q0 -24 7.5 -31.5t33.5 -7.5z" />
    <glyph glyph-name="Identity.577" unicode="&#x4e5e;" 
d="M922 653h-671q-73 -111 -166 -192q-11 13 -42 34q77 59 143 148.5t107 190.5l49 -13q-30 -71 -62 -121h642v-47zM305 -8l498 -1q45 0 59.5 28t18.5 123q14 -9 47 -18q-7 -113 -32 -146.5t-96 -33.5h-488q-159 0 -159 93q0 24 11.5 46t54 66.5t145 119.5t266.5 182h-437
v47h518l11 2l35 -23q-6 -6 -13 -9q-147 -95 -251 -167t-159.5 -114.5t-86 -73t-37.5 -44.5t-7 -28q0 -49 102 -49z" />
    <glyph glyph-name="Identity.578" unicode="&#x4e5f;" 
d="M394 -8h383q70 0 91.5 35.5t31.5 153.5q21 -15 46 -20q-11 -127 -42.5 -170.5t-130.5 -43.5h-373q-101 0 -137.5 28t-36.5 110v341l-176 -54l-13 43l189 57v293h47v-279l239 74v271h47v-257l260 79l5 5l11 8l34 -16l-3 -10q-5 -291 -35 -371q-24 -62 -79 -67
q-61 -4 -114 -1q-2 25 -13 46q39 -3 109 -3q20 0 33.5 9.5t23.5 38.5q24 65 27 315l-259 -80v-393h-47v379l-239 -73v-358q0 -53 24 -71.5t97 -18.5z" />
    <glyph glyph-name="Identity.579" unicode="&#x4e71;" 
d="M469 39v235h-320v-235h320zM332 731v-180h233v-45h-233v-188h184v-369h-47v46h-320v-50h-46v373h182v188h-239v45h239v172q-92 -15 -206 -27q-3 16 -15 40q308 34 435 85l40 -38q-82 -28 -207 -52zM717 -12h141q30 0 39 35.5t13 153.5q23 -18 43 -22q-5 -125 -22 -168
t-72 -43h-144q-56 0 -75.5 20.5t-19.5 82.5v775h48v-777q0 -36 9 -46.5t40 -10.5z" />
    <glyph glyph-name="Identity.580" unicode="&#x4e73;" 
d="M487 829l31 -40q-152 -52 -460 -72q-2 11 -14 40q308 24 443 72zM415 507l-37 17q60 81 110 191l44 -20q-63 -116 -117 -188zM314 561l-43 -7q-3 68 -26 149l41 7q25 -83 28 -149zM161 541l-43 -13q-8 67 -46 144l40 11q38 -74 49 -142zM319 320v-64l231 21v-47l-231 -22
v-218q0 -24 -7 -35.5t-25 -18.5q-23 -7 -132 -7q-4 19 -18 46q57 -1 117 -1q18 1 18 16v213q-40 -3 -115 -10t-108 -10l-7 50q24 2 102.5 8.5t127.5 10.5v98h23q73 45 133 104h-342v44h386l11 3l33 -25q-78 -84 -197 -156zM692 -12h162q34 0 44 36.5t15 155.5q18 -14 44 -22
q-4 -87 -12 -129t-28 -63t-61 -21h-167q-60 0 -81 21.5t-21 85.5v764h48v-766q0 -38 11 -50t46 -12z" />
    <glyph glyph-name="Identity.581" unicode="&#x4e7e;" 
d="M143 397v-99h275v99h-275zM143 533v-97h275v97h-275zM302 258v-101h199v-45h-199v-184h-47v184h-207v45h207v101h-156v316h156v100h-195v44h195v115h47v-115h189v-44h-189v-100h162v-316h-162zM954 634h-350q-43 -94 -95 -159q-13 13 -41 31q101 118 155 327l48 -9
q-20 -78 -48 -145h331v-45zM632 -12h236q27 0 35.5 27t10.5 125q15 -11 44 -17q-4 -81 -13.5 -119.5t-26 -50.5t-51.5 -12h-233q-110 0 -110 74q0 26 11 53.5t73.5 116.5t182.5 235h-250v45h296l12 1l32 -13q-4 -8 -7 -11q-132 -160 -201 -252.5t-83.5 -121t-14.5 -47.5
q0 -33 57 -33z" />
    <glyph glyph-name="Identity.582" unicode="&#x4e80;" 
d="M178 89h294v84h-294v-84zM472 293h-294v-83h294v83zM832 293h-313v-83h313v83zM519 89h313v84h-313v-84zM219 424h253v81h-253v-81zM561 733h-257q-46 -47 -80 -75h282q31 36 55 75zM472 541v79h-253v-79h253zM779 541v79h-260v-79h260zM779 424v81h-260v-81h260z
M594 -27h250q35 0 45.5 20.5t15.5 90.5q19 -13 45 -18q-6 -79 -26.5 -106t-80.5 -27h-249q-72 0 -97 19.5t-25 77.5v21h-294v-59h-47v339h341v55h-299v233q-42 -30 -89 -55q-15 20 -34 30q93 48 164 112.5t111 127.5l51 -10q-11 -17 -37 -51h248l9 2l3 -2h1v-1l27 -17
q-23 -47 -64 -97h263v-272h-307v-55h359v-280h-359v-22q0 -34 13.5 -45t61.5 -11z" />
    <glyph glyph-name="Identity.583" unicode="&#x4e86;" 
d="M839 753l37 -26q-64 -75 -161 -151t-191 -127v-450q0 -30 -10 -44.5t-35 -19.5q-28 -8 -200 -8q-4 19 -20 48q146 -5 188 -1q16 1 22 6t6 19v495h39q70 40 143.5 97t127.5 112h-687v47h730z" />
    <glyph glyph-name="Identity.584" unicode="&#x4e88;" 
d="M907 468l38 -18q-120 -170 -190 -234l-39 25q75 71 147 178h-333v-420q0 -27 -8.5 -40t-30.5 -19q-29 -8 -173 -8q-4 18 -18 46q105 -3 158 0q14 1 18.5 5t4.5 16v420h-422v46h549q-151 83 -323 161l27 34q58 -25 194 -90q126 69 231 164h-586v46h633l12 3l35 -26
q-107 -109 -277 -211q36 -17 121 -62l-13 -19h235z" />
    <glyph glyph-name="Identity.585" unicode="&#x4e89;" 
d="M797 208v141h-279v-141h279zM518 527v-133h279v133h-279zM955 394v-45h-110v-245h-48v58h-279v-166q0 -27 -9.5 -41t-32.5 -20q-34 -9 -174 -9q-6 20 -21 48q53 -2 163 -2q15 2 20.5 6.5t5.5 17.5v166h-330v46h330v141h-420v45h420v133h-289v44h296q61 55 114 135h-273
q-94 -111 -208 -185q-22 24 -37 33q92 57 164.5 133t113.5 149l54 -10q-16 -27 -52 -76h269l9 3l35 -24q-50 -82 -128 -158h307v-177h110z" />
    <glyph glyph-name="Identity.586" unicode="&#x4e8b;" 
d="M797 123v92h-276v-92h276zM521 343v-86h276v86h-276zM225 507h248v86h-248v-86zM782 593h-261v-86h261v86zM948 257v-42h-104v-178h-47v46h-276v-89q0 -29 -9 -42.5t-29 -19.5q-28 -8 -162 -8q-5 20 -18 44q98 -3 145 0q14 1 19.5 6t5.5 19v90h-335v40h335v92h-417v42
h417v86h-325v40h325v86h-295v163h295v70h-400v42h400v88h48v-88h410v-42h-410v-70h309v-163h-309v-86h323v-126h104z" />
    <glyph glyph-name="Identity.587" unicode="&#x4e8c;" 
d="M145 687h711v-50h-711v50zM59 87h883v-51h-883v51z" />
    <glyph glyph-name="Identity.588" unicode="&#x4e91;" 
d="M836 751v-49h-668v49h668zM940 397h-496q-88 -222 -163 -359q175 4 527 18q-78 110 -170 209l42 21q75 -76 147 -170t108 -164l-46 -27q-18 35 -51 87q-402 -19 -769 -30l-5 50q115 2 164 4q91 167 156 361h-322v48h878v-48z" />
    <glyph glyph-name="Identity.589" unicode="&#x4e92;" 
d="M276 256h398q10 79 28 250h-373q-38 -185 -53 -250zM690 19h254v-46h-886v46h582q15 89 28 192h-403q-2 -11 -7 -30.5t-6 -23.5l-50 6q64 237 119 554h-229v46h822v-46h-543q-24 -124 -33 -166h418q-35 -342 -66 -532z" />
    <glyph glyph-name="Identity.590" unicode="&#x4e94;" 
d="M722 391h-305q-43 -222 -76 -358h381v358zM771 33h171v-47h-883v47h230q35 141 78 358h-199v47h208q18 90 45 247h-295v47h741v-47h-395q-8 -45 -25 -136.5t-21 -110.5h345v-405z" />
    <glyph glyph-name="Identity.591" unicode="&#x4e95;" 
d="M342 306h315v263h-310v-132q0 -78 -5 -131zM934 306v-47h-228v-332h-49v332h-321q-16 -107 -67 -192t-153 -151q-12 15 -38 34q175 112 208 309h-218v47h224q6 50 6 131v132h-196v48h196v211h49v-211h310v211h49v-211h206v-48h-206v-263h228z" />
    <glyph glyph-name="Identity.592" unicode="&#x4e98;" 
d="M88 764h828v-46h-828v46zM59 14h884v-45h-884v45zM259 351v-170h488v170h-488zM259 562v-168h488v168h-488zM212 606h584v-469h-584v469z" />
    <glyph glyph-name="Identity.593" unicode="&#x4e99;" 
d="M689 19h254v-46h-885v46h582q40 207 74 501h-366q-66 -275 -100 -393l-52 3q77 249 146 586h-251v45h823v-45h-521q-25 -106 -35 -151h410q-42 -336 -79 -546zM346 239l30 34q149 -67 224 -136l-31 -37q-34 32 -98.5 72t-124.5 67zM399 423l30 32q123 -56 190 -118
l-32 -36q-65 63 -188 122z" />
    <glyph glyph-name="Identity.594" unicode="&#x4e9b;" 
d="M851 341h-189q-62 0 -84 18t-22 69v404h48v-211q168 58 247 112l41 -36q-105 -59 -288 -121v-149q0 -24 11 -32t48 -8h186q33 0 42.5 25t13.5 113q16 -13 45 -21q-5 -98 -24 -130.5t-75 -32.5zM174 177v47h667v-47h-667zM500 417l1 -45q-315 -43 -445 -60l-7 48l72 8v351
h46v-345l107 13v445h48v-183h172v-45h-172v-210zM63 -46v47h875v-47h-875z" />
    <glyph glyph-name="Identity.595" unicode="&#x4e9c;" 
d="M400 218v-201h186v201h-186zM175 264h178v250h-178v-250zM400 718v-159h186v159h-186zM586 264v250h-186v-250h186zM818 514h-185v-250h185v250zM633 17h312v-46h-889v46h297v201h-178v-42h-46v383h224v159h-267v46h830v-46h-283v-159h234v-380h-49v39h-185v-201z" />
    <glyph glyph-name="Identity.596" unicode="&#x4ea1;" 
d="M945 583h-717v-477q0 -51 26.5 -72.5t91.5 -21.5h421q89 0 140 8q5 -31 9 -48q-29 -7 -148 -7h-416q-91 0 -131.5 32.5t-40.5 110.5v475h-125v48h420v202h49v-202h421v-48z" />
    <glyph glyph-name="Identity.597" unicode="&#x4ea4;" 
d="M935 694v-47h-869v47h408v140h49v-140h412zM630 573l40 30q76 -51 153.5 -114.5t118.5 -112.5l-41 -34q-41 50 -118 115.5t-153 115.5zM332 603l47 -18q-49 -69 -125 -136t-154 -116q-20 25 -38 40q78 42 151 103.5t119 126.5zM660 432l50 -14q-60 -159 -172 -266
q165 -136 420 -179q-20 -20 -33 -46q-259 49 -424 192q-154 -128 -423 -196q-7 18 -31 46q268 58 418 183q-105 105 -166 259l45 15q54 -142 158 -241q105 101 158 247z" />
    <glyph glyph-name="Identity.598" unicode="&#x4ea5;" 
d="M812 421l43 -25q-89 -131 -232 -234q192 -112 299 -202l-43 -34q-106 91 -297 207q-212 -141 -498 -209q-10 25 -28 45q255 58 451.5 174.5t304.5 277.5zM524 693h416v-46h-440l11 -6q-96 -109 -217 -207q85 -64 123 -100q164 104 253 231l42 -23q-93 -130 -250.5 -233.5
t-346.5 -162.5q-17 30 -31 41q158 46 289 121q-91 89 -231 174l34 30q42 -26 82 -53q112 94 192 188h-386v46h411v141h49v-141z" />
    <glyph glyph-name="Identity.599" unicode="&#x4ea6;" 
d="M218 487l48 -11q-65 -187 -189 -307q-15 12 -43 28q123 109 184 290zM936 604h-274v-606q0 -28 -9 -42t-30 -21q-29 -8 -167 -8q-6 25 -19 50q72 -2 152 -2q14 1 19 5.5t5 17.5v606h-193v-127q0 -62 -4 -111t-19 -113.5t-41.5 -117.5t-75.5 -110.5t-116 -104.5
q-10 14 -35 34q64 45 110.5 99.5t71.5 104.5t39.5 110.5t18 106t3.5 102.5v127h-307v47h410v182h49v-182h412v-47zM741 469l41 17q57 -73 107 -161.5t70 -152.5l-45 -21q-20 64 -69 154.5t-104 163.5z" />
    <glyph glyph-name="Identity.600" unicode="&#x4ea8;" 
d="M839 330l36 -29q-132 -88 -346 -145v-171q0 -25 -8 -37t-31 -17q-33 -9 -193 -7q-3 14 -18 43q151 -4 177 -1q15 1 19.5 5t4.5 15v210h42q136 36 237 88h-655v43h723zM751 449v125h-493v-125h493zM211 614h589v-205h-589v205zM523 732h412v-44h-871v44h410v102h49v-102z
" />
    <glyph glyph-name="Identity.601" unicode="&#x4eab;" 
d="M933 738v-43h-867v43h408v96h49v-96h410zM246 579v-110h512v110h-512zM807 429h-609v191h609v-191zM943 171v-44h-419v-143q0 -24 -8 -36t-29 -17q-24 -6 -171 -6q-5 17 -18 40q104 -3 154 0q14 1 18.5 5t4.5 14v143h-416v44h416v69h33q124 30 220 74h-578v42h650l12 3
l34 -28q-120 -75 -322 -124v-36h419z" />
    <glyph glyph-name="Identity.602" unicode="&#x4eac;" 
d="M933 706v-46h-863v46h404v128h49v-128h410zM248 205l49 -16q-35 -60 -90 -121t-112 -102q-17 17 -37 28q57 41 109.5 99t80.5 112zM246 511v-192h518v192h-518zM813 275h-290v-284q0 -25 -8.5 -38t-29.5 -18q-31 -9 -176 -7q-9 28 -18 44q106 -3 160 0q14 1 18.5 5
t4.5 14v284h-276v280h615v-280zM696 181l43 22q130 -127 195 -218l-45 -25q-72 106 -193 221z" />
    <glyph glyph-name="Identity.603" unicode="&#x4ead;" 
d="M192 190v43h626v-43h-294v-202q0 -26 -8 -38t-31 -17q-26 -7 -186 -7q-3 15 -19 44q134 -5 171 -1q15 1 19.5 5t4.5 14v202h-283zM84 173v190h836v-190h-46v149h-744v-149h-46zM752 475v113h-500v-113h500zM204 627h597v-191h-597v191zM523 740h413v-43h-871v43h409v98
h49v-98z" />
    <glyph glyph-name="Identity.604" unicode="&#x4eae;" 
d="M936 740v-43h-871v43h409v98h49v-98h413zM920 181h-46v132h-744v-132h-46v174h836v-174zM753 468v118h-501v-118h501zM205 624h597v-196h-597v196zM337 254h50q-14 -148 -79.5 -221.5t-233.5 -107.5q-7 18 -26 39q82 15 135.5 37.5t86 59.5t47 81.5t20.5 111.5zM690 -27
h157q29 0 37.5 22.5t11.5 104.5q19 -14 44 -19q-5 -92 -22 -121t-66 -29h-166q-59 0 -79 14.5t-20 59.5v246h49v-246q0 -20 10 -26t44 -6z" />
    <glyph glyph-name="Identity.605" unicode="&#x4eba;" 
d="M519 798l-2 -36q2 -35 7 -73.5t18.5 -105t33 -128t54.5 -135t79 -134.5t110.5 -117.5t145.5 -92.5q-24 -18 -37 -40q-81 38 -149 98t-113 124t-80.5 141t-55 141.5t-33.5 133.5q-12 -70 -29.5 -134t-51 -139.5t-77 -139t-111 -123.5t-149.5 -102q-12 18 -37 37
q396 192 425 809q1 11 1 16h51z" />
    <glyph glyph-name="Identity.606" unicode="&#x4ec0;" 
d="M312 829l45 -13q-41 -104 -106 -215v-673h-47v599q-66 -97 -129 -161q-16 29 -31 44q80 77 151 187.5t117 231.5zM950 479v-47h-283v-505h-49v505h-293v47h293v346h49v-346h283z" />
    <glyph glyph-name="Identity.607" unicode="&#x4ec1;" 
d="M895 658v-49h-514v49h514zM312 831l47 -13q-49 -122 -113 -231v-657h-48v583q-56 -83 -119 -146q-10 22 -32 44q79 76 149 187t116 233zM321 56h621v-49h-621v49z" />
    <glyph glyph-name="Identity.608" unicode="&#x4ec7;" 
d="M283 831l46 -14q-45 -119 -102 -222v-669h-47v590q-45 -71 -105 -141q-15 27 -30 44q71 76 134.5 185t103.5 227zM827 -16h40q19 0 28 6q11 6 14 31q5 33 5 121q17 -15 40 -22q0 -99 -8 -129q-7 -29 -25 -41q-20 -11 -50 -11h-51q-34 0 -52 14q-13 9 -17 27.5t-4 71.5
v494h-200q-6 -106 -19.5 -190.5t-40.5 -167.5t-75 -149.5t-115 -113.5q-11 18 -37 32q124 84 176 230.5t64 358.5h-190v46h192q3 78 3 241h48q0 -137 -4 -241h246v-551q0 -47 9 -53q8 -4 23 -4z" />
    <glyph glyph-name="Identity.609" unicode="&#x4eca;" 
d="M773 323l9 3l36 -12q-87 -196 -189 -391l-49 13q69 127 169 341h-594v46h618zM279 513h444v-46h-444v46zM469 833h46q77 -108 202 -218.5t243 -177.5q-19 -16 -33 -40q-119 72 -240.5 180.5t-191.5 206.5q-61 -96 -178 -206t-244 -189q-11 19 -30 37q129 77 247 190.5
t179 216.5z" />
    <glyph glyph-name="Identity.610" unicode="&#x4ecb;" 
d="M496 783q-61 -104 -175.5 -212.5t-243.5 -182.5q-12 22 -30 37q131 72 247 184.5t175 222.5h48q74 -118 196 -225.5t244 -168.5q-9 -9 -32 -42q-122 67 -241 173t-188 214zM655 490h49v-561h-49v561zM292 486h48v-149q0 -62 -7 -109.5t-28.5 -104t-68.5 -106.5t-120 -91
q-11 16 -36 34q69 39 114 85t65 98.5t26.5 95t6.5 99.5v148z" />
    <glyph glyph-name="Identity.611" unicode="&#x4ecf;" 
d="M312 826l46 -13q-50 -118 -113 -218v-665h-47v594q-67 -93 -139 -162q-12 22 -32 44q84 76 160 187.5t125 232.5zM975 -53l-47 -20q-17 58 -42 119q-395 -39 -587 -57l-11 50l105 8q50 148 106 363t92 392l51 -9q-93 -420 -202 -742q61 5 430 37q-64 153 -138 284l42 15
q62 -108 119.5 -232.5t81.5 -207.5z" />
    <glyph glyph-name="Identity.612" unicode="&#x4ed4;" 
d="M311 826l46 -13q-48 -115 -112 -217v-666h-47v596q-69 -98 -140 -164q-12 22 -32 44q85 76 160.5 187.5t124.5 232.5zM961 397v-47h-307v-350q0 -29 -8.5 -43t-31.5 -21q-35 -8 -184 -8q-9 33 -19 49q41 -1 170 -1q15 1 20.5 6t5.5 18v350h-319v47h319v151h31
q114 73 200 169h-460v45h500l11 3l33 -23q-49 -60 -123 -123t-145 -108v-114h307z" />
    <glyph glyph-name="Identity.613" unicode="&#x4ed5;" 
d="M313 829l45 -13q-49 -116 -113 -219v-668h-47v599q-70 -96 -138 -162q-15 25 -33 43q86 76 161.5 187.5t124.5 232.5zM961 461h-308v-444h291v-47h-613v47h274v444h-297v46h297v312h48v-312h308v-46z" />
    <glyph glyph-name="Identity.614" unicode="&#x4ed6;" 
d="M283 829l44 -13q-45 -113 -107 -218v-670h-47v597q-58 -86 -121 -150q-7 18 -29 42q77 75 146 184.5t114 227.5zM538 -17h289q46 0 60.5 28.5t21.5 121.5q21 -16 46 -21q-5 -54 -10.5 -83t-19.5 -51.5t-37 -30.5t-62 -8h-286q-81 0 -109.5 23.5t-28.5 93.5v354l-111 -43
l-18 43l129 50v280h47v-262l177 68v286h46v-268l187 73l8 6l10 9l33 -14l-3 -10q0 -332 -15 -386q-12 -56 -61 -61q-34 -5 -95 -3q-4 27 -14 45q16 -1 86 -1q16 0 25 7t15 27q14 48 14 332l-190 -73v-374h-46v355l-177 -68v-373q0 -43 17.5 -57.5t71.5 -14.5z" />
    <glyph glyph-name="Identity.615" unicode="&#x4ed8;" 
d="M312 826l46 -14q-46 -118 -112 -229v-654h-48v580q-61 -89 -121 -147q-9 20 -31 44q80 77 150 188t116 232zM944 607v-48h-135v-555q0 -34 -11 -49.5t-36 -21.5q-34 -10 -203 -8q-7 23 -21 49q135 -4 192 -2q18 2 24.5 8t6.5 23v556h-419v48h419v214h48v-214h135z
M614 185l-43 -27q-56 109 -156 256l41 20q103 -149 158 -249z" />
    <glyph glyph-name="Identity.616" unicode="&#x4ed9;" 
d="M291 830l44 -14q-43 -111 -106 -213v-673h-47v600q-61 -87 -126 -152q-13 21 -30 45q79 74 149 181.5t116 225.5zM866 559h47v-611h-47v81h-466v-89h-46v619h46v-484h204v728h48v-728h214v484z" />
    <glyph glyph-name="Identity.617" unicode="&#x4edd;" 
d="M525 318v-313h365v-49h-784v49h368v313h-280v49h614v-49h-283zM466 833h51q76 -119 202 -238.5t248 -191.5q-13 -13 -35 -44q-123 79 -245 196t-191 225q-63 -107 -180.5 -226.5t-246.5 -201.5q-11 16 -33 39q132 82 251.5 205.5t178.5 236.5z" />
    <glyph glyph-name="Identity.618" unicode="&#x4ee3;" 
d="M926 642l-37 -26q-69 82 -176 164l33 23q116 -86 180 -161zM331 821l45 -15q-51 -113 -116 -212v-666h-49v598q-77 -101 -152 -166q-15 29 -30 43q90 75 170.5 186t131.5 232zM947 518l-313 -38q64 -485 235 -499q23 -1 38 44t24 138q18 -15 41 -23q-15 -118 -39 -167
t-62 -47q-79 5 -137 77.5t-91.5 188t-55.5 282.5l-265 -32l-7 45l268 32q-16 147 -23 300h48q6 -158 21 -294l310 37z" />
    <glyph glyph-name="Identity.619" unicode="&#x4ee4;" 
d="M832 347v-287q0 -22 -7 -34t-25 -19q-26 -8 -151 -8q-2 16 -18 45q101 -3 133 -1q20 1 20 18v240h-320v-374h-48v374h-283v46h699zM288 533h426v-45h-426v45zM470 833h46q78 -104 202 -206t243 -162q-15 -13 -33 -41q-119 66 -240 166.5t-192 194.5
q-62 -92 -178.5 -194.5t-243.5 -174.5q-11 18 -31 38q130 70 248 175t179 204z" />
    <glyph glyph-name="Identity.620" unicode="&#x4ee5;" 
d="M574 467l-45 -24q-18 50 -62 118t-93 124l41 20q50 -55 94.5 -121.5t64.5 -116.5zM456 262l11 -46q-242 -111 -406 -183l-18 48q32 13 140 60l-14 642l48 2l13 -623q66 28 226 100zM964 -34l-41 -35q-71 100 -246 279q-118 -187 -366 -286q-18 23 -39 40q108 39 188 93
t136 122t94 161.5t61 198.5t38 246l51 -5q-41 -348 -138 -528q176 -172 262 -286z" />
    <glyph glyph-name="Identity.621" unicode="&#x4eee;" 
d="M291 830l45 -14q-41 -104 -107 -214v-672h-47v600q-61 -87 -126 -152q-10 19 -30 46q79 74 149 181.5t116 224.5zM861 465h-332q59 -179 170 -307q115 130 162 307zM890 513l29 -13q-53 -226 -188 -377q104 -106 236 -154q-16 -15 -33 -40q-131 53 -235 160
q-107 -104 -247 -163q-15 24 -32 39q142 57 247 159q-121 142 -185 341h-33q0 -364 -123 -541q-18 18 -40 28q70 100 93 231t23 286v311h537v-46h-490v-223h431z" />
    <glyph glyph-name="Identity.622" unicode="&#x4ef0;" 
d="M282 830l46 -14q-46 -113 -107 -212v-674h-46v603q-61 -89 -126 -155q-16 30 -30 45q79 73 148.5 181t114.5 226zM563 824l49 -28q-93 -73 -205 -134v-505q106 29 186 53l7 -42q-74 -24 -286 -87l-19 46q10 2 32.5 8t34.5 9v563l30 -9q112 66 171 126zM929 732v-562
q0 -26 -7 -38.5t-25 -19.5q-25 -9 -147 -9q-3 22 -16 47q85 -3 129 0q12 1 15.5 4.5t3.5 15.5v518h-209v-761h-46v805h302z" />
    <glyph glyph-name="Identity.623" unicode="&#x4ef2;" 
d="M277 833l45 -13q-43 -121 -98 -221v-671h-46v592q-45 -73 -106 -143q-17 31 -30 44q71 75 133 184.5t102 227.5zM651 302h232v276h-232v-276zM377 302h226v276h-226v-276zM651 623h279v-427h-47v60h-232v-327h-48v327h-226v-65h-46v432h272v200h48v-200z" />
    <glyph glyph-name="Identity.624" unicode="&#x4ef6;" 
d="M284 829l46 -13q-46 -120 -101 -219v-669h-47v590q-50 -79 -110 -144q-18 29 -30 43q72 75 136 184.5t106 227.5zM943 326v-47h-281v-353h-48v353h-297v47h297v249h-179q-39 -107 -79 -166q-15 13 -41 27q87 117 126 350l46 -9q-15 -80 -38 -155h165v199h48v-199h240v-47
h-240v-249h281z" />
    <glyph glyph-name="Identity.625" unicode="&#x4efb;" 
d="M312 834l46 -14q-51 -117 -112 -215v-679h-48v607q-67 -93 -139 -162q-13 23 -32 44q85 76 160.5 187t124.5 232zM956 354h-301v-340h282v-46h-604v46h274v340h-311v46h311v290q-82 -15 -261 -39q-3 18 -15 40q382 54 539 111l36 -40q-84 -30 -251 -63v-299h301v-46z" />
    <glyph glyph-name="Identity.626" unicode="&#x4f01;" 
d="M530 280v-278h397v-45h-849v45h137v384h47v-384h219v569h49v-245h301v-46h-301zM469 834h47q76 -114 199.5 -225.5t243.5 -178.5q-17 -14 -33 -40q-121 72 -241.5 182t-188.5 213q-60 -101 -176.5 -213.5t-243.5 -189.5q-9 15 -31 37q130 77 247 192t177 223z" />
    <glyph glyph-name="Identity.627" unicode="&#x4f0a;" 
d="M292 830l44 -14q-45 -112 -107 -215v-674h-46v604q-64 -91 -126 -153q-14 23 -31 44q78 73 148.5 181.5t117.5 226.5zM825 282v195h-233v-57q0 -84 -8 -138h241zM592 715v-192h233v192h-233zM953 523v-46h-81v-296h-47v56h-249q-46 -209 -262 -311q-16 23 -31 38
q200 87 245 273h-189v45h198q8 54 8 137v58h-264v46h264v192h-190v46h517v-238h81z" />
    <glyph glyph-name="Identity.628" unicode="&#x4f0d;" 
d="M279 826l46 -13q-40 -104 -95 -203v-682h-47v604q-62 -97 -131 -169q-14 26 -29 44q77 77 145 188t111 231zM807 392h-242q-39 -223 -69 -374h311v374zM855 18h105v-46h-667v46h154q29 137 70 374h-174v46h182q31 191 41 266h-223v45h576v-45h-303q-7 -45 -22 -137
t-21 -129h282v-420z" />
    <glyph glyph-name="Identity.629" unicode="&#x4f0e;" 
d="M283 830l45 -14q-38 -97 -98 -201v-686h-48v610q-63 -93 -130 -162q-14 25 -30 45q78 75 147.5 183t113.5 225zM874 448l30 -17q-71 -196 -236 -327q131 -99 298 -140q-14 -13 -32 -42q-172 47 -305 153q-136 -96 -324 -149q-11 19 -30 41q186 49 318 139
q-126 117 -193 277l42 15q64 -154 190 -264q143 111 208 267h-522v45h284v177h-299v46h299v163h48v-163h305v-46h-305v-177h215z" />
    <glyph glyph-name="Identity.630" unicode="&#x4f0f;" 
d="M896 621l-38 -25q-50 85 -128 178l37 21q87 -100 129 -174zM293 830l45 -13q-41 -108 -102 -212v-677h-48v600q-61 -90 -124 -155q-16 29 -31 44q77 75 146 184.5t114 228.5zM945 481h-296q77 -395 308 -513q-22 -16 -37 -41q-211 121 -298 467q-49 -290 -289 -466
q-16 17 -40 33q261 186 292 520h-274v47h278q2 28 2 83v220h48v-220q0 -55 -2 -83h308v-47z" />
    <glyph glyph-name="Identity.631" unicode="&#x4f10;" 
d="M872 667l-31 -32q-55 54 -178 148l30 26q97 -70 179 -142zM312 827l46 -14q-45 -114 -112 -224v-660h-48v587q-57 -83 -122 -146q-9 22 -30 43q79 75 149.5 184.5t116.5 229.5zM841 473l45 -18q-77 -152 -206 -272q36 -100 81.5 -154.5t95.5 -54.5q24 0 35.5 39.5
t16.5 136.5q22 -18 42 -24q-8 -115 -28 -157.5t-69 -42.5q-125 0 -213 222q-131 -110 -301 -186q-18 28 -35 41q184 73 320 191q-46 138 -67 315l-267 -27l-6 45l267 27q-15 138 -16 268h50q0 -135 14 -263l326 33l4 -45l-324 -33q17 -151 58 -283q109 104 177 242z" />
    <glyph glyph-name="Identity.632" unicode="&#x4f11;" 
d="M311 826l47 -14q-46 -112 -113 -217v-666h-48v596q-70 -94 -139 -157q-13 24 -32 45q87 74 162 182.5t123 230.5zM949 524h-269q52 -128 132 -245.5t160 -181.5q-22 -17 -37 -38q-80 70 -160 193t-133 257v-583h-47v566q-52 -134 -129.5 -251.5t-159.5 -186.5
q-21 23 -38 37q84 62 163 181t129 252h-263v47h298v249h47v-249h307v-47z" />
    <glyph glyph-name="Identity.633" unicode="&#x4f1a;" 
d="M91 282v45h824v-45h-483q-83 -177 -134 -262q217 6 466 17q-80 95 -152 155l39 23q71 -62 138.5 -136t102.5 -129l-42 -27q-20 32 -51 71q-143 -6 -386.5 -16.5t-304.5 -12.5l-7 49q100 2 143 4q72 122 130 264h-283zM257 519h481v-46h-481v46zM468 832h47
q77 -109 201 -207t246 -152q-10 -9 -32 -41q-122 59 -243 156t-193 197q-61 -94 -176.5 -191.5t-244.5 -165.5q-10 20 -29 39q129 64 246 164.5t178 200.5z" />
    <glyph glyph-name="Identity.634" unicode="&#x4f1d;" 
d="M902 750v-47h-521v47h521zM291 830l44 -14q-43 -111 -106 -213v-673h-47v600q-61 -87 -126 -152q-13 21 -30 45q79 74 149 181.5t116 225.5zM966 -52l-44 -22q-13 38 -40 90q-306 -25 -580 -45l-10 49l118 7q70 162 122 375h-228v46h654v-46h-371q-66 -226 -127 -371
q176 10 399 28q-57 97 -123 181l40 19q60 -72 114 -160t76 -151z" />
    <glyph glyph-name="Identity.635" unicode="&#x4f2f;" 
d="M292 829l45 -10q-45 -141 -108 -254v-641h-48v561q-46 -71 -107 -137q-16 26 -31 40q79 79 144 194.5t105 246.5zM411 22h408v272h-408v-272zM819 603h-408v-262h408v262zM579 649h289v-714h-49v39h-408v-46h-47v721h167q34 85 56 184l54 -12q-46 -133 -62 -172z" />
    <glyph glyph-name="Identity.636" unicode="&#x4f34;" 
d="M842 789l47 -20q-70 -147 -119 -221l-38 17q65 102 110 224zM492 571l-43 -22q-29 101 -96 215l40 16q68 -107 99 -209zM291 830l44 -14q-43 -111 -106 -213v-673h-47v600q-61 -87 -126 -152q-13 21 -30 45q79 74 149 181.5t116 225.5zM955 265v-45h-316v-292h-48v292
h-303v45h303v201h-261v45h261v311h48v-311h274v-45h-274v-201h316z" />
    <glyph glyph-name="Identity.637" unicode="&#x4f36;" 
d="M291 830l44 -14q-43 -111 -106 -213v-673h-47v600q-61 -87 -126 -152q-13 21 -30 45q79 74 149 181.5t116 225.5zM884 366v-272q0 -44 -33 -55q-28 -7 -161 -7q-3 18 -18 45q116 -3 145 0q12 1 16 4t4 13v227h-263v-396h-47v396h-222v45h579zM428 543h383v-45h-383v45z
M584 826h46q62 -89 156.5 -175.5t185.5 -137.5q-13 -14 -29 -42q-93 58 -185.5 142.5t-147.5 164.5q-51 -81 -139.5 -167t-185.5 -146q-15 25 -28 38q99 58 189.5 148t137.5 175z" />
    <glyph glyph-name="Identity.638" unicode="&#x4f38;" 
d="M281 829l46 -13q-45 -114 -108 -220v-667h-46v596q-57 -84 -122 -150q-16 28 -29 43q77 75 146 184t113 227zM649 250h235v170h-235v-170zM373 250h229v170h-229v-170zM602 630h-229v-166h229v166zM884 630h-235v-166h235v166zM649 675h282v-517h-47v47h-235v-277h-47
v277h-229v-53h-46v523h275v153h47v-153z" />
    <glyph glyph-name="Identity.639" unicode="&#x4f3a;" 
d="M281 829l45 -13q-44 -114 -107 -220v-668h-47v594q-63 -91 -120 -148q-8 19 -29 43q77 75 145 184t113 228zM786 614v-44h-455v44h455zM670 408h-245v-229h245v229zM715 135h-290v-71h-45v388h335v-317zM914 777v-775q0 -54 -40 -67q-30 -8 -181 -8q-1 18 -17 49
q121 -3 164 -1q15 2 20.5 7.5t5.5 19.5v730h-524v45h572z" />
    <glyph glyph-name="Identity.640" unicode="&#x4f3c;" 
d="M709 468l-42 -24q-45 110 -144 239l40 19q103 -128 146 -234zM281 829l46 -13q-45 -114 -108 -220v-667h-46v596q-57 -84 -122 -150q-16 28 -29 43q77 75 146 184t113 227zM637 258l9 -41q-173 -69 -351 -136l-21 49q53 17 107 36l-6 610h47l6 -594q71 25 209 76z
M974 -38l-37 -35q-52 85 -174 235q-107 -158 -345 -241q-8 18 -33 43q94 29 164 67t120.5 92.5t83.5 116.5t54 150.5t31.5 181t16.5 221.5l50 -2q-10 -209 -36.5 -349t-81.5 -240q132 -155 187 -240z" />
    <glyph glyph-name="Identity.641" unicode="&#x4f3d;" 
d="M243 832l43 -12q-27 -95 -75 -204v-689h-45v597q-44 -86 -99 -156q-6 17 -27 43q128 162 203 421zM608 615v-27q-11 -328 -22 -451t-35 -153q-20 -26 -55 -29q-27 -3 -89 1q-2 29 -13 45q38 -3 87 -3q22 0 31 15q33 44 50 558h-115q-7 -233 -41 -389.5t-121 -255.5
q-13 16 -38 29q83 90 116 241.5t39 374.5h-113v44h114q2 69 2 214h45q0 -76 -2 -214h160zM704 95h160v573h-160v-573zM660 713h249v-745h-45v82h-160v-90h-44v753z" />
    <glyph glyph-name="Identity.642" unicode="&#x4f43;" 
d="M282 829l45 -13q-47 -119 -109 -221v-667h-46v595q-56 -82 -121 -149q-8 22 -29 43q77 76 146 185t114 227zM653 33h208v330h-208v-330zM407 363v-330h199v330h-199zM606 728h-199v-319h199v319zM861 409v319h-208v-319h208zM361 775h548v-840h-48v51h-454v-60h-46v849z
" />
    <glyph glyph-name="Identity.643" unicode="&#x4f46;" 
d="M819 485v226h-375v-226h375zM819 209v231h-375v-231h375zM869 757v-594h-473v594h473zM295 829l46 -14q-40 -106 -108 -218v-669h-48v594q-60 -88 -122 -149q-9 25 -30 44q78 75 147.5 184.5t114.5 227.5zM303 17h658v-46h-658v46z" />
    <glyph glyph-name="Identity.644" unicode="&#x4f4d;" 
d="M320 627h274v195h48v-195h288v-46h-610v46zM539 89l-47 -10q-6 76 -29.5 195.5t-52.5 220.5l43 7q29 -100 53.5 -218.5t32.5 -194.5zM291 830l45 -14q-41 -104 -107 -214v-672h-47v600q-61 -87 -126 -152q-10 19 -30 46q79 74 149 181.5t116 224.5zM695 23h263v-46h-665
v46h356q36 92 76.5 233t64.5 256l51 -10q-77 -305 -146 -479z" />
    <glyph glyph-name="Identity.645" unicode="&#x4f4e;" 
d="M281 829l46 -13q-45 -114 -108 -220v-667h-46v596q-57 -84 -122 -150q-16 28 -29 43q77 75 146 184t113 227zM325 -43v44h439v-44h-439zM414 476h243q-13 120 -16 228q-114 -20 -227 -32v-196zM952 431h-243q25 -189 75 -302t107 -112q18 0 26.5 31t12.5 108
q15 -15 40 -24q-6 -93 -23.5 -128t-58.5 -35q-81 0 -139.5 125.5t-86.5 336.5h-248v-295q119 23 261 51l3 -42q-23 -5 -165.5 -34.5t-202.5 -41.5l-12 47q32 4 69 12v595l35 -10q302 35 459 85l40 -37q-87 -27 -211 -49q1 -121 14 -236h248v-45z" />
    <glyph glyph-name="Identity.646" unicode="&#x4f4f;" 
d="M729 681l-32 -38q-83 81 -218 159l32 33q142 -81 218 -154zM291 830l44 -14q-43 -111 -106 -213v-673h-47v600q-61 -87 -126 -152q-13 21 -30 45q79 74 149 181.5t116 225.5zM660 10h295v-47h-647v47h304v282h-242v46h242v246h-276v47h604v-47h-280v-246h250v-46h-250
v-282z" />
    <glyph glyph-name="Identity.647" unicode="&#x4f50;" 
d="M291 830l44 -14q-43 -111 -106 -213v-673h-47v600q-61 -87 -126 -152q-13 21 -30 45q79 74 149 181.5t116 225.5zM957 576h-414q-29 -120 -62 -209h454v-45h-223v-317h241v-46h-558v46h269v317h-188v31q-75 -200 -192 -327q-15 17 -39 35q166 167 249 515h-204v46h215
q19 92 37 205l49 -6q-18 -110 -37 -199h403v-46z" />
    <glyph glyph-name="Identity.648" unicode="&#x4f51;" 
d="M292 833l44 -14q-48 -116 -107 -213v-678h-46v606q-64 -91 -126 -153q-10 18 -31 44q79 74 149 182t117 226zM858 320h-359v-279h359v279zM956 588h-384q-38 -124 -90 -222h424v-428h-48v58h-359v-67h-47v384q-70 -115 -163 -192q-21 26 -32 36q177 145 266 431h-227v47
h240q27 100 42 197l49 -9q-16 -92 -42 -188h371v-47z" />
    <glyph glyph-name="Identity.649" unicode="&#x4f53;" 
d="M269 829l45 -12q-38 -111 -95 -223v-666h-46v585q-43 -72 -100 -139q-8 16 -30 43q67 75 126.5 184t99.5 228zM948 571h-272q46 -134 124 -253t162 -181q-14 -12 -37 -39q-85 70 -162.5 195t-126.5 268v-393h176v-45h-176v-192h-47v192h-184v45h184v392
q-51 -143 -129.5 -268t-164.5 -196q-13 20 -35 35q84 64 162.5 184.5t128.5 255.5h-261v46h299v214h47v-214h312v-46z" />
    <glyph glyph-name="Identity.650" unicode="&#x4f55;" 
d="M279 831l45 -13q-35 -103 -94 -214v-677h-47v596q-50 -82 -106 -144q-15 27 -30 44q69 73 130.5 181.5t101.5 226.5zM628 478h-209v-245h209v245zM673 189h-254v-73h-46v406h300v-333zM956 729v-46h-81v-676q0 -32 -10 -47t-35 -22q-32 -9 -198 -9q-4 18 -20 51
q118 -4 188 -1q16 1 22 6.5t6 20.5v677h-495v46h623z" />
    <glyph glyph-name="Identity.651" unicode="&#x4f59;" 
d="M470 830h46q78 -98 200.5 -189t241.5 -143q-20 -20 -32 -42q-118 57 -238 147.5t-192 180.5q-64 -88 -179 -180.5t-240 -155.5q-11 17 -30 38q129 63 245 157.5t178 186.5zM279 209l45 -17q-94 -127 -233 -222q-17 19 -39 32q142 87 227 207zM916 286h-393v-293
q0 -46 -37 -58q-32 -8 -156 -7q-3 21 -19 46q94 -3 141 0q22 1 22 19v293h-383v45h383v149h-238v45h523v-45h-236v-149h393v-45zM664 186l36 27q64 -47 130.5 -108.5t103.5 -106.5l-39 -31q-36 46 -101.5 108t-129.5 111z" />
    <glyph glyph-name="Identity.652" unicode="&#x4f5c;" 
d="M306 829l46 -14q-46 -116 -107 -218v-669h-49v592q-62 -88 -120 -146q-14 28 -30 44q77 74 146 183t114 228zM953 617h-324v-168h304v-45h-304v-175h318v-46h-318v-256h-48v690h-87q-69 -129 -149 -218q-25 22 -38 31q139 146 225 389l45 -12q-30 -83 -61 -144h437v-46z
" />
    <glyph glyph-name="Identity.653" unicode="&#x4f73;" 
d="M604 478v166h-227v46h227v143h48v-143h235v-46h-235v-166h280v-46h-605v46h277zM284 829l45 -12q-39 -113 -99 -225v-666h-48v583q-44 -70 -100 -135q-11 22 -30 43q69 75 130.5 184t101.5 228zM652 14h301v-47h-661v47h312v196h-248v47h248v130h48v-130h250v-47h-250
v-196z" />
    <glyph glyph-name="Identity.654" unicode="&#x4f75;" 
d="M805 835l49 -18q-78 -139 -110 -185l-38 17q54 79 99 186zM544 654l-44 -22q-21 79 -89 179l40 17q69 -93 93 -174zM291 830l44 -14q-43 -111 -106 -213v-673h-47v600q-61 -87 -126 -152q-13 21 -30 45q79 74 149 181.5t116 225.5zM522 347h208v228h-208v-228zM958 347
v-47h-181v-372h-47v372h-210q-16 -258 -202 -380q-11 20 -33 35q174 108 188 345h-179v47h181v228h-151v46h612v-46h-159v-228h181z" />
    <glyph glyph-name="Identity.655" unicode="&#x4f7c;" 
d="M304 686h298v147h48v-147h306v-45h-652v45zM720 577l38 24q134 -116 198 -210l-40 -26q-29 44 -85 104.5t-111 107.5zM476 601l46 -14q-71 -132 -198 -235q-15 17 -39 32q120 85 191 217zM279 826l46 -13q-40 -104 -95 -203v-682h-47v604q-62 -97 -131 -169
q-14 26 -29 44q77 77 145 188t111 231zM749 423l50 -12q-45 -163 -142 -273q126 -123 308 -174q-18 -15 -32 -41q-181 55 -308 181q-122 -121 -325 -180q-13 24 -25 39q199 56 318 175q-97 110 -151 261l42 13q50 -139 141 -240q89 105 124 251z" />
    <glyph glyph-name="Identity.656" unicode="&#x4f7f;" 
d="M292 835l44 -14q-42 -107 -107 -216v-683h-46v612q-60 -86 -125 -151q-14 23 -31 44q79 73 149 181.5t116 226.5zM394 332h212q1 22 1 66v114h-213v-180zM873 512h-219v-114q0 -44 -1 -66h220v180zM919 289h-270q-12 -124 -72 -203q155 -90 385 -118q-13 -13 -30 -45
q-228 34 -384 129q-82 -84 -238 -130q-17 27 -28 39q151 41 227 117q-102 71 -158 170l41 16q50 -87 146 -152q53 70 65 177h-254v266h258v114h-292v45h292v116h47v-116h301v-45h-301v-114h265v-266z" />
    </font>
</defs>
</svg>
